# This file uses meters as units for non-parametric coordinates.

mtllib Book.mtl
g default
v 0.000000 3.940755 16.883947
v -12.497697 2.189309 16.883947
v 0.000000 2.189309 16.883947
v 12.505331 3.940755 16.883947
v 12.505331 2.189309 16.883947
v 12.505331 2.189309 -16.883947
v 12.505331 3.940755 -16.883947
v 0.000000 2.189309 -16.883947
v 0.000000 3.940755 -16.883947
v -12.497697 2.189309 -16.883947
v 0.000000 0.437862 -16.883947
v 12.505331 0.437862 -16.883947
v 12.505331 0.437862 16.883947
v 0.000000 0.437862 16.883947
v -12.327708 4.116554 17.514469
v -12.691482 3.805409 17.514469
v -12.497697 3.600784 16.883947
v -12.157724 3.940755 16.883947
v -12.327710 3.895208 16.883947
v -12.452149 3.770770 16.883947
v -12.697898 3.801889 -17.514469
v -12.334125 4.113034 -17.514469
v -12.157724 3.940755 -16.883947
v -12.497697 3.600784 -16.883947
v -12.452149 3.770770 -16.883947
v -12.327710 3.895208 -16.883947
v -12.351232 0.226145 -17.514469
v -12.715005 0.537290 -17.514469
v -12.497697 0.777834 -16.883947
v -12.157724 0.437862 -16.883947
v -12.327710 0.483409 -16.883947
v -12.452149 0.607848 -16.883947
v -12.658862 0.617661 17.514469
v -12.295089 0.306516 17.514469
v -12.157724 0.437862 16.883947
v -12.497697 0.777834 16.883947
v -12.452149 0.607848 16.883947
v -12.327710 0.483409 16.883947
v -12.551419 3.880822 17.514469
v -12.430161 3.984537 17.514469
v -12.430161 3.984537 -17.514469
v -12.551419 3.880822 -17.514469
v -12.574360 0.454856 -17.514469
v -12.430161 0.394080 -17.514469
v -12.429257 0.456625 17.514469
v -12.550516 0.560340 17.514469
v 13.052991 4.378617 17.431608
v 13.111583 4.354348 17.490200
v 13.135852 4.295756 17.514469
v 13.052991 4.378617 -17.431608
v 13.111583 4.354348 -17.490200
v 13.135852 4.295756 -17.514469
v 13.052991 0.000000 17.431608
v 13.111583 0.024270 17.490200
v 13.135852 0.082861 17.514469
v 13.052991 0.000000 -17.431608
v 13.111583 0.024270 -17.490200
v 13.135852 0.082861 -17.514469
v 0.000000 0.000000 17.431608
v 0.000000 0.024270 17.490200
v 0.000000 0.082861 17.514469
v 0.000000 4.378617 17.431608
v 0.000000 4.354348 17.490200
v 0.000000 4.295756 17.514469
v 0.000000 4.378617 -17.431608
v 0.000000 4.354348 -17.490200
v 0.000000 4.295756 -17.514469
v 0.000000 0.000000 -17.431608
v 0.000000 0.024270 -17.490200
v 0.000000 0.082861 -17.514469
v -11.822267 0.000000 17.411530
v -11.847566 0.016401 17.484320
v -11.908643 0.055995 17.514469
v -11.822267 4.378617 17.411530
v -11.847566 4.362217 17.484320
v -11.908643 4.322622 17.514469
v -11.822267 4.378617 -17.411530
v -11.847566 4.362217 -17.484320
v -11.908643 4.322622 -17.514469
v -11.822267 0.000000 -17.411530
v -11.847566 0.016401 -17.484320
v -11.908643 0.055995 -17.514469
v -13.052991 2.189309 17.514469
v -13.111583 2.189309 17.490200
v -13.135852 2.189309 17.431608
v -13.135852 3.228814 17.417004
v -13.116796 3.250071 17.485922
v -13.070796 3.301391 17.514469
v -13.052991 2.189309 -17.514469
v -13.111583 2.189309 -17.490200
v -13.135852 2.189309 -17.431608
v -13.135852 1.149804 -17.417004
v -13.116796 1.128546 -17.485922
v -13.070796 1.077226 -17.514469
v -12.497697 2.189309 -17.431608
v -12.521966 2.189309 -17.490200
v -12.580558 2.189309 -17.514469
v -12.580558 0.766925 -17.514469
v -12.521966 0.774639 -17.490200
v -12.497697 0.777834 -17.431608
v -12.497697 2.189309 17.431608
v -12.521966 2.189309 17.490200
v -12.580558 2.189309 17.514469
v -12.580558 3.611692 17.514469
v -12.521966 3.603979 17.490200
v -12.497697 3.600784 17.431608
v -13.052991 3.321255 -17.514469
v -13.137670 3.255889 -17.514526
v -13.135852 3.228814 -17.431608
v -13.135852 3.287405 -17.514469
v -13.135852 3.458866 17.431608
v -13.111583 3.456476 17.490200
v -13.052991 3.450705 17.514469
v 0.000000 3.940755 17.431608
v 0.000000 3.965025 17.490200
v 0.000000 4.023616 17.514469
v 13.135852 4.023616 17.514469
v 13.111583 3.965025 17.490200
v 13.052991 3.940755 17.431608
v 13.135852 4.023616 -17.514469
v 13.111583 3.965025 -17.490200
v 13.052991 3.940755 -17.431608
v 0.000000 4.023616 -17.514469
v 0.000000 3.965025 -17.490200
v 0.000000 3.940755 -17.431608
v -12.168633 4.023616 -17.514469
v -12.160920 3.965025 -17.490200
v -12.157724 3.940755 -17.431608
v -13.135852 1.149804 17.417004
v -13.116796 1.128546 17.485922
v -13.070796 1.077226 17.514469
v -13.135852 0.919751 -17.431608
v -13.111583 0.922141 -17.490200
v -13.052991 0.927912 -17.514469
v 0.000000 0.437862 -17.431608
v 0.000000 0.413592 -17.490200
v 0.000000 0.355001 -17.514469
v 13.135852 0.355001 -17.514469
v 13.111583 0.413592 -17.490200
v 13.052991 0.437862 -17.431608
v 13.135852 0.355001 17.514469
v 13.111583 0.413592 17.490200
v 13.052991 0.437862 17.431608
v 0.000000 0.355001 17.514469
v 0.000000 0.413592 17.490200
v 0.000000 0.437862 17.431608
v -12.168633 0.355001 17.514469
v -12.160920 0.413592 17.490200
v -12.157724 0.437862 17.431608
v -12.207939 4.295756 17.514469
v -12.213710 4.354348 17.490200
v -12.216100 4.378617 17.431608
v -12.216100 4.378617 -17.431608
v -12.213710 4.354348 -17.490200
v -12.207939 4.295756 -17.514469
v -12.216100 0.000000 17.431608
v -12.213710 0.024270 17.490200
v -12.207939 0.082861 17.514469
v -13.052991 0.927912 17.514469
v -13.111583 0.922141 17.490200
v -13.135852 0.919751 17.431608
v -12.207939 0.082861 -17.514469
v -12.213710 0.024270 -17.490200
v -12.216100 0.000000 -17.431608
v -13.065840 3.810840 17.431608
v -13.042979 3.801370 17.490200
v -12.987787 3.778509 17.514469
v -13.122808 3.425179 -17.515278
v -13.135852 3.343851 -17.514469
v -13.122808 3.458866 -17.436182
v -12.987787 3.778509 -17.514469
v -13.042979 3.801370 -17.490200
v -13.065840 3.810840 -17.431608
v -12.866463 4.109228 17.431608
v -12.848966 4.091731 17.490200
v -12.806723 4.049489 17.514469
v -12.806723 4.049489 -17.514469
v -12.848966 4.091731 -17.490200
v -12.866463 4.109228 -17.431608
v -12.568073 4.308605 17.431608
v -12.558603 4.285744 17.490200
v -12.535743 4.230552 17.514469
v -12.535743 4.230552 -17.514469
v -12.558603 4.285744 -17.490200
v -12.568073 4.308605 -17.431608
v -12.568073 0.070012 17.431608
v -12.558603 0.092873 17.490200
v -12.535743 0.148065 17.514469
v -12.535743 0.148065 -17.514469
v -12.558603 0.092873 -17.490200
v -12.568073 0.070012 -17.431608
v -12.866463 0.269389 17.431608
v -12.848966 0.286886 17.490200
v -12.806723 0.329128 17.514469
v -12.806723 0.329128 -17.514469
v -12.848966 0.286886 -17.490200
v -12.866463 0.269389 -17.431608
v -13.065840 0.567778 17.431608
v -13.042979 0.577247 17.490200
v -12.987787 0.600108 17.514469
v -12.987787 0.600108 -17.514469
v -13.042979 0.577247 -17.490200
v -13.065840 0.567778 -17.431608
v -12.157724 3.940755 17.431608
v -12.160920 3.965025 17.490200
v -12.168633 4.023616 17.514469
v -12.497697 3.600784 -17.431608
v -12.521966 3.603979 -17.490200
v -12.580558 3.611692 -17.514469
v -12.157724 0.437862 -17.431608
v -12.160920 0.413592 -17.490200
v -12.168633 0.355001 -17.514469
v -12.497697 0.777834 17.431608
v -12.521966 0.774639 17.490200
v -12.580558 0.766925 17.514469
v -12.327710 3.895208 17.431608
v -12.340274 3.916967 17.490200
v -12.370603 3.969499 17.514469
v -12.452149 3.770770 17.431608
v -12.473909 3.783332 17.490200
v -12.526441 3.813662 17.514469
v -12.452149 3.770770 -17.431608
v -12.473909 3.783332 -17.490200
v -12.526441 3.813662 -17.514469
v -12.327710 3.895208 -17.431608
v -12.340274 3.916967 -17.490200
v -12.370603 3.969499 -17.514469
v -12.327710 0.483409 -17.431608
v -12.340274 0.461650 -17.490200
v -12.370603 0.409118 -17.514469
v -12.452149 0.607848 -17.431608
v -12.473909 0.595285 -17.490200
v -12.526441 0.564956 -17.514469
v -12.452149 0.607848 17.431608
v -12.473909 0.595285 17.490200
v -12.525537 0.627501 17.514469
v -12.327710 0.483409 17.431608
v -12.340274 0.461650 17.490200
v -12.370603 0.409118 17.514469
v 12.505331 2.189309 0.000000
v 12.505331 0.437862 0.000000
v 13.052991 0.437862 0.000000
v 13.111583 0.413592 0.000000
v 13.098788 0.355000 0.000000
v 13.135852 0.082861 0.000000
v 13.111583 0.024270 0.000000
v 13.052991 0.000000 0.000000
v 0.000000 0.000000 0.000000
v -11.822267 0.000000 0.000000
v -12.216100 0.000000 0.000000
v -12.568073 0.070012 0.000000
v -12.866463 0.269389 0.000000
v -13.065840 0.567778 0.000000
v -13.135852 0.919751 0.000000
v -13.135852 1.149804 0.000000
v -13.135852 2.189309 0.000000
v -13.135852 3.228814 -0.007303
v -13.135852 3.458866 0.016077
v -13.065840 3.810840 0.000000
v -12.866463 4.109228 0.000000
v -12.568073 4.308605 0.000000
v -12.216100 4.378617 0.000000
v -11.822267 4.378617 0.000000
v 0.000000 4.378617 0.000000
v 13.052991 4.378617 0.000000
v 13.111583 4.354348 0.000000
v 13.135852 4.295756 0.000000
v 13.135852 4.023616 0.000000
v 13.111583 3.965025 0.000000
v 13.052991 3.940755 0.000000
v 12.505331 3.940755 0.000000
v 12.505331 2.189309 -1.688395
v 12.505331 0.437862 -1.688395
v 13.052991 0.437862 -1.743161
v 13.111583 0.413592 -1.749020
v 13.098788 0.355000 -1.751447
v 13.135852 0.082861 -1.751447
v 13.111581 0.024270 -1.749020
v 13.052991 0.000000 -1.743161
v 0.000000 0.000000 -1.743161
v -11.822267 0.000000 -1.741153
v -12.216099 0.000000 -1.743161
v -12.568073 0.070012 -1.743161
v -12.866463 0.269389 -1.743161
v -13.065840 0.567778 -1.743161
v -13.135852 0.919751 -1.743161
v -13.135852 1.149804 -1.741700
v -13.135852 2.189309 -1.743161
v -13.135852 3.228814 -1.749733
v -13.135852 3.458866 -1.725476
v -13.065840 3.810840 -1.743161
v -12.866463 4.109228 -1.743161
v -12.568073 4.308605 -1.743161
v -12.216100 4.378617 -1.743161
v -11.822267 4.378617 -1.741153
v 0.000000 4.378617 -1.743161
v 13.052991 4.378617 -1.743161
v 13.111581 4.354348 -1.749020
v 13.135852 4.295756 -1.751447
v 13.135852 4.023616 -1.751447
v 13.111581 3.965025 -1.749020
v 13.052991 3.940755 -1.743161
v 12.505329 3.940755 -1.688395
v 12.505331 3.940755 1.688395
v 13.052991 3.940755 1.743161
v 13.111583 3.965025 1.749020
v 13.135852 4.023616 1.751447
v 13.135852 4.295756 1.751447
v 13.111583 4.354348 1.749020
v 13.052991 4.378617 1.743161
v 0.000000 4.378617 1.743161
v -11.822267 4.378617 1.741153
v -12.216099 4.378617 1.743161
v -12.568073 4.308605 1.743161
v -12.866463 4.109228 1.743161
v -13.065840 3.810840 1.743161
v -13.135852 3.458866 1.757630
v -13.135852 3.228814 1.735128
v -13.135852 2.189309 1.743161
v -13.135852 1.149804 1.741701
v -13.135852 0.919751 1.743161
v -13.065840 0.567778 1.743161
v -12.866463 0.269389 1.743161
v -12.568073 0.070012 1.743161
v -12.216100 0.000000 1.743161
v -11.822267 0.000000 1.741153
v 0.000000 0.000000 1.743161
v 13.052991 0.000000 1.743161
v 13.111583 0.024270 1.749020
v 13.135852 0.082861 1.751447
v 13.135852 0.355000 1.751447
v 13.111581 0.413592 1.749020
v 13.052991 0.437862 1.743161
v 12.505329 0.437862 1.688395
v 12.505329 2.189309 1.688395
v 13.296490 0.355001 0.000000
v 13.180356 0.082906 0.000000
v 13.180356 0.082906 1.751447
v 13.296490 0.355000 1.751447
v 13.463934 0.486477 0.000000
v 13.613139 0.705126 0.000000
v 13.770925 1.109470 0.000000
v 13.920309 1.736941 0.000000
v 14.013782 2.486546 0.000000
v 14.001487 3.224392 0.000000
v 13.839218 3.814846 0.000000
v 13.515011 4.155778 0.000000
v 13.059017 4.386358 0.000000
v 12.484309 4.386316 0.000000
v 11.838865 4.385709 0.000000
v 13.369628 0.110291 0.000000
v 13.617994 0.262143 0.000000
v 13.833298 0.545157 0.000000
v 14.023496 1.008134 0.000000
v 14.184911 1.673322 0.000000
v 14.283792 2.452574 0.000000
v 14.273595 3.228437 0.000000
v 14.102107 3.885195 0.000000
v 13.717949 4.337095 0.000000
v 13.159829 4.639137 0.000000
v 12.516594 4.656534 0.000000
v 11.842176 4.657829 0.000000
v 13.369628 0.110292 -1.751447
v 13.617994 0.262143 -1.751447
v 13.833298 0.545157 -1.751447
v 14.023496 1.008135 -1.751447
v 14.184911 1.673323 -1.751447
v 14.283792 2.452575 -1.751447
v 14.273595 3.228437 -1.751447
v 14.102107 3.885195 -1.751447
v 13.717949 4.337096 -1.751447
v 13.159829 4.639138 -1.751447
v 12.516594 4.656534 -1.751447
v 11.842176 4.657829 -1.751447
v 13.336770 0.380440 -1.751447
v 13.463934 0.486478 -1.751447
v 13.613139 0.705126 -1.751447
v 13.770925 1.109470 -1.751447
v 13.920309 1.736941 -1.751447
v 14.013782 2.486547 -1.751447
v 14.001487 3.224393 -1.751447
v 13.839218 3.814847 -1.751447
v 13.515011 4.155779 -1.751447
v 13.059017 4.386359 -1.751447
v 12.484309 4.386317 -1.751447
v 11.838865 4.385710 -1.751447
v 13.369628 0.110291 1.751447
v 13.617994 0.262143 1.751447
v 13.833298 0.545157 1.751447
v 14.023496 1.008134 1.751447
v 14.184911 1.673323 1.751447
v 14.283792 2.452576 1.751447
v 14.273595 3.228437 1.751447
v 14.102107 3.885195 1.751447
v 13.717949 4.337095 1.751447
v 13.159829 4.639137 1.751447
v 12.516594 4.656534 1.751447
v 11.842176 4.657829 1.751447
v 13.463934 0.486478 1.751447
v 13.613139 0.705126 1.751447
v 13.770925 1.109470 1.751447
v 13.920309 1.736941 1.751447
v 14.013782 2.486547 1.751447
v 14.001487 3.224393 1.751447
v 13.839218 3.814846 1.751447
v 13.515011 4.155778 1.751447
v 13.059017 4.386359 1.751447
v 12.484309 4.386317 1.751447
v 11.838865 4.385710 1.751447
v 11.092064 4.385709 0.000000
v 11.095375 4.657829 0.000000
v 11.095375 4.657829 -1.751447
v 11.092064 4.385710 -1.751447
v 11.095375 4.657829 1.751447
v 11.092064 4.385710 1.751447
v 10.339012 4.385709 0.000000
v 10.342323 4.657829 0.000000
v 10.342323 4.657829 -1.751447
v 10.339012 4.385710 -1.751447
v 10.342323 4.657829 1.751447
v 10.339012 4.385710 1.751447
v 9.485408 4.385709 0.000000
v 9.488719 4.657829 0.000000
v 9.488719 4.657829 -1.751447
v 9.485408 4.385710 -1.751447
v 9.488719 4.657829 1.751447
v 9.485408 4.385710 1.751447
v 6.695715 4.385709 0.175127
v 6.636384 4.385709 0.096348
v 6.615328 4.385709 0.000000
v 6.636384 4.385709 -0.096348
v 6.695715 4.385709 -0.175127
v 6.667162 4.385709 0.000000
v 6.699027 4.657829 0.175127
v 6.670461 4.657829 0.000000
v 6.699027 4.657829 -0.175127
v 6.639696 4.657829 -0.096348
v 6.618639 4.657829 -0.000000
v 6.639696 4.657829 0.096348
v 8.630293 4.657829 -1.743529
v 8.544122 4.657829 -1.720024
v 8.463456 4.657829 -1.681671
v 8.390833 4.657829 -1.629674
v 8.719261 4.657829 -1.751447
v 8.387522 4.385710 -1.629674
v 8.460145 4.385710 -1.681670
v 8.540811 4.385710 -1.720024
v 8.626982 4.385710 -1.743529
v 8.715950 4.385710 -1.751447
v 8.390833 4.657829 1.629674
v 8.463456 4.657829 1.681670
v 8.544122 4.657829 1.720024
v 8.630293 4.657829 1.743529
v 8.719261 4.657829 1.751447
v 8.387522 4.385710 1.629674
v 8.715950 4.385710 1.751447
v 8.626982 4.385710 1.743529
v 8.540811 4.385710 1.720024
v 8.460145 4.385710 1.681671
v 10.329861 4.434717 -0.379208
v 10.155559 4.434717 -0.721296
v 9.884075 4.434717 -0.992778
v 9.541987 4.434717 -1.167081
v 9.162780 4.434717 -1.227141
v 8.783572 4.434717 -1.167081
v 8.441484 4.434717 -0.992778
v 8.170002 4.434717 -0.721296
v 7.995698 4.434717 -0.379207
v 7.935638 4.434717 0.000000
v 7.995698 4.434717 0.379207
v 8.170002 4.434717 0.721296
v 8.441484 4.434717 0.992778
v 8.783572 4.434717 1.167081
v 9.162780 4.434717 1.227141
v 9.541986 4.434717 1.167080
v 9.884075 4.434717 0.992778
v 10.155558 4.434717 0.721295
v 10.329860 4.434717 0.379207
v 10.389921 4.434717 0.000000
v 10.329861 4.789444 -0.379208
v 10.155559 4.789444 -0.721296
v 9.884075 4.789444 -0.992778
v 9.541987 4.789444 -1.167081
v 9.162780 4.789444 -1.227141
v 8.783572 4.789444 -1.167081
v 8.441484 4.789444 -0.992778
v 8.170002 4.789444 -0.721296
v 7.995698 4.789444 -0.379207
v 7.935638 4.789444 0.000000
v 7.995698 4.789444 0.379207
v 8.170002 4.789444 0.721296
v 8.441484 4.789444 0.992778
v 8.783572 4.789444 1.167081
v 9.162780 4.789444 1.227141
v 9.541986 4.789444 1.167080
v 9.884075 4.789444 0.992778
v 10.155558 4.789444 0.721295
v 10.329860 4.789444 0.379207
v 10.389921 4.789444 0.000000
v 9.746321 4.789444 -0.189604
v 9.659169 4.789444 -0.360648
v 9.523428 4.789444 -0.496389
v 9.352384 4.789444 -0.583540
v 9.162780 4.789444 -0.613571
v 8.973176 4.789444 -0.583540
v 8.802132 4.789444 -0.496389
v 8.666390 4.789444 -0.360648
v 8.579240 4.789444 -0.189604
v 8.549210 4.789444 0.000000
v 8.579240 4.789444 0.189604
v 8.666390 4.789444 0.360648
v 8.802132 4.789444 0.496389
v 8.973176 4.789444 0.583540
v 9.162780 4.789444 0.613571
v 9.352384 4.789444 0.583540
v 9.523428 4.789444 0.496389
v 9.659168 4.789444 0.360648
v 9.746320 4.789444 0.189604
v 9.776350 4.789444 0.000000
v 9.162780 4.789444 0.000000
vt 0.581187 0.075717
vt 0.552940 0.075799
vt 0.418633 0.149161
vt 0.485508 0.110965
vt 0.485586 0.115353
vt 0.418079 0.144767
vt 0.581191 0.078905
vt 0.609434 0.078900
vt 0.486226 0.110953
vt 0.982554 0.320749
vt 0.954308 0.320749
vt 0.982554 0.075688
vt 0.954308 0.347978
vt 0.954308 0.075688
vt 0.982554 0.347978
vt 0.926062 0.347978
vt 0.926062 0.320749
vt 0.954308 0.375207
vt 0.926062 0.375207
vt 0.926062 0.075688
vt 0.982554 0.375207
vt 0.982553 0.620268
vt 0.954307 0.620268
vt 0.926062 0.620268
vt 0.419129 0.037903
vt 0.418106 0.037903
vt 0.419407 0.021142
vt 0.419415 0.054663
vt 0.418254 0.020782
vt 0.672213 0.037862
vt 0.440702 0.094578
vt 0.419225 0.017434
vt 0.672338 0.021094
vt 0.672239 0.054631
vt 0.419235 0.058371
vt 0.440655 0.132087
vt 0.671974 0.017383
vt 0.700325 0.037856
vt 0.672216 0.058342
vt 0.418216 0.058403
vt 0.441421 0.129590
vt 0.418273 0.011643
vt 0.419297 0.011651
vt 0.700439 0.021086
vt 0.700061 0.017375
vt 0.700329 0.058337
vt 0.700328 0.054626
vt 0.672216 0.064132
vt 0.418287 0.064164
vt 0.441577 0.093756
vt 0.441804 0.111668
vt 0.672205 0.011591
vt 0.728436 0.037848
vt 0.700330 0.064126
vt 0.728416 0.054617
vt 0.419307 0.064155
vt 0.419270 0.005868
vt 0.728541 0.021082
vt 0.728148 0.017371
vt 0.700319 0.011586
vt 0.728443 0.064120
vt 0.672215 0.069924
vt 0.700331 0.069914
vt 0.418260 0.069902
vt 0.418252 0.005903
vt 0.672203 0.005800
vt 0.981517 0.021102
vt 0.981215 0.054626
vt 0.728441 0.058328
vt 0.728446 0.069912
vt 0.419280 0.069938
vt 0.419100 0.000083
vt 0.981510 0.037866
vt 0.981559 0.017387
vt 0.728434 0.011583
vt 0.700318 0.005798
vt 0.981322 0.064117
vt 0.981349 0.069900
vt 0.672215 0.075716
vt 0.700333 0.075703
vt 0.728448 0.075699
vt 0.418082 0.075580
vt 0.418076 0.000223
vt 0.672200 0.000012
vt 0.982533 0.037871
vt 0.982844 0.017894
vt 0.981395 0.058334
vt 0.981519 0.075685
vt 0.419110 0.075719
vt 0.463031 0.094101
vt 0.982372 0.011626
vt 0.982853 0.019230
vt 0.981356 0.011640
vt 0.982367 0.054988
vt 0.728435 0.005791
vt 0.700317 0.000009
vt 0.982347 0.064125
vt 0.982367 0.069865
vt 0.465418 0.085683
vt 0.463060 0.093593
vt 0.463391 0.131727
vt 0.982543 0.075545
vt 0.982397 0.005891
vt 0.981377 0.005857
vt 0.464140 0.129225
vt 0.728436 0.000000
vt 0.464408 0.111299
vt 0.982572 0.000214
vt 0.981544 0.000075
vt 0.521758 0.141817
vt 0.521594 0.118945
vt 0.522779 0.141816
vt 0.512966 0.141824
vt 0.522616 0.118922
vt 0.521619 0.164693
vt 0.512732 0.119189
vt 0.521494 0.116063
vt 0.522641 0.164712
vt 0.512624 0.116396
vt 0.512764 0.164455
vt 0.522530 0.115991
vt 0.521535 0.167583
vt 0.512481 0.113596
vt 0.522233 0.112986
vt 0.522568 0.167645
vt 0.512643 0.167237
vt 0.521242 0.113204
vt 0.521293 0.170424
vt 0.522293 0.170645
vt 0.512489 0.170060
vt 0.639375 0.160691
vt 0.639535 0.183563
vt 0.638353 0.160691
vt 0.648166 0.160685
vt 0.638512 0.183585
vt 0.639517 0.137815
vt 0.648397 0.183320
vt 0.639634 0.186444
vt 0.638495 0.137795
vt 0.648504 0.186113
vt 0.648372 0.138054
vt 0.638598 0.186517
vt 0.639601 0.134924
vt 0.648647 0.188913
vt 0.638895 0.189521
vt 0.638568 0.134863
vt 0.648493 0.135272
vt 0.639885 0.189304
vt 0.639843 0.132084
vt 0.638844 0.131862
vt 0.648647 0.132449
vt 0.985599 0.254213
vt 0.990074 0.000002
vt 0.985685 0.000000
vt 0.991096 0.000394
vt 0.984662 0.000391
vt 0.990996 0.254254
vt 0.984576 0.254251
vt 0.985562 0.282459
vt 0.990998 0.282460
vt 0.984539 0.282458
vt 0.990937 0.310668
vt 0.984502 0.310668
vt 0.989914 0.310708
vt 0.985525 0.310708
vt 0.991000 0.564528
vt 0.984566 0.564530
vt 0.989978 0.564920
vt 0.985589 0.564921
vt 0.998937 0.254213
vt 0.994549 0.254214
vt 0.998905 0.000000
vt 0.994552 0.282460
vt 0.994516 0.000001
vt 0.999928 0.000391
vt 0.998941 0.282459
vt 0.993526 0.254253
vt 0.993493 0.000392
vt 0.999960 0.254252
vt 0.994556 0.310705
vt 0.993529 0.282460
vt 0.998945 0.310705
vt 0.993533 0.310667
vt 0.999964 0.282459
vt 0.998977 0.564918
vt 0.999967 0.310666
vt 0.993566 0.564527
vt 0.994588 0.564919
vt 1.000000 0.564526
vt 0.806145 0.103949
vt 0.806142 0.132195
vt 0.805428 0.103949
vt 0.805425 0.075703
vt 0.806143 0.075703
vt 0.791914 0.103950
vt 0.791917 0.132196
vt 0.783842 0.103951
vt 0.797652 0.132195
vt 0.783845 0.132197
vt 0.783839 0.075705
vt 0.797649 0.103950
vt 0.772803 0.103952
vt 0.791911 0.075704
vt 0.772800 0.075706
vt 0.802346 0.132195
vt 0.772806 0.132198
vt 0.802343 0.103949
vt 0.797646 0.075704
vt 0.760135 0.103953
vt 0.760132 0.075707
vt 0.760138 0.132199
vt 0.802341 0.075703
vt 0.747622 0.103954
vt 0.747619 0.075709
vt 0.747624 0.132200
vt 0.736675 0.103955
vt 0.736672 0.075710
vt 0.736677 0.132201
vt 0.727109 0.103956
vt 0.727107 0.075710
vt 0.727112 0.132202
vt 0.552947 0.086599
vt 0.581191 0.086607
vt 0.552945 0.093600
vt 0.581191 0.082338
vt 0.581191 0.093606
vt 0.552948 0.082330
vt 0.609435 0.082334
vt 0.609435 0.086603
vt 0.552944 0.104003
vt 0.609436 0.093603
vt 0.581190 0.104007
vt 0.552949 0.079659
vt 0.552943 0.116186
vt 0.609436 0.104006
vt 0.581189 0.116189
vt 0.552942 0.128088
vt 0.609436 0.116189
vt 0.581189 0.128090
vt 0.552942 0.137963
vt 0.609435 0.128090
vt 0.581188 0.137965
vt 0.552942 0.145551
vt 0.609435 0.137966
vt 0.581188 0.145552
vt 0.609434 0.145553
vt 0.508058 0.114811
vt 0.692345 0.142389
vt 0.508045 0.116401
vt 0.693889 0.137988
vt 0.512434 0.116448
vt 0.693936 0.142376
vt 0.508040 0.117992
vt 0.695479 0.137982
vt 0.512428 0.118039
vt 0.695526 0.142371
vt 0.507986 0.153974
vt 0.731461 0.137929
vt 0.512375 0.154021
vt 0.731508 0.142317
vt 0.507985 0.155414
vt 0.732901 0.137928
vt 0.512374 0.155461
vt 0.732948 0.142316
vt 0.794759 0.132197
vt 0.800951 0.132196
vt 0.794760 0.137917
vt 0.800952 0.137916
vt 0.788569 0.137918
vt 0.807143 0.132195
vt 0.788568 0.132198
vt 0.807144 0.137916
vt 0.782377 0.137919
vt 0.782376 0.132199
vt 0.776185 0.137920
vt 0.776184 0.132200
vt 0.769993 0.137921
vt 0.769992 0.132200
vt 0.714266 0.132209
vt 0.720458 0.132208
vt 0.714267 0.137930
vt 0.720459 0.137929
vt 0.708076 0.137931
vt 0.726650 0.132207
vt 0.708075 0.132210
vt 0.726651 0.137928
vt 0.732842 0.132206
vt 0.732843 0.137927
vt 0.739034 0.132205
vt 0.739034 0.137926
vt 0.745225 0.132204
vt 0.745226 0.137925
vt 0.012672 0.001431
vt 0.006322 0.001137
vt 0.576147 0.743363
vt 0.005800 0.254333
vt 0.006330 0.000117
vt 0.203401 -0.000000
vt 0.012151 0.254380
vt 0.000011 0.254320
vt 0.000641 0.000031
vt 0.459799 0.146559
vt 0.203391 0.001023
vt 0.005788 0.282517
vt 0.202761 0.254440
vt 0.000537 0.001056
vt 0.000000 0.282518
vt 0.767197 0.740531
vt 0.413214 0.002234
vt 0.012142 0.282517
vt 0.414217 0.001238
vt 0.012159 0.310652
vt 0.000020 0.310715
vt 0.202769 0.282487
vt 0.413832 0.254263
vt 0.414855 0.254159
vt 0.005807 0.310700
vt 0.012768 0.563611
vt 0.202770 0.310533
vt 0.000631 0.563988
vt 0.413861 0.282440
vt 0.414884 0.282440
vt 0.006418 0.563906
vt 0.012356 0.564814
vt 0.203499 0.563946
vt 0.413852 0.310621
vt 0.000736 0.565013
vt 0.203509 0.564969
vt 0.477693 0.076120
vt 0.413327 0.562649
vt 0.414875 0.310725
vt 0.482638 0.076560
vt 0.527191 0.287562
vt 0.414331 0.563644
vt 0.001403 0.966964
vt 0.001107 0.973314
vt 0.550597 0.478629
vt 0.254304 0.973920
vt 0.000088 0.973306
vt 0.000036 0.776235
vt 0.254352 0.967569
vt 0.254289 0.979709
vt 0.000000 0.978995
vt 0.482629 0.146073
vt 0.001059 0.776245
vt 0.282488 0.973941
vt 0.254476 0.776959
vt 0.282487 0.979729
vt 0.001025 0.979099
vt 0.549393 0.287562
vt 0.002339 0.566423
vt 0.282489 0.967588
vt 0.001344 0.565419
vt 0.310625 0.967580
vt 0.310683 0.979719
vt 0.282523 0.776960
vt 0.254369 0.565888
vt 0.254265 0.564865
vt 0.310671 0.973931
vt 0.563583 0.967054
vt 0.310569 0.776969
vt 0.563957 0.979191
vt 0.282546 0.565868
vt 0.282545 0.564845
vt 0.563877 0.973404
vt 0.564786 0.967466
vt 0.563982 0.776323
vt 0.310727 0.565887
vt 0.564982 0.979087
vt 0.565005 0.776314
vt 0.454866 0.076293
vt 0.562754 0.566495
vt 0.310831 0.564864
vt 0.459822 0.076583
vt 0.536172 0.287562
vt 0.563749 0.565491
vt 0.765555 0.702119
vt 0.620242 0.680438
vt 0.765558 0.703142
vt 0.967210 0.692740
vt 0.621265 0.681383
vt 0.569431 0.701577
vt 0.765531 0.693289
vt 0.620229 0.427428
vt 0.621251 0.427522
vt 0.569397 0.702600
vt 0.611396 0.426545
vt 0.566583 0.701467
vt 0.569535 0.692742
vt 0.620227 0.399316
vt 0.621250 0.399316
vt 0.566426 0.702481
vt 0.611395 0.399316
vt 0.566709 0.692664
vt 0.611394 0.372087
vt 0.620226 0.371204
vt 0.621248 0.371109
vt 0.967214 0.733397
vt 0.976071 0.724589
vt 0.977019 0.723569
vt 0.765561 0.723996
vt 0.765564 0.722973
vt 0.765536 0.732827
vt 0.569439 0.724491
vt 0.569404 0.723469
vt 0.569538 0.733327
vt 0.566721 0.733401
vt 0.566583 0.724606
vt 0.566426 0.723592
vt 0.770050 0.712048
vt 0.633701 0.692030
vt 0.770053 0.713071
vt 0.624869 0.683198
vt 0.634724 0.692975
vt 0.573926 0.711579
vt 0.770023 0.703218
vt 0.633700 0.439020
vt 0.634723 0.439115
vt 0.573893 0.712601
vt 0.624868 0.438137
vt 0.571078 0.711469
vt 0.574027 0.702743
vt 0.633700 0.410908
vt 0.634723 0.410908
vt 0.570921 0.712483
vt 0.624868 0.410908
vt 0.571201 0.702666
vt 0.624868 0.383679
vt 0.633700 0.382796
vt 0.634723 0.382701
vt 0.624867 0.138618
vt 0.633699 0.129786
vt 0.977019 0.713704
vt 0.765561 0.714091
vt 0.765564 0.713068
vt 0.765534 0.722921
vt 0.569439 0.714549
vt 0.569404 0.713526
vt 0.569536 0.723384
vt 0.566719 0.723458
vt 0.566583 0.714663
vt 0.566426 0.713649
vt 0.716875 0.103957
vt 0.716878 0.132203
vt 0.716872 0.075711
vt 0.706498 0.103958
vt 0.706495 0.075712
vt 0.706500 0.132204
vt 0.695621 0.103959
vt 0.695619 0.075713
vt 0.695624 0.132205
vt 0.683577 0.103960
vt 0.683575 0.075715
vt 0.683580 0.132206
vt 0.671433 0.103962
vt 0.671430 0.075716
vt 0.671436 0.132208
vt 0.657667 0.103963
vt 0.657664 0.075717
vt 0.657669 0.132209
vt 0.645260 0.132210
vt 0.645255 0.075718
vt 0.643825 0.132082
vt 0.643820 0.075846
vt 0.642436 0.131704
vt 0.642430 0.076225
vt 0.641135 0.131085
vt 0.641130 0.076844
vt 0.639963 0.130247
vt 0.639958 0.077683
vt 0.612677 0.106792
vt 0.612677 0.101143
vt 0.612216 0.103967
vt 0.611720 0.105521
vt 0.611720 0.102414
vt 0.611380 0.103967
vt 0.552942 0.153792
vt 0.581188 0.153793
vt 0.552941 0.163060
vt 0.609434 0.153794
vt 0.581187 0.163061
vt 0.552941 0.173469
vt 0.609434 0.163062
vt 0.581187 0.173470
vt 0.552941 0.185513
vt 0.609433 0.173471
vt 0.581187 0.185514
vt 0.552940 0.197658
vt 0.609433 0.185515
vt 0.581186 0.197659
vt 0.552940 0.211424
vt 0.609432 0.197660
vt 0.581186 0.211425
vt 0.552940 0.223833
vt 0.609432 0.211426
vt 0.553067 0.225268
vt 0.609431 0.223835
vt 0.553446 0.226658
vt 0.609304 0.225270
vt 0.554065 0.227959
vt 0.608925 0.226659
vt 0.554903 0.229130
vt 0.608306 0.227960
vt 0.578360 0.256415
vt 0.607467 0.229132
vt 0.581184 0.256875
vt 0.584009 0.256415
vt 0.579631 0.257371
vt 0.581184 0.257711
vt 0.582738 0.257372
vt 0.801973 0.162386
vt 0.805278 0.172558
vt 0.786742 0.170146
vt 0.788395 0.175232
vt 0.783599 0.165819
vt 0.805278 0.183254
vt 0.771512 0.177906
vt 0.795686 0.153732
vt 0.788395 0.180580
vt 0.779272 0.162676
vt 0.801973 0.193427
vt 0.786742 0.185667
vt 0.787032 0.147445
vt 0.774186 0.161023
vt 0.783599 0.189994
vt 0.768838 0.161023
vt 0.795686 0.202081
vt 0.779272 0.193137
vt 0.776860 0.144140
vt 0.763751 0.162676
vt 0.787032 0.208368
vt 0.774186 0.194790
vt 0.766163 0.144140
vt 0.759425 0.165819
vt 0.776860 0.211673
vt 0.768838 0.194790
vt 0.755991 0.147445
vt 0.756281 0.170146
vt 0.766163 0.211673
vt 0.763751 0.193137
vt 0.747337 0.153732
vt 0.754628 0.175232
vt 0.755991 0.208368
vt 0.759425 0.189994
vt 0.741050 0.162386
vt 0.754628 0.180580
vt 0.747337 0.202081
vt 0.756281 0.185667
vt 0.737745 0.172558
vt 0.741050 0.193427
vt 0.737745 0.183255
vt 0.865673 0.075695
vt 0.865673 0.277370
vt 0.837428 0.075695
vt 0.837427 0.277370
vt 0.865672 0.473440
vt 0.809182 0.075695
vt 0.864937 0.476181
vt 0.809181 0.277370
vt 0.862930 0.478188
vt 0.809180 0.473439
vt 0.860189 0.478922
vt 0.809915 0.476181
vt 0.837426 0.478922
vt 0.811921 0.478188
vt 0.814663 0.478922
vt 0.895868 0.075692
vt 0.895868 0.277367
vt 0.867623 0.075691
vt 0.924113 0.277367
vt 0.867622 0.277367
vt 0.924114 0.075692
vt 0.924112 0.473436
vt 0.867621 0.473436
vt 0.923378 0.476178
vt 0.868355 0.476178
vt 0.921371 0.478185
vt 0.870362 0.478184
vt 0.918630 0.478919
vt 0.873104 0.478919
vt 0.895867 0.478919
vt 0.447447 0.137772
vt 0.449673 0.139051
vt 0.453178 0.142967
vt 0.451585 0.140786
vt 0.475879 0.080146
vt 0.474369 0.082251
vt 0.470096 0.085284
vt 0.472438 0.083966
vt 0.469834 0.137942
vt 0.472071 0.139319
vt 0.475589 0.143094
vt 0.474381 0.140353
vt 0.453835 0.080996
vt 0.451785 0.083528
vt 0.448186 0.086317
vt 0.449898 0.085308
vt 0.454850 0.146950
vt 0.454995 0.145933
vt 0.449766 0.144693
vt 0.449336 0.145641
vt 0.455796 0.141572
vt 0.445492 0.141670
vt 0.452557 0.140571
vt 0.444739 0.142388
vt 0.453118 0.139675
vt 0.767160 0.736142
vt 0.442668 0.137271
vt 0.455981 0.140560
vt 0.451030 0.137465
vt 0.979034 0.738741
vt 0.441702 0.137655
vt 0.441679 0.131993
vt 0.450105 0.137972
vt 0.978997 0.734352
vt 0.978651 0.739767
vt 0.767152 0.735119
vt 0.449284 0.134674
vt 0.978597 0.733333
vt 0.767206 0.741554
vt 0.450308 0.134552
vt 0.449431 0.111705
vt 0.450454 0.111709
vt 0.450496 0.088846
vt 0.449474 0.088705
vt 0.451314 0.085936
vt 0.450354 0.086398
vt 0.441849 0.091361
vt 0.440826 0.091263
vt 0.442850 0.086111
vt 0.453281 0.083588
vt 0.445628 0.081722
vt 0.452696 0.082711
vt 0.441882 0.085730
vt 0.449839 0.078647
vt 0.455917 0.081651
vt 0.444868 0.081012
vt 0.541605 0.483682
vt 0.449393 0.077707
vt 0.455030 0.077307
vt 0.540561 0.287561
vt 0.541583 0.287561
vt 0.541578 0.076109
vt 0.536167 0.075718
vt 0.540556 0.075718
vt 0.535144 0.076109
vt 0.535149 0.287561
vt 0.460747 0.075712
vt 0.477684 0.146498
vt 0.477822 0.145480
vt 0.472584 0.144274
vt 0.472160 0.145224
vt 0.478594 0.141116
vt 0.468293 0.141277
vt 0.475352 0.140133
vt 0.467544 0.142000
vt 0.475907 0.139233
vt 0.545004 0.287561
vt 0.465438 0.136899
vt 0.478774 0.140103
vt 0.473802 0.137034
vt 0.549409 0.075718
vt 0.464473 0.137289
vt 0.464414 0.131626
vt 0.472881 0.137548
vt 0.545021 0.075717
vt 0.550432 0.076109
vt 0.543982 0.287561
vt 0.472036 0.134258
vt 0.543998 0.076109
vt 0.550416 0.287562
vt 0.473059 0.134129
vt 0.472031 0.111290
vt 0.473054 0.111289
vt 0.464396 0.093046
vt 0.473031 0.088466
vt 0.472008 0.088337
vt 0.463385 0.111303
vt 0.473781 0.085566
vt 0.463268 0.128401
vt 0.463058 0.092685
vt 0.472860 0.085048
vt 0.475889 0.083375
vt 0.468286 0.081309
vt 0.475338 0.082475
vt 0.464458 0.085282
vt 0.472589 0.078327
vt 0.478585 0.081506
vt 0.463263 0.091375
vt 0.467541 0.080581
vt 0.532614 0.483682
vt 0.477828 0.077139
vt 0.472169 0.077376
vt 0.531580 0.287561
vt 0.532603 0.287561
vt 0.532609 0.076109
vt 0.527198 0.075718
vt 0.531587 0.075718
vt 0.526175 0.076109
vt 0.526168 0.287561
vt 0.483589 0.075717
vt 0.440781 0.111663
vt 0.440554 0.128759
vt 0.422408 0.148756
vt 0.421921 0.144394
vt 0.426437 0.146346
vt 0.423988 0.142704
vt 0.429954 0.141817
vt 0.426429 0.139202
vt 0.433094 0.134381
vt 0.429037 0.132706
vt 0.435803 0.123679
vt 0.431546 0.122611
vt 0.437521 0.111128
vt 0.433172 0.110538
vt 0.437480 0.098615
vt 0.433091 0.098637
vt 0.434818 0.087996
vt 0.430568 0.089089
vt 0.428695 0.080648
vt 0.425393 0.083540
vt 0.419742 0.075689
vt 0.418076 0.079749
vt 0.512446 0.221023
vt 0.508088 0.220508
vt 0.512451 0.210146
vt 0.508063 0.210099
vt 0.512434 0.198102
vt 0.508045 0.198055
vt 0.512416 0.185958
vt 0.508027 0.185911
vt 0.512396 0.172192
vt 0.508007 0.172145
vt 0.512378 0.159782
vt 0.507989 0.159735
vt 0.512376 0.158342
vt 0.507987 0.158295
vt 0.512374 0.156901
vt 0.507986 0.156854
vt 0.489285 0.111340
vt 0.488177 0.115307
vt 0.493334 0.113717
vt 0.490915 0.117378
vt 0.496887 0.118218
vt 0.493383 0.120861
vt 0.500088 0.125629
vt 0.496044 0.127335
vt 0.502882 0.136308
vt 0.498634 0.137410
vt 0.504701 0.148845
vt 0.500357 0.149470
vt 0.504760 0.161358
vt 0.500372 0.161371
vt 0.502185 0.171997
vt 0.497925 0.170939
vt 0.496120 0.179395
vt 0.492796 0.176530
vt 0.487208 0.184426
vt 0.807264 0.138044
vt 0.798510 0.142388
vt 0.797996 0.138030
vt 0.787633 0.142393
vt 0.787586 0.138005
vt 0.775590 0.142376
vt 0.775543 0.137987
vt 0.763445 0.142358
vt 0.763398 0.137970
vt 0.749679 0.142338
vt 0.749632 0.137950
vt 0.737270 0.142320
vt 0.737223 0.137931
vt 0.735829 0.142318
vt 0.735782 0.137929
vt 0.734389 0.142317
vt 0.734342 0.137928
vt 0.683308 0.132214
vt 0.689499 0.132213
vt 0.683308 0.137935
vt 0.689500 0.137934
vt 0.695691 0.132212
vt 0.695692 0.137933
vt 0.701883 0.132211
vt 0.701884 0.137932
vt 0.751417 0.132203
vt 0.751418 0.137924
vt 0.757609 0.132202
vt 0.757610 0.137923
vt 0.763801 0.132201
vt 0.763801 0.137922
vt 0.990031 0.282459
vt 0.990029 0.254215
vt 0.609433 0.076309
vt 0.611409 0.671606
vt 0.976066 0.701548
vt 0.977014 0.702568
vt 0.611380 0.127026
vt 0.620212 0.118193
vt 0.621235 0.117248
vt 0.967212 0.723529
vt 0.976071 0.714723
vt 0.634722 0.128841
vt 0.971701 0.702595
vt 0.980560 0.711400
vt 0.981508 0.712420
vt 0.418207 0.017403
vt 0.418262 0.055024
vt 0.982413 0.058366
vt 0.564897 0.973397
vt 0.006426 0.564926
vt 0.692298 0.138001
vt 0.512446 0.114858
vt 0.508102 0.229777
vt 0.512181 0.231396
vt 0.808884 0.142123
vt 0.485510 0.180379
vt 0.000200 0.967376
vt 0.982853 0.020657
vt 0.982852 0.020145
vt 0.526769 0.479614
vt 0.531592 0.483807
vt 0.544972 0.483806
vt 0.549794 0.479614
vt 0.543949 0.483682
vt 0.478761 0.082520
vt 0.483578 0.146919
vt 0.525967 0.478629
vt 0.570921 0.737783
vt 0.535760 0.479614
vt 0.540583 0.483806
vt 0.456123 0.082657
vt 0.571037 0.736759
vt 0.534958 0.478629
vt 0.012260 0.000227
vt 0.575154 0.742569
vt 0.460742 0.147412
vn 0.000000 0.000000 1.000000
vn 0.000000 0.000000 1.000000
vn 0.000000 0.000000 1.000000
vn -0.000000 0.000000 1.000000
vn 1.000000 0.000000 0.000000
vn 1.000000 0.000000 0.000000
vn 1.000000 0.000000 0.000000
vn 1.000000 0.000000 0.000000
vn 0.000000 0.000000 -1.000000
vn 0.000000 0.000000 -1.000000
vn 0.000000 0.000000 -1.000000
vn 0.000000 0.000000 -1.000000
vn 0.000000 0.000000 -1.000000
vn 0.000000 0.000000 -1.000000
vn 1.000000 0.000000 0.000000
vn 1.000000 0.000000 0.000000
vn 0.000000 0.000000 1.000000
vn 0.000000 0.000000 1.000000
vn 0.000000 0.000000 1.000000
vn -0.000000 0.000000 1.000000
vn -0.000000 0.000000 1.000000
vn -0.000000 0.000000 1.000000
vn -0.000001 0.000000 1.000000
vn -0.000001 0.000000 -1.000000
vn 0.000000 0.000000 -1.000000
vn 0.000000 0.000000 -1.000000
vn 0.000000 0.000000 -1.000000
vn -0.000000 0.000000 -1.000000
vn -0.000000 0.000000 -1.000000
vn -0.000000 0.000000 -1.000000
vn 0.000000 0.000000 -1.000000
vn -0.000001 0.000000 -1.000000
vn -0.000001 0.000000 1.000000
vn 0.000000 0.000000 1.000000
vn 0.000000 0.000000 1.000000
vn -0.000000 0.000000 1.000000
vn 0.000000 0.000000 1.000000
vn 0.000000 0.000000 1.000000
vn 0.000000 0.000000 1.000000
vn 0.000000 0.000000 1.000000
vn 0.000000 0.000000 -1.000000
vn -0.000001 0.000000 -1.000000
vn -0.000010 0.000000 -1.000000
vn -0.000042 0.000000 -1.000000
vn -0.000069 0.000000 -1.000000
vn -0.000050 0.000000 -1.000000
vn 0.000030 0.000000 -1.000000
vn 0.000049 0.000000 -1.000000
vn 0.000000 0.000000 1.000000
vn 0.000000 0.000000 1.000000
vn 0.000000 0.000000 1.000000
vn 0.000000 0.000000 1.000000
vn 0.001347 0.603938 0.797030
vn -0.053883 0.388443 0.919896
vn 0.000048 0.031828 0.999493
vn -0.016995 0.114644 0.993261
vn 0.000004 0.999999 0.001244
vn -0.095089 0.995468 0.001467
vn 0.000965 0.975336 0.220724
vn -0.096189 0.918200 0.384260
vn 0.001347 -0.603942 -0.797027
vn -0.053879 -0.388446 -0.919895
vn 0.000048 -0.031803 -0.999494
vn -0.020349 -0.137268 -0.990325
vn 0.000004 -0.999999 -0.001243
vn -0.095088 -0.995468 -0.001467
vn 0.000965 -0.975339 -0.220711
vn -0.096185 -0.918203 -0.384255
vn -0.999999 0.000000 0.001568
vn -0.926209 0.000000 0.377010
vn -0.999999 -0.000025 0.001354
vn -0.962301 -0.005814 0.271925
vn -0.382698 0.000000 0.923873
vn -0.043389 0.000000 0.999058
vn -0.517248 -0.007846 0.855799
vn -0.025347 -0.000222 0.999679
vn -0.999999 -0.000011 -0.001554
vn -0.929927 -0.003236 -0.367730
vn -0.999999 0.000026 -0.001354
vn -0.962301 0.005814 -0.271925
vn -0.382624 -0.016210 -0.923762
vn -0.042260 -0.001732 -0.999105
vn -0.517205 0.007846 -0.855826
vn -0.025126 0.000220 -0.999684
vn 0.382673 0.000000 -0.923884
vn 0.381361 0.011443 -0.924355
vn 0.052515 0.000000 -0.998620
vn 0.050501 0.001552 -0.998723
vn 0.999200 0.000000 -0.039999
vn 0.998730 0.028759 -0.041363
vn 0.923879 0.000000 -0.382686
vn 0.923033 0.026821 -0.383784
vn 0.382673 0.000000 0.923884
vn 0.381360 -0.011444 0.924356
vn 0.052454 0.000000 0.998623
vn 0.052587 -0.001616 0.998615
vn 0.999200 0.000000 0.039999
vn 0.998730 -0.028759 0.041363
vn 0.923879 0.000000 0.382686
vn 0.923033 -0.026822 0.383784
vn 0.000000 -0.382680 0.923881
vn 0.000000 -0.382681 0.923881
vn 0.000000 -0.073108 0.997324
vn 0.000000 -0.058626 0.998280
vn 0.000000 -0.999168 0.040776
vn 0.054231 -0.997506 0.045172
vn 0.000000 -0.923881 0.382681
vn 0.000000 -0.923879 0.382686
vn -0.517205 0.007846 0.855826
vn -0.387973 -0.061453 0.919620
vn -0.025552 0.000223 0.999674
vn -0.075444 -0.013212 0.997063
vn -0.999999 0.000026 0.001354
vn -0.992610 -0.121337 0.001465
vn -0.962299 0.005814 0.271930
vn -0.915424 -0.120299 0.384093
vn 0.000000 0.382680 -0.923881
vn 0.000000 0.382679 -0.923881
vn 0.000000 0.073108 -0.997324
vn 0.000000 0.058626 -0.998280
vn 0.000000 0.999168 -0.040776
vn 0.054230 0.997506 -0.045171
vn 0.000000 0.923880 -0.382682
vn 0.000000 0.923880 -0.382683
vn 0.000532 -0.000182 -1.000000
vn -0.017997 0.009184 -0.999796
vn -0.066196 0.034180 -0.997221
vn -0.336075 0.171772 -0.926039
vn -0.988847 0.141048 -0.047817
vn -0.992781 0.119939 -0.000492
vn -0.867974 0.336685 -0.365053
vn -0.930658 0.365886 -0.001459
vn -0.095089 0.995468 -0.001467
vn -0.093386 0.995630 0.000000
vn 0.000004 0.999999 -0.001244
vn 0.000000 1.000000 0.000000
vn 0.000000 -1.000000 0.000000
vn -0.093387 -0.995630 -0.000000
vn 0.997765 0.066788 0.001887
vn 0.999629 0.027174 0.001869
vn 0.998214 0.059740 0.000355
vn 0.998280 -0.058628 -0.000000
vn -0.992610 -0.121340 -0.001465
vn -0.992857 -0.119312 0.000000
vn -1.000000 -0.000000 0.000000
vn 0.000000 0.058626 0.998280
vn 0.000000 0.073108 0.997324
vn 0.000000 -0.058626 0.998280
vn -0.000018 -0.072282 0.997384
vn -0.000001 0.999999 -0.001543
vn 0.000000 1.000000 0.000000
vn 0.002718 0.999994 -0.002264
vn 0.001765 0.999999 -0.000000
vn -0.000018 -0.072282 -0.997384
vn 0.000000 -0.058626 -0.998280
vn 0.001765 -0.999999 -0.000000
vn 0.000000 -1.000000 0.000000
vn 0.002718 -0.999994 -0.002264
vn -0.000001 -0.999999 -0.001543
vn 0.000411 0.102883 0.994693
vn -0.000003 0.000000 1.000000
vn 0.000048 -0.031833 0.999493
vn 0.000405 0.101180 -0.994868
vn 0.000002 0.000000 -1.000000
vn 0.000000 -0.073108 -0.997324
vn 0.000407 -0.101842 -0.994801
vn -0.000018 0.072282 -0.997384
vn 0.000001 0.000000 -1.000000
vn 0.000048 0.031825 -0.999493
vn 0.000000 -0.058626 -0.998280
vn 0.000000 0.058626 -0.998280
vn 0.997238 0.074270 0.000000
vn 0.997238 -0.074277 0.000000
vn 0.998280 0.058627 0.000000
vn 0.998280 -0.058628 0.000000
vn -0.000018 0.072282 0.997384
vn 0.000000 0.058626 0.998280
vn 0.000407 -0.101912 0.994793
vn 0.000005 0.000000 1.000000
vn -1.000000 -0.000001 0.000000
vn -0.999948 0.010218 0.000028
vn -1.000000 0.000098 -0.000142
vn 0.000001 0.000000 1.000000
vn -0.000002 0.000000 -1.000000
vn 0.054049 -0.001661 -0.998537
vn 0.000039 0.000000 -1.000000
vn -0.000000 0.000000 -1.000000
vn 0.000002 0.000000 1.000000
vn 0.054877 0.001585 0.998492
vn 0.003691 -0.999145 0.041183
vn 0.000000 -1.000000 0.000000
vn 0.003695 -0.999993 0.000000
vn 0.999586 -0.028789 0.000000
vn 1.000000 0.000000 0.000000
vn 0.000000 -1.000000 0.000000
vn 0.054230 -0.997506 -0.045172
vn 0.037585 -0.999294 0.000000
vn 0.000000 -1.000000 0.000000
vn 0.000000 -1.000000 0.000000
vn 0.000000 -0.999168 -0.040781
vn 0.000000 -1.000000 0.000000
vn 0.998730 -0.028758 -0.041363
vn 1.000000 0.000000 0.000000
vn 0.999586 -0.028790 0.000000
vn 0.003695 -0.999993 0.000000
vn 0.003692 -0.999145 -0.041172
vn 0.003691 0.999145 -0.041182
vn 0.000000 1.000000 0.000000
vn 0.003695 0.999993 0.000000
vn 0.999586 0.028789 0.000000
vn 0.000000 1.000000 -0.000000
vn 0.000000 1.000000 0.000000
vn 0.037585 0.999293 0.000000
vn 0.054230 0.997506 0.045171
vn 0.000000 1.000000 0.000000
vn 0.000000 0.999168 0.040781
vn 0.000000 1.000000 0.000000
vn 0.998730 0.028758 0.041363
vn 0.999586 0.028790 0.000000
vn 0.003695 0.999993 0.000000
vn 0.003692 0.999145 0.041172
vn -0.992676 0.120807 -0.000735
vn -0.924957 0.380073 -0.000376
vn -0.707107 0.707107 0.000000
vn -0.707110 0.707102 -0.001478
vn -0.382683 0.923880 0.000000
vn -0.382683 0.923879 -0.001496
vn -0.382682 -0.923880 0.000000
vn -0.382675 -0.923882 -0.001478
vn -0.707105 -0.707108 0.000000
vn -0.707100 -0.707112 -0.001478
vn -0.923880 -0.382683 -0.000000
vn -0.923878 -0.382685 -0.001496
vn -0.084981 0.014885 0.996271
vn -0.084652 0.034976 0.995797
vn -0.033988 0.083730 0.995909
vn -0.066256 0.067075 0.995546
vn -0.000025 0.000000 -1.000000
vn -0.016791 0.113309 -0.993418
vn -0.035531 0.085995 -0.995662
vn -0.067329 0.066509 -0.995512
vn -0.014028 -0.094675 0.995409
vn -0.074030 -0.030055 0.996803
vn -0.030279 -0.073285 0.996851
vn -0.057806 -0.057108 0.996693
vn -0.093223 -0.016327 -0.995511
vn -0.092497 -0.038221 -0.994979
vn -0.039130 -0.096394 -0.994574
vn -0.075618 -0.076553 -0.994194
vn 0.498980 -0.865461 0.044683
vn 0.500000 -0.866025 0.000000
vn 0.865010 -0.499657 0.045835
vn 0.707104 -0.707109 0.000000
vn 0.965926 -0.258818 0.000000
vn 0.865460 -0.498982 -0.044683
vn 0.965924 -0.258826 0.000000
vn 0.499656 -0.865011 -0.045835
vn 0.707104 -0.707109 0.000000
vn 0.499999 -0.866026 0.000000
vn 0.498979 0.865461 -0.044683
vn 0.500000 0.866025 0.000000
vn 0.865010 0.499657 -0.045835
vn 0.707104 0.707109 0.000000
vn 0.965926 0.258818 0.000000
vn 0.865460 0.498982 0.044683
vn 0.965924 0.258826 0.000000
vn 0.499655 0.865011 0.045835
vn 0.707104 0.707109 0.000000
vn 0.499999 0.866026 0.000000
vn 0.112535 -0.066037 0.991451
vn -0.000009 0.000000 1.000000
vn 0.000024 0.000000 1.000000
vn 0.070913 -0.125290 0.989583
vn 0.075722 -0.129038 -0.988744
vn 0.000024 0.000000 -1.000000
vn 0.000000 0.000000 -1.000000
vn 0.107505 -0.060841 -0.992341
vn 0.087422 0.051300 -0.994850
vn -0.000000 0.000000 -1.000000
vn 0.000001 0.000000 -1.000000
vn 0.060023 0.106070 -0.992545
vn 0.144766 0.198569 0.969336
vn 0.000000 0.000000 1.000000
vn -0.000010 0.000000 1.000000
vn 0.167653 0.082897 0.982355
vn -0.000795 0.001859 -0.999998
vn -0.000795 0.001859 -0.999998
vn -0.000795 0.001859 -0.999998
vn -0.997525 0.057389 0.040627
vn -0.997525 0.057389 0.040627
vn -0.997525 0.057389 0.040627
vn -0.973093 0.134665 0.186966
vn -1.000000 0.000000 0.000000
vn 0.382693 0.923876 -0.000000
vn 0.382689 0.923877 0.000000
vn 0.923872 0.382702 0.000000
vn 0.923879 0.382685 0.000000
vn 0.000000 0.923879 -0.382686
vn -0.000306 0.924027 -0.382327
vn 0.000000 0.382675 -0.923883
vn -0.000097 0.382683 -0.923880
vn 0.000000 -0.923879 0.382684
vn -0.000306 -0.924026 0.382330
vn 0.002718 -0.999994 0.002264
vn -0.000001 -0.999999 0.001543
vn 0.000000 -0.382680 0.923881
vn -0.000097 -0.382680 0.923881
vn 0.923877 -0.382690 0.000000
vn 0.923876 -0.382692 -0.000000
vn 0.382689 -0.923877 -0.000000
vn 0.382685 -0.923879 0.000000
vn 0.000004 -0.999999 0.001243
vn 0.000965 -0.975339 0.220711
vn 0.001347 -0.603942 0.797027
vn 0.000000 0.382675 0.923883
vn -0.000097 0.382683 0.923880
vn 0.000000 0.923879 0.382686
vn 0.002718 0.999994 0.002264
vn -0.000306 0.924027 0.382327
vn -0.000001 0.999999 0.001543
vn 0.000965 0.975336 -0.220721
vn 0.001347 0.603935 -0.797032
vn 0.000000 -0.382680 -0.923881
vn -0.000097 -0.382680 -0.923881
vn 0.000000 -0.923879 -0.382684
vn -0.000306 -0.924026 -0.382330
vn -0.095089 -0.995468 0.001467
vn -0.096186 -0.918203 0.384256
vn -0.053877 -0.388446 0.919895
vn -0.096189 0.918200 -0.384260
vn -0.053881 0.388444 -0.919896
vn -0.992610 0.121342 0.001466
vn -0.915431 0.120293 0.384079
vn -0.387950 0.061454 0.919630
vn -0.006655 -0.000582 -0.999978
vn -0.999610 -0.024127 0.014034
vn -0.915426 -0.120296 -0.384088
vn -0.387973 -0.061453 -0.919620
vn 0.923033 -0.026821 -0.383786
vn 0.381368 -0.011443 -0.924353
vn 0.923031 0.026821 0.383788
vn 0.381371 0.011443 0.924351
vn -0.851117 0.352476 0.389052
vn -0.923843 0.382769 0.001496
vn -0.347827 0.143792 0.926466
vn 0.003454 -0.923804 0.382849
vn 0.001489 -0.382515 0.923948
vn 0.923877 -0.382689 0.000000
vn 0.923876 -0.382692 0.000000
vn 0.382689 -0.923877 -0.000000
vn 0.382685 -0.923879 0.000000
vn 0.000000 -0.382681 -0.923881
vn 0.000000 -0.382680 -0.923881
vn 0.000000 -0.923879 -0.382686
vn 0.000000 -0.923879 -0.382684
vn 0.001489 -0.382517 -0.923947
vn 0.003455 -0.923807 -0.382842
vn 0.003454 0.923808 -0.382840
vn 0.001489 0.382512 -0.923950
vn 0.924593 0.380950 0.002170
vn 0.976975 -0.213353 0.000000
vn 0.382673 0.923884 0.000000
vn 0.382685 0.923879 0.000000
vn 0.000000 0.382679 0.923881
vn 0.000000 0.382680 0.923881
vn 0.000000 0.923880 0.382683
vn 0.000000 0.923880 0.382682
vn 0.001489 0.382512 0.923949
vn 0.003455 0.923808 0.382841
vn -0.352468 -0.851117 0.389058
vn -0.382683 -0.923879 0.001496
vn -0.143791 -0.347828 0.926466
vn -0.141733 -0.348680 -0.926463
vn -0.350421 -0.851963 -0.389056
vn -0.707100 0.707112 0.001478
vn -0.649815 0.652980 0.389047
vn -0.264568 0.267713 0.926463
vn -0.267703 0.264558 -0.926469
vn -0.652966 0.649825 -0.389055
vn -0.382675 0.923882 0.001478
vn -0.350408 0.851966 0.389060
vn -0.141725 0.348682 0.926464
vn -0.143793 0.347833 -0.926464
vn -0.352464 0.851119 -0.389057
vn -0.707110 -0.707102 0.001478
vn -0.652982 -0.649812 0.389049
vn -0.267708 -0.264559 0.926467
vn -0.264559 -0.267713 -0.926466
vn -0.649833 -0.652965 -0.389043
vn -0.923882 -0.382675 0.001478
vn -0.851975 -0.350407 0.389042
vn -0.348682 -0.141733 0.926463
vn -0.347831 -0.143792 -0.926465
vn -0.851117 -0.352476 -0.389050
vn 0.455588 -0.798193 0.394116
vn 0.182236 -0.323721 0.928437
vn 0.798199 -0.455578 -0.394115
vn 0.323726 -0.182229 -0.928437
vn 0.455583 0.798195 -0.394119
vn 0.182218 0.323722 -0.928440
vn 0.798199 0.455578 0.394115
vn 0.584632 0.483328 0.651614
vn 0.794848 -0.461403 0.394112
vn 0.320483 -0.187821 0.928447
vn 0.461428 -0.794832 -0.394114
vn 0.187816 -0.320493 -0.928445
vn 0.794847 0.461403 -0.394113
vn 0.320478 0.187821 -0.928449
vn 0.461424 0.794833 0.394118
vn 0.230334 0.302788 0.924806
vn 1.000000 0.000000 -0.000000
vn 1.000000 0.000000 0.000000
vn 1.000000 0.000000 -0.000000
vn 1.000000 0.000000 0.000000
vn 0.037585 0.999294 0.000000
vn 0.000000 1.000000 -0.000000
vn 0.382687 0.923878 0.000000
vn 0.382683 0.923880 -0.000000
vn 0.924365 0.381504 -0.002010
vn 0.923876 0.382692 -0.000000
vn 0.996728 0.080823 -0.000394
vn 0.998280 0.058628 -0.000000
vn 0.998280 -0.058628 0.000000
vn 0.996726 -0.080858 0.000000
vn 0.923876 -0.382692 0.000000
vn 0.923883 -0.382675 0.000000
vn 0.382674 -0.923883 0.000000
vn 0.382686 -0.923878 0.000000
vn 0.001765 -0.999999 0.000000
vn 0.000000 -1.000000 0.000000
vn 0.000000 -1.000000 0.000000
vn -0.093386 -0.995630 0.000000
vn -0.382683 -0.923880 0.000000
vn -0.707107 -0.707107 0.000000
vn -0.923879 -0.382685 0.000000
vn -0.992857 -0.119314 0.000000
vn -1.000000 -0.000000 0.000000
vn -1.000000 -0.000001 0.000000
vn -1.000000 -0.000001 0.000000
vn -0.992998 0.118132 0.000000
vn -0.923085 0.384595 0.000000
vn -0.707105 0.707108 0.000000
vn -0.382682 0.923880 -0.000000
vn -0.093387 0.995630 -0.000000
vn 0.000000 1.000000 0.000000
vn 0.000000 1.000000 0.000000
vn 0.001765 0.999999 0.000000
vn 0.382678 0.923882 0.000000
vn 0.382683 0.923880 0.000000
vn 0.998280 0.058627 0.000000
vn 0.997238 0.074269 0.000000
vn 0.923879 0.382685 0.000000
vn 0.923892 0.382652 0.000000
vn 0.998280 -0.058628 0.000000
vn 0.997239 -0.074264 0.000000
vn 0.923876 -0.382692 0.000000
vn 0.923883 -0.382674 0.000000
vn 0.382674 -0.923883 0.000000
vn 0.382686 -0.923878 0.000000
vn 0.037586 -0.999293 0.000000
vn 0.000000 -1.000000 0.000000
vn 1.000000 0.000000 -0.000000
vn 1.000000 0.000000 0.000000
vn 1.000000 0.000000 0.000000
vn 1.000000 0.000000 0.000001
vn 0.000000 1.000000 0.000000
vn 0.040928 0.999162 0.000000
vn 0.382678 0.923882 0.000000
vn 0.978440 -0.206533 -0.000238
vn 0.976976 -0.213348 0.000001
vn -0.658816 0.008016 -0.752261
vn -0.658678 0.008015 -0.752382
vn -0.649352 0.007901 -0.760447
vn -0.649291 0.007900 -0.760499
vn 0.923884 -0.382674 -0.000001
vn 0.923883 -0.382674 -0.000000
vn 0.001851 -0.999998 0.000000
vn 0.382679 -0.923881 -0.000000
vn 0.000000 -1.000000 0.000000
vn 0.000000 -1.000000 0.000000
vn -0.093511 -0.995618 -0.000000
vn -0.382683 -0.923880 -0.000000
vn -0.707107 -0.707107 -0.000000
vn -0.923879 -0.382684 -0.000000
vn -0.992838 -0.119467 -0.000000
vn -1.000000 0.000000 0.000000
vn -1.000000 -0.000000 0.000000
vn -1.000000 0.000001 0.000000
vn -0.992842 0.119438 0.000000
vn -0.923864 0.382722 0.000000
vn -0.707105 0.707108 0.000000
vn -0.382683 0.923880 0.000000
vn -0.093512 0.995618 0.000000
vn 0.000000 1.000000 0.000000
vn 0.000000 1.000000 0.000000
vn 0.001851 0.999998 0.000000
vn 0.382679 0.923881 -0.000000
vn 0.923884 0.382672 -0.000001
vn 0.997325 0.073101 -0.000000
vn 0.997325 -0.073101 -0.000000
vn 0.923884 -0.382672 -0.000001
vn 0.040928 -0.999162 -0.000000
vn 0.382679 -0.923881 -0.000000
vn 0.000000 -1.000000 -0.000000
vn 1.000000 0.000000 -0.000000
vn -0.649291 0.007901 0.760499
vn -0.658678 0.008015 0.752382
vn -0.649352 0.007901 0.760447
vn -0.658816 0.008016 0.752261
vn 0.001012 -1.000000 0.000000
vn 0.117716 -0.993047 -0.000209
vn 0.128813 -0.991668 -0.001637
vn -0.099960 0.994928 0.011283
vn -0.000003 1.000000 0.000000
vn -0.439774 0.898108 0.000359
vn 0.000000 -0.000001 1.000000
vn 0.000000 -0.000001 1.000000
vn 0.000000 -0.000001 1.000000
vn 0.000000 -0.000001 1.000000
vn 0.001013 -1.000000 0.000000
vn 0.001013 -1.000000 0.000000
vn 0.001013 -1.000000 0.000000
vn 0.001013 -1.000000 0.000000
vn -0.000003 1.000000 0.000000
vn -0.000003 1.000000 0.000000
vn -0.000000 1.000000 0.000000
vn 0.000000 1.000000 0.000000
vn 0.377605 -0.925967 -0.000666
vn 0.348530 -0.937298 -0.000000
vn 0.684089 -0.729399 -0.000000
vn 0.684087 -0.729401 -0.000000
vn 0.878590 -0.477577 0.000000
vn 0.878588 -0.477581 -0.000000
vn 0.954706 -0.297551 0.000000
vn 0.954705 -0.297553 -0.000000
vn 0.984148 -0.177349 0.000000
vn 0.984148 -0.177350 -0.000000
vn 0.998378 -0.056935 0.000000
vn 0.998378 -0.056934 -0.000000
vn 0.992054 0.125812 0.000000
vn 0.992054 0.125813 0.000000
vn 0.894002 0.448062 0.000000
vn 0.894002 0.448063 0.000000
vn 0.624756 0.780820 0.000000
vn 0.624755 0.780821 0.000001
vn 0.256970 0.966419 0.000000
vn 0.256969 0.966420 0.000000
vn 0.014184 0.999899 0.000000
vn 0.014184 0.999900 0.000000
vn 0.001920 0.999998 0.000000
vn 0.001920 0.999998 0.000000
vn 0.000000 0.000001 -1.000000
vn 0.000000 0.000001 -1.000000
vn -0.000001 0.000001 -1.000000
vn -0.000001 0.000001 -1.000000
vn -0.000001 0.000001 -1.000000
vn -0.000001 0.000001 -1.000000
vn -0.000002 0.000001 -1.000000
vn -0.000001 0.000001 -1.000000
vn -0.000001 0.000000 -1.000000
vn -0.000001 0.000000 -1.000000
vn -0.000001 0.000000 -1.000000
vn -0.000001 0.000000 -1.000000
vn -0.000001 0.000000 -1.000000
vn -0.000001 0.000000 -1.000000
vn -0.000001 -0.000000 -1.000000
vn -0.000001 -0.000000 -1.000000
vn -0.000001 -0.000001 -1.000000
vn -0.000001 -0.000001 -1.000000
vn -0.000001 -0.000001 -1.000000
vn -0.000001 -0.000001 -1.000000
vn -0.000000 -0.000001 -1.000000
vn -0.000000 -0.000001 -1.000000
vn -0.000000 -0.000001 -1.000000
vn -0.000000 -0.000001 -1.000000
vn 0.000000 -0.000001 -1.000000
vn 0.000000 -0.000001 -1.000000
vn -0.343272 0.939219 0.005747
vn -0.759838 0.650111 -0.001270
vn -0.741675 0.670759 0.000000
vn -0.897007 0.442016 0.000000
vn -0.897008 0.442015 -0.000000
vn -0.958431 0.285325 0.000000
vn -0.958431 0.285324 0.000000
vn -0.984803 0.173676 0.000000
vn -0.984803 0.173677 0.000000
vn -0.998514 0.054493 0.000000
vn -0.998514 0.054495 -0.000000
vn -0.991475 -0.130297 -0.000000
vn -0.991475 -0.130298 -0.000000
vn -0.886376 -0.462966 -0.000000
vn -0.886376 -0.462967 -0.000000
vn -0.590937 -0.806718 -0.000001
vn -0.590937 -0.806718 -0.000000
vn -0.218278 -0.975887 -0.000001
vn -0.218278 -0.975887 -0.000000
vn 0.000532 -1.000000 -0.000000
vn 0.000532 -1.000000 -0.000000
vn 0.000941 -1.000000 -0.000000
vn 0.000941 -1.000000 0.000000
vn 0.000001 -0.000001 1.000000
vn 0.000001 -0.000001 1.000000
vn 0.000001 -0.000001 1.000000
vn 0.000001 -0.000001 1.000000
vn 0.000001 -0.000001 1.000000
vn 0.000001 -0.000001 1.000000
vn 0.000001 -0.000001 1.000000
vn 0.000001 -0.000000 1.000000
vn 0.000001 -0.000000 1.000000
vn 0.000001 -0.000000 1.000000
vn 0.000001 -0.000000 1.000000
vn 0.000001 -0.000000 1.000000
vn 0.000002 -0.000000 1.000000
vn 0.000001 0.000000 1.000000
vn 0.000001 0.000000 1.000000
vn 0.000001 0.000001 1.000000
vn 0.000001 0.000001 1.000000
vn 0.000001 0.000001 1.000000
vn 0.000001 0.000001 1.000000
vn 0.000000 0.000001 1.000000
vn 0.000000 0.000001 1.000000
vn -0.000000 0.000001 1.000000
vn -0.000000 0.000001 1.000000
vn 0.000000 0.000001 1.000000
vn 0.000000 0.000001 1.000000
vn 0.143196 -0.989694 0.000000
vn 0.379002 -0.925396 0.000000
vn 0.684089 -0.729399 0.000000
vn 0.878589 -0.477579 0.000000
vn 0.954706 -0.297552 0.000000
vn 0.984148 -0.177350 0.000000
vn 0.998378 -0.056935 0.000000
vn 0.992054 0.125813 -0.000000
vn 0.894002 0.448063 0.000000
vn 0.624755 0.780821 0.000000
vn 0.256970 0.966419 0.000000
vn 0.014184 0.999900 0.000000
vn 0.001920 0.999998 0.000000
vn -0.617572 0.786515 -0.000000
vn -0.741672 0.670763 -0.000000
vn -0.897006 0.442019 0.000000
vn -0.958432 0.285322 -0.000000
vn -0.984803 0.173676 -0.000000
vn -0.998514 0.054495 -0.000000
vn -0.991475 -0.130299 0.000000
vn -0.886375 -0.462968 0.000000
vn -0.590937 -0.806718 0.000000
vn -0.218278 -0.975887 0.000000
vn 0.000532 -1.000000 0.000000
vn 0.000941 -1.000000 0.000000
vn 0.000000 1.000000 0.000000
vn 0.000000 1.000000 -0.000001
vn 0.000000 1.000000 -0.000000
vn 0.000000 1.000000 -0.000001
vn 0.000000 -0.000001 -1.000000
vn 0.000000 -0.000001 -1.000000
vn 0.000000 -0.000001 -1.000000
vn 0.000000 -0.000001 -1.000000
vn 0.000000 -1.000000 0.000000
vn 0.000000 -1.000000 -0.000000
vn 0.000000 -1.000000 -0.000000
vn 0.000000 -1.000000 -0.000000
vn 0.000000 0.000001 1.000000
vn 0.000000 0.000001 1.000000
vn 0.000000 0.000001 1.000000
vn 0.000000 0.000001 1.000000
vn 0.000000 1.000000 0.000001
vn 0.000000 1.000000 0.000000
vn 0.000000 1.000000 0.000001
vn 0.000000 1.000000 0.000000
vn 0.000000 -1.000000 0.000000
vn 0.000000 -1.000000 0.000000
vn 0.000000 -1.000000 0.000000
vn 0.000000 -1.000000 0.000000
vn 0.000000 1.000000 0.000000
vn 0.000000 1.000000 -0.000000
vn 0.000000 1.000000 -0.000000
vn 0.000000 1.000000 -0.000000
vn 0.000000 -0.000001 -1.000000
vn 0.000000 -0.000001 -1.000000
vn 0.000000 -0.000001 -1.000000
vn 0.000000 -0.000001 -1.000000
vn 0.000000 -1.000000 0.000000
vn 0.000000 -1.000000 -0.000000
vn 0.000000 -1.000000 -0.000000
vn 0.000000 -1.000000 -0.000000
vn 0.000000 0.000001 1.000000
vn 0.000000 0.000001 1.000000
vn 0.000000 0.000001 1.000000
vn 0.000000 0.000001 1.000000
vn 0.000000 1.000000 0.000000
vn 0.000000 1.000000 0.000000
vn 0.000000 1.000000 0.000000
vn 0.000000 1.000000 0.000000
vn 0.000000 -1.000000 0.000000
vn 0.000000 -1.000000 0.000000
vn 0.000000 -1.000000 0.000000
vn 0.000000 -1.000000 0.000000
vn 0.000000 1.000000 0.000000
vn 0.000000 1.000000 -0.000000
vn 0.000000 1.000000 -0.000000
vn 0.000000 1.000000 -0.000001
vn 0.000000 -0.000001 -1.000000
vn 0.000000 -0.000001 -1.000000
vn 0.000000 -0.000001 -1.000000
vn 0.000000 -0.000001 -1.000000
vn 0.000000 -1.000000 0.000000
vn 0.000000 -1.000000 -0.000000
vn 0.000000 -1.000000 -0.000000
vn 0.000000 -1.000000 -0.000000
vn 0.000000 0.000001 1.000000
vn 0.000000 0.000001 1.000000
vn 0.000000 0.000001 1.000000
vn 0.000000 0.000001 1.000000
vn 0.000000 1.000000 0.000000
vn 0.000000 1.000000 0.000000
vn 0.000000 1.000000 0.000000
vn 0.000000 -1.000000 0.000000
vn 0.000000 -1.000000 0.000000
vn 0.000000 -1.000000 0.000000
vn 0.000000 -0.000001 -1.000000
vn 0.000000 -0.000001 -1.000000
vn -0.009096 0.000109 -0.999959
vn -0.009352 0.000112 -0.999956
vn 0.000000 0.000001 1.000000
vn -0.009096 0.000112 0.999959
vn 0.000000 0.000001 1.000000
vn -0.009352 0.000115 0.999956
vn -0.909060 0.011059 -0.416519
vn -0.908484 0.011055 -0.417773
vn -0.999926 0.012165 -0.000000
vn -0.999926 0.012166 -0.000000
vn -0.909060 0.011062 0.416518
vn -0.908484 0.011054 0.417773
vn -0.507252 0.006171 -0.861776
vn -0.508270 0.006182 -0.861175
vn -0.347040 0.004222 -0.937841
vn -0.348246 0.004235 -0.937393
vn -0.175931 0.002140 -0.984400
vn -0.177265 0.002155 -0.984161
vn -0.175931 0.002143 0.984400
vn -0.177264 0.002158 0.984161
vn -0.347039 0.004224 0.937841
vn -0.348246 0.004238 0.937394
vn -0.507252 0.006174 0.861776
vn -0.508270 0.006185 0.861176
vn 0.000000 -1.000000 -0.000000
vn 0.000000 -1.000000 0.000000
vn 0.000000 -1.000000 0.000000
vn 0.000000 -1.000000 0.000000
vn 0.000000 -1.000000 0.000000
vn 0.000000 -1.000000 -0.000000
vn 0.000000 1.000000 0.000001
vn 0.000000 1.000000 0.000000
vn 0.000000 1.000000 -0.000003
vn 0.000000 1.000000 0.000000
vn 0.000000 1.000000 0.000003
vn 0.000000 1.000000 -0.000000
vn 0.000000 1.000000 0.000000
vn -0.000000 1.000000 -0.000000
vn -0.000000 1.000000 -0.000002
vn -0.000000 1.000000 -0.000002
vn -0.000000 1.000000 0.000000
vn 0.000000 -1.000000 -0.000000
vn -0.000000 -1.000000 -0.000000
vn -0.000000 -1.000000 0.000000
vn -0.000000 -1.000000 0.000000
vn -0.000000 -1.000000 -0.000001
vn 0.000000 1.000000 -0.000000
vn -0.000000 1.000000 0.000001
vn -0.000000 1.000000 0.000000
vn -0.000000 1.000000 0.000000
vn -0.000000 1.000000 0.000000
vn 0.000000 -1.000000 0.000001
vn -0.000000 -1.000000 0.000000
vn -0.000000 -1.000000 0.000000
vn -0.000000 -1.000000 -0.000000
vn -0.000000 -1.000000 0.000000
vn 0.951057 0.000000 -0.309016
vn 0.809017 0.000000 -0.587785
vn 0.951057 0.000000 -0.309016
vn 0.809017 0.000000 -0.587786
vn 0.587785 0.000000 -0.809017
vn 0.587785 0.000000 -0.809017
vn 0.309017 0.000000 -0.951056
vn 0.309017 0.000000 -0.951057
vn -0.000000 0.000000 -1.000000
vn -0.000000 0.000000 -1.000000
vn -0.309017 0.000000 -0.951056
vn -0.309017 0.000000 -0.951057
vn -0.587786 0.000000 -0.809016
vn -0.587786 0.000000 -0.809017
vn -0.809017 0.000000 -0.587785
vn -0.809017 0.000000 -0.587786
vn -0.951056 0.000000 -0.309017
vn -0.951056 0.000000 -0.309018
vn -1.000000 0.000000 -0.000000
vn -1.000000 0.000000 -0.000000
vn -0.951057 0.000000 0.309017
vn -0.951056 0.000000 0.309017
vn -0.809017 0.000000 0.587785
vn -0.809017 0.000000 0.587786
vn -0.587786 0.000000 0.809017
vn -0.587786 0.000000 0.809017
vn -0.309017 0.000000 0.951056
vn -0.309017 0.000000 0.951057
vn 0.000000 0.000000 1.000000
vn 0.000000 0.000000 1.000000
vn 0.309017 0.000000 0.951056
vn 0.309017 0.000000 0.951057
vn 0.587785 0.000000 0.809017
vn 0.587784 0.000000 0.809018
vn 0.809017 0.000000 0.587785
vn 0.809017 0.000000 0.587785
vn 0.951056 0.000000 0.309017
vn 0.951056 0.000000 0.309018
vn 1.000000 0.000000 0.000001
vn 1.000000 0.000000 0.000001
vn 0.000000 1.000000 -0.000000
vn 0.000000 1.000000 0.000000
vn 0.000000 1.000000 0.000001
vn 0.000000 1.000000 0.000001
vn 0.000000 1.000000 -0.000000
vn 0.000000 1.000000 -0.000000
vn 0.000000 1.000000 0.000000
vn 0.000000 1.000000 0.000000
vn 0.000000 1.000000 0.000000
vn 0.000000 1.000000 0.000000
vn 0.000000 1.000000 0.000000
vn 0.000000 1.000000 0.000000
vn 0.000000 1.000000 -0.000001
vn 0.000000 1.000000 -0.000000
vn 0.000000 1.000000 -0.000000
vn 0.000000 1.000000 0.000000
vn 0.000000 1.000000 -0.000000
vn 0.000000 1.000000 0.000000
vn 0.000000 1.000000 0.000000
vn 0.000000 1.000000 0.000000
vn 0.000000 1.000000 0.000001
vn 0.000000 1.000000 -0.000000
vn 0.000000 1.000000 0.000001
vn 0.000000 1.000000 0.000001
vn 0.000000 1.000000 0.000000
vn 0.000000 1.000000 0.000000
vn 0.000000 1.000000 0.000000
vn 0.000000 1.000000 0.000000
vn 0.000000 1.000000 0.000000
vn 0.000000 1.000000 0.000000
vn 0.000000 1.000000 -0.000000
vn 0.000000 1.000000 0.000000
vn 0.000000 1.000000 0.000000
vn 0.000000 1.000000 -0.000000
vn 0.000000 1.000000 0.000000
vn 0.000000 1.000000 -0.000000
vn 0.000000 1.000000 -0.000000
vn 0.000000 1.000000 -0.000001
vn 0.000000 1.000000 -0.000000
vn 0.000000 1.000000 -0.000001
vn 0.000000 1.000000 -0.000000
s 1
g pCube2
usemtl initialShadingGroup
f 4/552/1 1/553/2 5/554/3
f 5/554/3 1/553/2 3/555/4
s 2
f 303/10/5 272/11/6 7/12/7
f 7/12/7 272/11/6 6/14/8
s 3
f 6/567/9 8/568/10 7/569/11
f 7/569/11 8/568/10 9/571/12
f 12/572/13 11/570/14 6/567/9
f 6/567/9 11/570/14 8/568/10
s 2
f 272/11/6 273/17/15 6/14/8
f 6/14/8 273/17/15 12/20/16
s 1
f 5/554/3 3/555/4 13/557/17
f 13/557/17 3/555/4 14/559/18
f 2/564/19 3/555/4 17/562/20
f 17/562/20 3/555/4 20/560/21
f 20/560/21 3/555/4 19/558/22
f 19/558/22 3/555/4 18/556/23
f 3/555/4 1/553/2 18/556/23
s 3
f 9/571/12 8/568/10 23/574/24
f 10/581/25 24/580/26 8/568/10
f 24/580/26 25/578/27 8/568/10
f 25/578/27 26/576/28 8/568/10
f 23/574/24 8/568/10 26/576/28
f 10/581/25 8/568/10 29/579/29
f 29/579/29 8/568/10 32/577/30
f 32/577/30 8/568/10 31/575/31
f 31/575/31 8/568/10 30/573/32
f 8/568/10 11/570/14 30/573/32
s 1
f 14/559/18 3/555/4 35/561/33
f 2/564/19 36/566/34 3/555/4
f 36/566/34 37/565/35 3/555/4
f 37/565/35 38/563/36 3/555/4
f 35/561/33 3/555/4 38/563/36
s 6
f 16/582/37 39/583/38 15/584/39
f 15/584/39 39/583/38 40/585/40
s 7
f 22/586/41 41/587/42 21/588/43
f 21/588/43 41/587/42 42/589/44
s 8
f 28/590/45 43/591/46 27/592/47
f 27/592/47 43/591/46 44/593/48
s 9
f 34/594/49 45/595/50 33/596/51
f 33/596/51 45/595/50 46/597/52
s 10
f 75/835/53 151/598/54 76/302/55
f 76/302/55 151/598/54 150/599/56
s 11
f 74/293/57 152/294/58 75/833/59
f 75/833/59 152/294/58 151/297/60
s 12
f 81/825/61 163/649/62 82/344/63
f 82/344/63 163/649/62 162/650/64
s 11
f 80/335/65 164/336/66 81/816/67
f 81/816/67 164/336/66 163/339/68
f 85/25/69 84/26/70 86/27/71
f 86/27/71 84/26/70 87/29/72
s 10
f 84/702/73 83/51/74 87/703/75
f 87/703/75 83/51/74 88/41/76
s 11
f 91/73/77 90/85/78 92/68/79
f 92/68/79 90/85/78 93/94/80
s 12
f 90/678/81 89/107/82 93/680/83
f 93/680/83 89/107/82 94/105/84
f 96/674/85 99/672/86 97/673/87
f 97/673/87 99/672/86 98/669/88
s 19
f 95/110/89 100/111/90 96/112/91
f 96/112/91 100/111/90 99/114/92
s 10
f 102/623/93 105/621/94 103/622/95
f 103/622/95 105/621/94 104/618/96
s 19
f 101/131/97 106/132/98 102/133/99
f 102/133/99 106/132/98 105/135/100
s 10
f 115/617/101 118/619/102 116/607/103
f 116/607/103 118/619/102 117/615/104
s 19
f 114/377/105 119/794/106 115/379/107
f 115/379/107 119/794/106 118/795/108
s 10
f 130/31/109 160/629/110 131/50/111
f 131/50/111 160/629/110 159/628/112
s 11
f 129/28/113 161/35/114 130/806/115
f 130/806/115 161/35/114 160/40/116
s 12
f 136/668/117 139/670/118 137/658/119
f 137/658/119 139/670/118 138/666/120
s 19
f 135/410/121 140/803/122 136/412/123
f 136/412/123 140/803/122 139/804/124
s 12
f 169/681/125 168/689/126 171/99/127
f 171/99/127 168/689/126 172/686/128
s 11
f 168/86/129 170/74/130 172/91/131
f 172/91/131 170/74/130 173/93/132
f 153/323/133 294/317/134 77/318/135
f 77/318/135 294/317/134 295/312/136
f 281/341/137 282/338/138 80/335/65
f 80/335/65 282/338/138 164/336/66
s 32
f 276/791/139 277/152/140 138/153/141
f 138/153/141 277/152/140 58/154/142
s 11
f 132/87/143 286/69/144 92/68/79
f 92/68/79 286/69/144 287/55/145
s 10
f 141/645/146 144/641/147 55/644/148
f 55/644/148 144/641/147 61/375/149
s 11
f 65/325/150 296/319/151 50/330/152
f 50/330/152 296/319/151 297/326/153
s 12
f 70/350/154 137/658/119 58/662/155
f 58/662/155 137/658/119 138/666/120
s 11
f 279/357/156 280/347/157 56/351/158
f 56/351/158 280/347/157 68/345/159
s 10
f 144/641/147 147/829/160 61/375/149
f 34/594/161 73/374/162 147/636/160
f 147/829/160 73/828/162 61/375/149
s 11
f 295/312/136 296/319/151 77/318/135
f 77/318/135 296/319/151 65/325/150
s 12
f 137/658/119 70/350/154 212/821/163
f 27/592/164 212/653/163 82/344/63
f 82/822/63 212/821/163 70/350/154
s 11
f 281/341/137 80/335/65 280/347/157
f 280/347/157 80/335/65 68/345/159
s 12
f 123/694/165 126/820/166 67/333/167
f 22/586/168 79/332/169 126/688/166
f 126/820/166 79/819/169 67/333/167
f 120/698/170 123/694/165 52/697/171
f 52/697/171 123/694/165 67/333/167
s 43
f 299/170/172 300/171/173 52/172/174
f 52/172/174 300/171/173 120/174/175
s 10
f 64/308/176 116/607/103 49/611/177
f 49/611/177 116/607/103 117/615/104
f 116/607/103 64/308/176 206/827/178
f 15/584/179 206/602/178 76/302/55
f 76/834/55 206/827/178 64/308/176
s 11
f 91/73/77 288/53/180 109/67/181
f 109/67/181 288/53/180 289/58/182
s 10
f 16/582/183 88/41/76 104/618/96
f 104/618/96 88/41/76 103/622/95
f 83/51/74 103/622/95 88/41/76
s 12
f 21/588/184 209/677/185 107/675/186
f 209/677/185 97/673/87 107/675/186
f 89/107/82 107/675/186 97/673/87
s 11
f 287/55/145 288/53/180 92/68/79
f 92/68/79 288/53/180 91/73/77
s 12
f 28/590/187 94/105/84 98/669/88
f 98/669/88 94/105/84 97/673/87
f 89/107/82 97/673/87 94/105/84
s 10
f 33/596/188 215/625/189 131/50/111
f 215/625/189 103/622/95 131/50/111
f 131/50/111 103/622/95 83/51/74
s 19
f 114/377/105 204/382/190 1/383/191
f 1/383/191 204/382/190 18/389/192
f 17/137/193 106/132/98 2/134/194
f 2/134/194 106/132/98 101/131/97
f 119/794/106 114/377/105 4/380/195
f 4/380/195 114/377/105 1/383/191
f 122/797/196 302/396/197 7/796/198
f 7/796/198 302/396/197 303/395/199
f 122/399/196 7/398/198 125/401/200
f 125/401/200 7/398/198 9/403/201
f 95/110/89 207/115/202 10/113/203
f 10/113/203 207/115/202 24/120/204
f 23/406/205 128/404/206 9/403/201
f 9/403/201 128/404/206 125/401/200
f 135/410/121 210/415/207 11/416/208
f 11/416/208 210/415/207 30/422/209
f 29/116/210 100/111/90 10/113/203
f 10/113/203 100/111/90 95/110/89
f 140/803/122 135/410/121 12/802/211
f 12/802/211 135/410/121 11/416/208
f 273/420/212 274/417/213 12/413/211
f 12/413/211 274/417/213 140/411/122
f 143/800/214 13/799/215 146/434/216
f 146/434/216 13/799/215 14/436/217
f 101/131/97 213/136/218 2/134/194
f 2/134/194 213/136/218 36/141/219
f 35/439/220 149/437/221 14/436/217
f 14/436/217 149/437/221 146/434/216
s 11
f 290/59/222 291/75/223 170/74/130
f 170/74/130 291/75/223 173/93/132
f 291/75/223 292/95/224 173/93/132
f 173/93/132 292/95/224 179/104/225
f 292/95/224 293/106/226 179/104/225
f 179/104/225 293/106/226 185/109/227
f 293/313/226 294/317/134 185/320/227
f 185/320/227 294/317/134 153/323/133
f 282/338/138 283/342/228 164/336/66
f 164/336/66 283/342/228 191/349/229
f 283/81/228 284/70/230 191/88/229
f 191/88/229 284/70/230 197/78/231
f 284/70/230 285/61/232 197/78/231
f 197/78/231 285/61/232 203/77/233
f 285/61/232 286/69/144 203/77/233
f 203/77/233 286/69/144 132/87/143
s 10
f 76/302/55 150/599/56 15/584/179
f 88/41/76 16/582/183 113/613/234
f 113/613/234 16/582/183 167/608/235
f 150/599/56 182/600/236 15/584/179
f 167/608/235 16/582/183 176/603/237
f 15/584/179 182/600/236 16/582/183
f 16/582/183 182/600/236 176/603/237
s 12
f 110/100/238 169/681/125 107/675/186
f 107/675/186 169/681/125 21/588/184
f 79/332/169 22/586/168 155/692/239
f 155/692/239 22/586/168 183/687/240
f 22/586/168 21/588/184 183/687/240
f 183/687/240 21/588/184 177/684/241
f 169/681/125 171/99/127 21/588/184
f 21/588/184 171/99/127 177/684/241
s 10
f 73/374/162 34/594/161 158/640/242
f 131/50/111 159/628/112 33/596/188
f 159/628/112 200/630/243 33/596/188
f 158/640/242 34/594/161 188/635/244
f 200/630/243 194/632/245 33/596/188
f 34/594/161 33/596/188 188/635/244
f 194/632/245 188/635/244 33/596/188
s 12
f 82/344/63 162/650/64 27/592/164
f 94/105/84 28/590/187 134/664/246
f 134/664/246 28/590/187 201/659/247
f 162/650/64 189/651/248 27/592/164
f 201/659/247 28/590/187 195/654/249
f 27/592/164 189/651/248 28/590/187
f 28/590/187 189/651/248 195/654/249
s 19
f 204/382/190 216/388/250 18/389/192
f 18/389/192 216/388/250 19/394/251
f 216/148/250 219/138/252 19/144/251
f 19/144/251 219/138/252 20/140/253
f 219/138/252 106/132/98 20/140/254
f 20/140/254 106/132/98 17/137/193
f 207/115/202 222/122/255 24/120/204
f 24/120/204 222/122/255 25/126/256
f 222/122/255 225/128/257 25/126/258
f 25/126/258 225/128/257 26/130/259
f 225/408/257 128/404/206 26/407/259
f 26/407/259 128/404/206 23/406/205
f 210/415/207 228/421/260 30/422/209
f 30/422/209 228/421/260 31/427/261
f 228/127/260 231/117/262 31/123/261
f 31/123/261 231/117/262 32/119/263
f 231/117/262 100/111/90 32/119/264
f 32/119/264 100/111/90 29/116/210
f 213/136/218 234/143/265 36/141/219
f 36/141/219 234/143/265 37/147/266
f 234/143/265 237/149/267 37/147/268
f 37/147/268 237/149/267 38/151/269
f 237/441/267 149/437/221 38/440/269
f 38/440/269 149/437/221 35/439/220
s 10
f 104/618/96 221/614/270 16/582/183
f 16/582/183 221/614/270 39/583/271
f 40/585/272 218/604/273 15/584/179
f 15/584/179 218/604/273 206/602/178
f 218/604/273 40/585/272 221/614/270
f 221/614/270 40/585/272 39/583/271
s 12
f 126/688/166 227/685/274 22/586/168
f 22/586/168 227/685/274 41/587/275
f 42/589/276 224/682/277 21/588/184
f 21/588/184 224/682/277 209/677/185
f 42/589/276 41/587/275 224/682/277
f 224/682/277 41/587/275 227/685/274
f 98/669/88 233/665/278 28/590/187
f 28/590/187 233/665/278 43/591/279
f 44/593/280 230/655/281 27/592/164
f 27/592/164 230/655/281 212/653/163
f 230/655/281 44/593/280 233/665/278
f 233/665/278 44/593/280 43/591/279
s 10
f 147/636/160 239/633/282 34/594/161
f 34/594/161 239/633/282 45/595/283
f 46/597/284 236/627/285 33/596/188
f 33/596/188 236/627/285 215/625/189
f 46/597/284 45/595/283 236/627/285
f 236/627/285 45/595/283 239/633/282
s off
f 110/100/286 107/675/287 108/90/288
f 110/818/289 108/817/290 109/67/291
s 11
f 290/59/222 170/74/130 289/58/182
f 289/58/182 170/74/130 109/67/181
f 170/74/130 168/86/129 109/67/181
f 168/86/129 169/92/292 109/67/181
f 169/92/292 110/818/293 109/67/181
f 297/326/153 298/331/294 50/330/152
f 50/330/152 298/331/294 51/334/295
s 43
f 298/179/296 299/170/172 51/175/297
f 51/175/297 299/170/172 52/172/174
s 11
f 51/334/298 66/328/299 50/330/152
f 50/330/152 66/328/299 65/325/150
s 12
f 52/697/171 67/333/167 51/699/300
f 51/699/300 67/333/167 66/700/301
s 11
f 54/376/302 60/370/303 53/372/304
f 53/372/304 60/370/303 59/367/305
s 10
f 55/644/148 61/375/149 54/646/306
f 54/646/306 61/375/149 60/647/307
s 32
f 278/158/308 57/156/309 277/152/140
f 277/152/140 57/156/309 58/154/142
s 11
f 279/357/156 56/351/158 278/358/310
f 278/358/310 56/351/158 57/353/311
f 59/367/305 60/370/303 71/360/312
f 71/360/312 60/370/303 72/366/313
s 10
f 60/647/307 61/375/149 72/832/314
f 72/832/314 61/375/149 73/828/162
f 49/611/177 48/616/315 64/308/176
f 64/308/176 48/616/315 63/620/316
s 11
f 48/311/317 47/309/318 63/298/319
f 63/298/319 47/309/318 62/303/320
f 65/325/150 66/328/299 77/318/135
f 77/318/135 66/328/299 78/324/321
s 12
f 66/700/301 67/333/167 78/826/322
f 78/826/322 67/333/167 79/819/169
f 58/662/155 57/667/323 70/350/154
f 70/350/154 57/667/323 69/671/324
s 11
f 57/353/325 56/351/158 69/340/326
f 69/340/326 56/351/158 68/345/159
f 71/360/312 72/366/313 156/365/327
f 156/365/327 72/366/313 157/808/328
s 10
f 72/648/314 73/374/162 157/371/329
f 157/371/329 73/374/162 158/640/242
f 63/620/316 75/295/53 64/308/176
f 64/308/176 75/295/53 76/834/55
s 11
f 62/303/320 74/293/57 63/298/319
f 63/298/319 74/293/57 75/833/59
f 77/318/135 78/324/321 153/323/133
f 153/323/133 78/324/321 154/809/330
s 12
f 78/701/322 79/332/169 154/329/331
f 154/329/331 79/332/169 155/692/239
f 69/671/324 81/337/61 70/350/154
f 70/350/154 81/337/61 82/822/63
s 11
f 68/345/159 80/335/65 69/340/326
f 69/340/326 80/335/65 81/816/67
f 86/27/71 87/29/72 111/32/332
f 111/32/332 87/29/72 112/805/333
s 10
f 87/703/75 88/41/76 112/36/334
f 112/36/334 88/41/76 113/613/234
s 12
f 90/678/81 108/90/335 89/107/82
f 89/107/82 108/90/335 107/675/186
s 11
f 91/73/77 109/67/181 90/85/78
f 90/85/78 109/67/181 108/817/336
f 92/68/79 93/94/80 132/87/143
f 132/87/143 93/94/80 133/807/337
s 12
f 93/680/83 94/105/84 133/101/338
f 133/101/338 94/105/84 134/664/246
s 19
f 95/110/89 96/112/91 207/115/202
f 207/115/202 96/112/91 208/118/339
s 12
f 96/674/85 97/673/87 208/676/340
f 208/676/340 97/673/87 209/677/185
s 19
f 101/131/97 102/133/99 213/136/218
f 213/136/218 102/133/99 214/139/341
s 10
f 102/623/93 103/622/95 214/624/342
f 214/624/342 103/622/95 215/625/189
s 11
f 112/805/333 166/42/343 111/32/332
f 111/32/332 166/42/343 165/43/344
s 10
f 113/613/234 167/608/235 112/36/334
f 112/36/334 167/608/235 166/612/345
s 19
f 114/377/105 115/379/107 204/382/190
f 204/382/190 115/379/107 205/386/346
s 10
f 115/617/101 116/607/103 205/831/347
f 205/831/347 116/607/103 206/827/178
s 43
f 301/177/348 121/178/349 300/171/173
f 300/171/173 121/178/349 120/174/175
s 19
f 302/396/197 122/797/196 301/397/350
f 301/397/350 122/797/196 121/798/351
s 12
f 120/698/170 121/696/352 123/694/165
f 123/694/165 121/696/352 124/695/353
s 19
f 121/400/354 122/399/196 124/402/355
f 124/402/355 122/399/196 125/401/200
s 12
f 124/695/353 127/691/356 123/694/165
f 123/694/165 127/691/356 126/820/166
s 19
f 124/402/355 125/401/200 127/405/357
f 127/405/357 125/401/200 128/404/206
s 10
f 84/702/73 130/31/109 83/51/74
f 83/51/74 130/31/109 131/50/111
s 11
f 85/25/69 129/28/113 84/26/70
f 84/26/70 129/28/113 130/806/115
s 19
f 135/410/121 136/412/123 210/415/207
f 210/415/207 136/412/123 211/419/358
s 12
f 136/668/117 137/658/119 211/823/359
f 211/823/359 137/658/119 212/821/163
s 32
f 138/153/141 139/155/360 276/791/139
f 276/791/139 139/155/360 275/157/361
s 19
f 139/414/362 140/411/122 275/418/363
f 275/418/363 140/411/122 274/417/213
s 10
f 141/645/146 142/643/364 144/641/147
f 144/641/147 142/643/364 145/642/365
s 19
f 142/433/366 143/800/214 145/435/367
f 145/435/367 143/800/214 146/434/216
s 10
f 145/642/365 148/638/368 144/641/147
f 144/641/147 148/638/368 147/829/160
s 19
f 145/435/367 146/434/216 148/438/369
f 148/438/369 146/434/216 149/437/221
s 11
f 157/808/328 187/369/370 156/365/327
f 156/365/327 187/369/370 186/362/371
s 10
f 158/640/242 188/635/244 157/371/329
f 157/371/329 188/635/244 187/639/372
s 12
f 162/650/64 163/649/62 189/651/248
f 189/651/248 163/649/62 190/652/373
s 11
f 163/339/68 164/336/66 190/343/374
f 190/343/374 164/336/66 191/349/229
f 165/43/344 166/42/343 174/57/375
f 174/57/375 166/42/343 175/65/376
s 10
f 166/612/345 167/608/235 175/605/377
f 175/605/377 167/608/235 176/603/237
s 12
f 171/99/127 172/686/128 177/684/241
f 177/684/241 172/686/128 178/690/378
s 11
f 172/91/131 173/93/132 178/103/379
f 178/103/379 173/93/132 179/104/225
f 174/57/375 175/65/376 180/72/380
f 180/72/380 175/65/376 181/83/381
s 10
f 175/605/377 176/603/237 181/601/382
f 181/601/382 176/603/237 182/600/236
s 12
f 177/684/241 178/690/378 183/687/240
f 183/687/240 178/690/378 184/693/383
s 11
f 178/103/379 179/104/225 184/108/384
f 184/108/384 179/104/225 185/109/227
s 10
f 150/599/56 151/598/54 182/600/236
f 182/600/236 151/598/54 181/601/382
s 11
f 151/297/60 152/294/58 181/301/381
f 181/301/381 152/294/58 180/306/380
f 154/809/330 184/327/384 153/323/133
f 153/323/133 184/327/384 185/320/227
s 12
f 155/692/239 183/687/240 154/329/331
f 154/329/331 183/687/240 184/693/383
s 11
f 186/89/371 187/82/370 192/71/385
f 192/71/385 187/82/370 193/64/386
s 10
f 187/639/372 188/635/244 193/637/387
f 193/637/387 188/635/244 194/632/245
s 12
f 189/651/248 190/652/373 195/654/249
f 195/654/249 190/652/373 196/656/388
s 11
f 190/102/374 191/88/229 196/98/389
f 196/98/389 191/88/229 197/78/231
f 192/71/385 193/64/386 198/56/390
f 198/56/390 193/64/386 199/49/391
s 10
f 193/637/387 194/632/245 199/634/392
f 199/634/392 194/632/245 200/630/243
s 12
f 195/654/249 196/656/388 201/659/247
f 201/659/247 196/656/388 202/663/393
s 11
f 196/98/389 197/78/231 202/97/394
f 202/97/394 197/78/231 203/77/233
s 10
f 159/628/112 160/629/110 200/630/243
f 200/630/243 160/629/110 199/634/392
s 11
f 160/40/116 161/35/114 199/49/391
f 199/49/391 161/35/114 198/56/390
f 133/807/337 202/97/394 132/87/143
f 132/87/143 202/97/394 203/77/233
s 12
f 134/664/246 201/659/247 133/101/338
f 133/101/338 201/659/247 202/663/393
s 19
f 204/382/190 205/386/346 216/388/250
f 216/388/250 205/386/346 217/392/395
s 10
f 205/609/347 206/602/178 217/606/396
f 217/606/396 206/602/178 218/604/273
s 19
f 207/115/202 208/118/339 222/122/255
f 222/122/255 208/118/339 223/125/397
s 12
f 208/676/340 209/677/185 223/679/398
f 223/679/398 209/677/185 224/682/277
s 19
f 210/415/207 211/419/358 228/421/260
f 228/421/260 211/419/358 229/425/399
s 12
f 211/660/359 212/653/163 229/657/400
f 229/657/400 212/653/163 230/655/281
s 19
f 213/136/218 214/139/341 234/143/265
f 234/143/265 214/139/341 235/146/401
s 10
f 214/624/342 215/625/189 235/626/402
f 235/626/402 215/625/189 236/627/285
s 19
f 216/148/250 217/145/395 219/138/252
f 219/138/252 217/145/395 220/142/403
s 10
f 217/606/396 218/604/273 220/610/404
f 220/610/404 218/604/273 221/614/270
f 105/621/94 220/610/404 104/618/96
f 104/618/96 220/610/404 221/614/270
s 19
f 106/132/98 219/138/252 105/135/100
f 105/135/100 219/138/252 220/142/403
f 222/122/255 223/125/397 225/128/257
f 225/128/257 223/125/397 226/129/405
s 12
f 223/679/398 224/682/277 226/683/406
f 226/683/406 224/682/277 227/685/274
f 127/824/356 226/683/406 126/688/166
f 126/688/166 226/683/406 227/685/274
s 19
f 128/404/206 225/408/257 127/405/357
f 127/405/357 225/408/257 226/409/405
f 228/127/260 229/124/399 231/117/262
f 231/117/262 229/124/399 232/121/407
s 12
f 229/657/400 230/655/281 232/661/408
f 232/661/408 230/655/281 233/665/278
f 99/672/86 232/661/408 98/669/88
f 98/669/88 232/661/408 233/665/278
s 19
f 100/111/90 231/117/262 99/114/92
f 99/114/92 231/117/262 232/121/407
f 234/143/265 235/146/401 237/149/267
f 237/149/267 235/146/401 238/150/409
s 10
f 235/626/402 236/627/285 238/631/410
f 238/631/410 236/627/285 239/633/282
f 148/830/368 238/631/410 147/636/160
f 147/636/160 238/631/410 239/633/282
s 19
f 149/437/221 237/441/267 148/438/369
f 148/438/369 237/441/267 238/442/409
s 2
f 13/24/411 334/19/412 5/23/413
f 5/23/413 334/19/412 335/18/414
s 19
f 143/432/214 333/429/415 13/431/215
f 13/431/215 333/429/415 334/428/416
f 333/429/415 143/432/214 332/430/417
f 332/430/417 143/432/214 142/801/418
s 32
f 332/162/419 142/166/420 331/164/421
f 331/164/421 142/166/420 141/168/422
f 55/169/423 330/165/424 141/168/422
f 141/168/422 330/165/424 331/164/421
f 55/169/423 54/167/425 330/165/424
f 330/165/424 54/167/425 329/163/426
s 11
f 54/376/427 53/372/304 329/373/428
f 329/373/428 53/372/304 328/368/429
f 59/367/305 327/361/430 53/372/304
f 53/372/304 327/361/430 328/368/429
f 326/354/431 327/361/430 71/360/312
f 71/360/312 327/361/430 59/367/305
f 156/365/327 325/359/432 71/360/312
f 71/360/312 325/359/432 326/354/431
f 156/365/327 186/362/371 325/359/432
f 325/359/432 186/362/371 324/355/433
f 186/89/371 192/71/385 324/79/433
f 324/79/433 192/71/385 323/62/434
f 192/71/385 198/56/390 323/62/434
f 323/62/434 198/56/390 322/48/435
f 198/56/390 161/35/114 322/48/435
f 322/48/435 161/35/114 321/39/436
f 320/34/437 321/39/436 129/28/113
f 129/28/113 321/39/436 161/35/114
f 320/34/437 129/28/113 319/30/438
f 319/30/438 129/28/113 85/25/69
f 318/33/439 319/30/438 86/27/71
f 86/27/71 319/30/438 85/25/69
f 318/33/439 86/27/71 317/37/440
f 317/37/440 86/27/71 111/32/332
f 111/32/332 165/43/344 317/37/440
f 317/37/440 165/43/344 316/52/441
f 165/43/344 174/57/375 316/52/441
f 316/52/441 174/57/375 315/66/442
f 174/57/375 180/72/380 315/66/442
f 315/66/442 180/72/380 314/84/443
f 180/306/380 152/294/58 314/300/443
f 314/300/443 152/294/58 313/296/444
f 312/299/445 313/296/444 74/293/57
f 74/293/57 313/296/444 152/294/58
f 312/299/445 74/293/57 311/305/446
f 311/305/446 74/293/57 62/303/320
f 310/315/447 311/305/446 47/309/318
f 47/309/318 311/305/446 62/303/320
f 48/311/448 309/316/449 47/309/318
f 47/309/318 309/316/449 310/315/447
s 43
f 49/185/450 308/182/451 48/189/452
f 48/189/452 308/182/451 309/186/453
f 117/188/454 307/180/455 49/185/450
f 49/185/450 307/180/455 308/182/451
f 117/188/454 118/187/456 307/180/455
f 307/180/455 118/187/456 306/183/457
s 19
f 118/381/458 119/378/106 306/385/459
f 306/385/459 119/378/106 305/384/460
f 304/387/461 305/384/460 4/793/195
f 4/793/195 305/384/460 119/378/106
s 2
f 5/23/413 335/18/414 4/22/462
f 4/22/462 335/18/414 304/21/463
f 240/13/464 241/16/465 272/11/6
f 272/11/6 241/16/465 273/17/15
s 19
f 241/426/466 242/423/467 273/420/212
f 273/420/212 242/423/467 274/417/213
f 275/418/363 274/417/213 243/424/468
f 243/424/468 274/417/213 242/423/467
s 32
f 276/791/139 275/157/361 244/790/469
f 244/790/469 275/157/361 243/160/470
s 82
f 432/253/471 436/255/472 445/257/473
f 445/257/473 436/255/472 443/259/474
s 32
f 246/161/475 278/158/308 245/159/476
f 245/159/476 278/158/308 277/152/140
s 11
f 247/363/477 279/357/156 246/364/478
f 246/364/478 279/357/156 278/358/310
f 247/363/477 248/356/479 279/357/156
f 279/357/156 248/356/479 280/347/157
f 248/356/479 249/352/480 280/347/157
f 280/347/157 249/352/480 281/341/137
f 249/352/480 250/346/481 281/341/137
f 281/341/137 250/346/481 282/338/138
f 250/346/481 251/348/482 282/338/138
f 282/338/138 251/348/482 283/342/228
f 251/80/482 252/63/483 283/81/228
f 283/81/228 252/63/483 284/70/230
f 252/63/483 253/54/484 284/70/230
f 284/70/230 253/54/484 285/61/232
f 253/54/484 254/46/485 285/61/232
f 285/61/232 254/46/485 286/69/144
f 286/69/144 254/46/485 287/55/145
f 287/55/145 254/46/485 255/47/486
f 288/53/180 287/55/145 256/38/487
f 256/38/487 287/55/145 255/47/486
f 289/58/182 288/53/180 257/44/488
f 257/44/488 288/53/180 256/38/487
f 289/58/182 257/44/488 290/59/222
f 290/59/222 257/44/488 258/45/489
f 258/45/489 259/60/490 290/59/222
f 290/59/222 259/60/490 291/75/223
f 259/60/490 260/76/491 291/75/223
f 291/75/223 260/76/491 292/95/224
f 260/76/491 261/96/492 292/95/224
f 292/95/224 261/96/492 293/106/226
f 261/307/492 262/304/493 293/313/226
f 293/313/226 262/304/493 294/317/134
f 294/317/134 262/304/493 295/312/136
f 295/312/136 262/304/493 263/310/494
f 296/319/151 295/312/136 264/314/495
f 264/314/495 295/312/136 263/310/494
f 297/326/153 296/319/151 265/321/496
f 265/321/496 296/319/151 264/314/495
f 265/321/496 266/322/497 297/326/153
f 297/326/153 266/322/497 298/331/294
s 43
f 266/184/498 267/176/499 298/179/296
f 298/179/296 267/176/499 299/170/172
f 267/176/499 268/173/500 299/170/172
f 299/170/172 268/173/500 300/171/173
f 269/181/501 301/177/348 268/173/500
f 268/173/500 301/177/348 300/171/173
s 19
f 270/390/502 302/396/197 269/391/503
f 269/391/503 302/396/197 301/397/350
f 302/396/197 270/390/502 303/395/199
f 303/395/199 270/390/502 271/393/504
s 2
f 271/15/505 240/13/464 303/10/5
f 303/10/5 240/13/464 272/11/6
s 19
f 271/393/504 270/390/502 304/387/461
f 304/387/461 270/390/502 305/384/460
f 306/385/459 305/384/460 269/391/503
f 269/391/503 305/384/460 270/390/502
s 43
f 307/180/455 306/183/457 268/173/500
f 268/173/500 306/183/457 269/181/501
f 308/182/451 307/180/455 267/176/499
f 267/176/499 307/180/455 268/173/500
f 308/182/451 267/176/499 309/186/453
f 309/186/453 267/176/499 266/184/498
s 11
f 309/316/449 266/322/497 310/315/447
f 310/315/447 266/322/497 265/321/496
f 265/321/496 264/314/495 310/315/447
f 310/315/447 264/314/495 311/305/446
f 264/314/495 263/310/494 311/305/446
f 311/305/446 263/310/494 312/299/445
f 263/310/494 262/304/493 312/299/445
f 312/299/445 262/304/493 313/296/444
f 314/300/443 313/296/444 261/307/492
f 261/307/492 313/296/444 262/304/493
f 315/66/442 314/84/443 260/76/491
f 260/76/491 314/84/443 261/96/492
f 316/52/441 315/66/442 259/60/490
f 259/60/490 315/66/442 260/76/491
f 317/37/440 316/52/441 258/45/489
f 258/45/489 316/52/441 259/60/490
f 257/44/488 318/33/439 258/45/489
f 258/45/489 318/33/439 317/37/440
f 257/44/488 256/38/487 318/33/439
f 318/33/439 256/38/487 319/30/438
f 255/47/486 320/34/437 256/38/487
f 256/38/487 320/34/437 319/30/438
f 255/47/486 254/46/485 320/34/437
f 320/34/437 254/46/485 321/39/436
f 322/48/435 321/39/436 253/54/484
f 253/54/484 321/39/436 254/46/485
f 323/62/434 322/48/435 252/63/483
f 252/63/483 322/48/435 253/54/484
f 324/79/433 323/62/434 251/80/482
f 251/80/482 323/62/434 252/63/483
f 325/359/432 324/355/433 250/346/481
f 250/346/481 324/355/433 251/348/482
f 325/359/432 250/346/481 326/354/431
f 326/354/431 250/346/481 249/352/480
f 327/361/430 326/354/431 248/356/479
f 248/356/479 326/354/431 249/352/480
f 328/368/429 327/361/430 247/363/477
f 247/363/477 327/361/430 248/356/479
f 329/373/428 328/368/429 246/364/478
f 246/364/478 328/368/429 247/363/477
s 32
f 330/165/424 329/163/426 245/159/476
f 245/159/476 329/163/426 246/161/475
s 82
f 450/260/506 434/256/507 455/258/508
f 455/258/508 434/256/507 428/254/509
s 32
f 243/160/470 332/162/419 244/790/469
f 244/790/469 332/162/419 331/164/421
s 19
f 242/423/467 333/429/415 243/424/468
f 243/424/468 333/429/415 332/430/417
f 333/429/415 242/423/467 334/428/416
f 334/428/416 242/423/467 241/426/466
s 2
f 335/18/414 334/19/412 240/13/464
f 240/13/464 334/19/412 241/16/465
f 304/21/463 335/18/414 271/15/505
f 271/15/505 335/18/414 240/13/464
s 87
f 245/190/510 277/191/511 337/192/512
s 88
f 276/2/513 244/1/514 336/7/515
s 89
f 339/741/516 331/5/517 338/9/518
f 331/5/517 330/4/519 338/9/518
s 90
f 330/194/520 245/190/521 338/193/522
f 338/193/522 245/190/521 337/192/523
s 91
f 336/7/524 244/1/525 339/8/526
f 244/1/525 331/792/527 339/8/526
s 87
f 337/192/512 277/191/511 351/207/528
f 351/207/528 277/191/511 363/205/529
f 351/207/528 363/205/529 352/201/530
f 352/201/530 363/205/529 364/198/531
f 352/201/530 364/198/531 353/195/532
f 353/195/532 364/198/531 365/196/533
f 353/195/532 365/196/533 354/197/534
f 354/197/534 365/196/533 366/199/535
f 354/197/534 366/199/535 355/202/536
f 355/202/536 366/199/535 367/206/537
f 355/202/536 367/206/537 356/209/538
f 356/209/538 367/206/537 368/211/539
f 356/209/538 368/211/539 357/213/540
f 357/213/540 368/211/539 369/215/541
f 357/213/540 369/215/541 358/216/542
f 358/216/542 369/215/541 370/218/543
f 358/216/542 370/218/543 359/219/544
f 359/219/544 370/218/543 371/221/545
f 359/219/544 371/221/545 360/443/546
f 360/443/546 371/221/545 372/444/547
f 360/443/546 372/444/547 361/446/548
f 361/446/548 372/444/547 373/448/549
f 361/446/548 373/448/549 362/449/550
f 362/449/550 373/448/549 374/451/551
s 92
f 277/3/552 276/6/553 363/704/554
f 363/704/554 276/6/553 375/705/555
f 363/704/554 375/705/555 364/706/556
f 364/706/556 375/705/555 376/707/557
f 364/706/556 376/707/557 365/708/558
f 365/708/558 376/707/557 377/709/559
f 365/708/558 377/709/559 366/710/560
f 366/710/560 377/709/559 378/711/561
f 366/710/560 378/711/561 367/712/562
f 367/712/562 378/711/561 379/713/563
f 367/712/562 379/713/563 368/714/564
f 368/714/564 379/713/563 380/715/565
f 368/714/564 380/715/565 369/716/566
f 369/716/566 380/715/565 381/717/567
f 369/716/566 381/717/567 370/718/568
f 370/718/568 381/717/567 382/719/569
f 370/718/568 382/719/569 371/720/570
f 371/720/570 382/719/569 383/721/571
f 371/720/570 383/721/571 372/722/572
f 372/722/572 383/721/571 384/723/573
f 372/813/572 384/812/573 373/724/574
f 373/724/574 384/812/573 385/725/575
f 373/724/574 385/725/575 374/726/576
f 374/726/576 385/725/575 386/727/577
s 88
f 276/2/513 336/7/515 375/233/578
f 375/233/578 336/7/515 376/227/579
f 376/227/579 336/7/515 340/225/580
f 376/227/579 340/225/580 377/222/581
f 377/222/581 340/225/580 341/223/582
f 377/222/581 341/223/582 378/224/583
f 378/224/583 341/223/582 342/226/584
f 378/224/583 342/226/584 379/230/585
f 379/230/585 342/226/584 343/232/586
f 379/230/585 343/232/586 380/234/587
f 380/234/587 343/232/586 344/236/588
f 380/234/587 344/236/588 381/237/589
f 381/237/589 344/236/588 345/239/590
f 381/237/589 345/239/590 382/240/591
f 382/240/591 345/239/590 346/242/592
f 382/240/591 346/242/592 383/243/593
f 383/243/593 346/242/592 347/245/594
f 383/243/593 347/245/594 384/477/595
f 384/477/595 347/245/594 348/478/596
f 384/477/595 348/478/596 385/479/597
f 385/479/597 348/478/596 349/481/598
f 385/479/597 349/481/598 386/482/599
f 386/482/599 349/481/598 350/484/600
s 93
f 338/9/601 387/740/602 339/741/603
f 387/740/602 388/742/604 339/741/603
f 339/741/603 388/742/604 399/743/605
f 388/742/604 389/744/606 399/743/605
f 399/743/605 389/744/606 400/745/607
f 389/744/606 390/746/608 400/745/607
f 400/745/607 390/746/608 401/747/609
f 390/746/608 391/748/610 401/747/609
f 401/747/609 391/748/610 402/749/611
f 391/748/610 392/750/612 402/749/611
f 402/749/611 392/750/612 403/751/613
f 392/750/612 393/752/614 403/751/613
f 403/751/613 393/752/614 404/753/615
f 393/752/614 394/754/616 404/753/615
f 404/753/615 394/754/616 405/755/617
f 394/754/616 395/756/618 405/755/617
f 405/755/617 395/756/618 406/757/619
f 395/756/618 396/758/620 406/757/619
f 406/757/619 396/758/620 407/815/621
f 396/814/620 397/760/622 407/759/621
f 407/759/621 397/760/622 408/761/623
f 397/760/622 398/762/624 408/761/623
f 408/761/623 398/762/624 409/763/625
s 87
f 338/193/626 337/192/512 387/212/627
f 387/212/627 337/192/512 351/207/528
f 387/212/627 351/207/528 388/208/628
f 388/208/628 351/207/528 352/201/530
f 388/208/628 352/201/530 389/203/629
f 389/203/629 352/201/530 353/195/532
f 389/203/629 353/195/532 390/200/630
f 390/200/630 353/195/532 354/197/534
f 390/200/630 354/197/534 391/204/631
f 391/204/631 354/197/534 355/202/536
f 391/204/631 355/202/536 392/210/632
f 392/210/632 355/202/536 356/209/538
f 392/210/632 356/209/538 393/214/633
f 393/214/633 356/209/538 357/213/540
f 393/214/633 357/213/540 394/217/634
f 394/217/634 357/213/540 358/216/542
f 394/217/634 358/216/542 395/220/635
f 395/220/635 358/216/542 359/219/544
f 395/220/635 359/219/544 396/445/636
f 396/445/636 359/219/544 360/443/546
f 396/445/636 360/443/546 397/447/637
f 397/447/637 360/443/546 361/446/548
f 397/447/637 361/446/548 398/450/638
f 398/450/638 361/446/548 362/449/550
s 88
f 336/7/515 339/8/639 340/225/580
f 340/225/580 339/8/639 399/228/640
f 340/225/580 399/228/640 341/223/582
f 341/223/582 399/228/640 400/229/641
f 341/223/582 400/229/641 342/226/584
f 342/226/584 400/229/641 401/231/642
f 342/226/584 401/231/642 343/232/586
f 343/232/586 401/231/642 402/235/643
f 343/232/586 402/235/643 344/236/588
f 344/236/588 402/235/643 403/238/644
f 344/236/588 403/238/644 345/239/590
f 345/239/590 403/238/644 404/241/645
f 345/239/590 404/241/645 346/242/592
f 346/242/592 404/241/645 405/244/646
f 346/242/592 405/244/646 347/245/594
f 347/245/594 405/244/646 406/246/647
f 347/245/594 406/246/647 348/478/596
f 348/478/596 406/246/647 407/480/648
f 348/478/596 407/480/648 349/481/598
f 349/481/598 407/480/648 408/483/649
f 349/481/598 408/483/649 350/484/600
f 350/484/600 408/483/649 409/486/650
s 94
f 362/449/651 374/451/652 411/452/653
f 411/452/653 374/451/652 412/454/654
s 95
f 374/726/655 386/727/656 412/728/657
f 412/728/657 386/727/656 413/729/658
s 96
f 386/482/659 350/484/660 413/485/661
f 413/485/661 350/484/660 410/487/662
s 97
f 398/762/663 414/764/664 409/763/665
f 409/763/665 414/764/664 415/765/666
s 98
f 398/450/667 362/449/668 414/453/669
f 414/453/669 362/449/668 411/452/670
s 99
f 350/484/671 409/486/672 410/487/673
f 410/487/673 409/486/672 415/489/674
s 100
f 411/452/675 412/454/676 417/455/677
f 417/455/677 412/454/676 418/457/678
s 101
f 412/728/679 413/729/680 418/730/681
f 418/730/681 413/729/680 419/731/682
s 102
f 413/485/683 410/487/684 419/488/685
f 419/488/685 410/487/684 416/490/686
s 103
f 414/764/687 420/766/688 415/765/689
f 415/765/689 420/766/688 421/767/690
s 104
f 414/453/691 411/452/692 420/456/693
f 420/456/693 411/452/692 417/455/694
s 105
f 410/487/695 415/489/696 416/490/697
f 416/490/697 415/489/696 421/492/698
s 106
f 417/455/699 418/457/700 423/458/701
f 423/458/701 418/457/700 424/460/702
s 107
f 418/730/703 419/731/704 424/732/705
f 424/732/705 419/731/704 425/733/706
s 108
f 419/488/707 416/490/708 425/491/709
f 425/491/709 416/490/708 422/493/710
s 109
f 420/766/711 426/768/712 421/767/713
f 421/767/713 426/768/712 427/769/714
s 106
f 420/456/715 417/455/716 426/459/717
f 426/459/717 417/455/716 423/458/701
s 108
f 416/490/718 421/492/719 422/493/710
f 422/493/710 421/492/719 427/495/720
s 82
f 424/732/721 425/733/722 444/734/723
f 444/734/723 425/733/722 449/735/724
f 426/768/725 454/770/726 427/769/727
f 427/769/727 454/770/726 456/771/728
f 431/249/729 437/251/730 432/253/471
f 432/253/471 437/251/730 436/255/472
f 430/247/731 438/811/732 431/249/729
f 431/249/729 438/811/732 437/251/730
f 430/810/731 429/250/733 438/248/732
f 438/248/732 429/250/733 439/252/734
f 429/250/733 428/254/509 439/252/734
f 439/252/734 428/254/509 434/256/507
f 442/263/735 446/261/736 443/259/474
f 443/259/474 446/261/736 445/257/473
f 441/738/737 447/739/738 442/263/735
f 442/263/735 447/739/738 446/261/736
f 440/736/739 448/737/740 441/738/737
f 441/738/737 448/737/740 447/739/738
f 444/734/723 449/735/724 440/736/739
f 440/736/739 449/735/724 448/737/740
f 454/770/726 453/772/741 456/771/728
f 456/771/728 453/772/741 457/773/742
f 453/772/741 452/774/743 457/773/742
f 457/773/742 452/774/743 458/775/744
f 452/774/743 451/264/745 458/775/744
f 458/775/744 451/264/745 459/262/746
f 451/264/745 450/260/506 459/262/746
f 459/262/746 450/260/506 455/258/508
s 108
f 433/506/747 428/507/748 429/510/749
f 433/506/747 429/510/749 430/509/750
f 433/506/747 430/509/750 431/508/751
f 433/506/747 431/508/751 432/504/752
s 106
f 435/473/753 436/471/754 437/474/755
f 435/473/753 437/474/755 438/476/756
f 435/473/753 438/476/756 439/475/757
f 435/473/753 439/475/757 434/472/758
f 435/473/753 423/458/701 436/471/754
f 436/471/754 423/458/701 443/469/759
f 424/460/702 444/461/760 423/458/701
f 443/469/759 423/458/701 442/467/761
f 442/467/761 423/458/701 441/465/762
f 441/465/762 423/458/701 440/463/763
f 440/463/763 423/458/701 444/461/760
s 108
f 433/506/747 432/504/752 422/493/710
f 432/504/752 445/502/764 422/493/710
f 425/491/709 422/493/710 449/494/765
f 445/502/764 446/500/766 422/493/710
f 446/500/766 447/498/767 422/493/710
f 447/498/767 448/496/768 422/493/710
f 422/493/710 448/496/768 449/494/765
s 106
f 435/473/753 434/472/758 423/458/701
f 434/472/758 450/470/769 423/458/701
f 426/459/717 423/458/701 454/462/770
f 450/470/769 451/468/771 423/458/701
f 451/468/771 452/466/772 423/458/701
f 452/466/772 453/464/773 423/458/701
f 423/458/701 453/464/773 454/462/770
s 108
f 433/506/747 422/493/710 428/507/748
f 428/507/748 422/493/710 455/505/774
f 427/495/720 456/497/775 422/493/710
f 455/505/774 422/493/710 459/503/776
f 459/503/776 422/493/710 458/501/777
f 458/501/777 422/493/710 457/499/778
f 422/493/710 456/497/775 457/499/778
s 121
f 460/265/779 461/266/780 480/267/781
f 480/267/781 461/266/780 481/268/782
f 461/266/780 462/270/783 481/268/782
f 481/268/782 462/270/783 482/272/784
f 462/776/783 463/777/785 482/778/784
f 482/778/784 463/777/785 483/779/786
f 463/777/785 464/780/787 483/779/786
f 483/779/786 464/780/787 484/781/788
f 464/780/787 465/782/789 484/781/788
f 484/781/788 465/782/789 485/783/790
f 465/782/789 466/285/791 485/783/790
f 485/783/790 466/285/791 486/283/792
f 466/285/791 467/279/793 486/283/792
f 486/283/792 467/279/793 487/281/794
f 467/279/793 468/280/795 487/281/794
f 487/281/794 468/280/795 488/282/796
f 468/280/795 469/284/797 488/282/796
f 488/282/796 469/284/797 489/286/798
f 469/284/797 470/287/799 489/286/798
f 489/286/798 470/287/799 490/288/800
f 470/287/799 471/289/801 490/288/800
f 490/288/800 471/289/801 491/290/802
f 471/289/801 472/291/803 491/290/802
f 491/290/802 472/291/803 492/292/804
f 472/291/803 473/784/805 492/292/804
f 492/292/804 473/784/805 493/785/806
f 473/784/805 474/786/807 493/785/806
f 493/785/806 474/786/807 494/787/808
f 474/786/807 475/788/809 494/787/808
f 494/787/808 475/788/809 495/789/810
f 475/788/809 476/278/811 495/789/810
f 495/789/810 476/278/811 496/277/812
f 476/278/811 477/276/813 496/277/812
f 496/277/812 477/276/813 497/275/814
f 477/276/813 478/274/815 497/275/814
f 497/275/814 478/274/815 498/273/816
f 478/274/815 479/271/817 498/273/816
f 498/273/816 479/271/817 499/269/818
f 479/271/817 460/265/779 499/269/818
f 499/269/818 460/265/779 480/267/781
s 122
f 480/511/819 481/512/820 500/513/821
f 500/513/821 481/512/820 501/514/822
f 481/512/820 482/516/823 501/514/822
f 501/514/822 482/516/823 502/519/824
f 482/516/823 483/521/825 502/519/824
f 502/519/824 483/521/825 503/522/826
f 483/521/825 484/527/827 503/522/826
f 503/522/826 484/527/827 504/525/828
f 484/527/827 485/531/829 504/525/828
f 504/525/828 485/531/829 505/528/830
f 485/531/829 486/535/831 505/528/830
f 505/528/830 486/535/831 506/532/832
f 486/535/831 487/539/833 506/532/832
f 506/532/832 487/539/833 507/536/834
f 487/539/833 488/543/835 507/536/834
f 507/536/834 488/543/835 508/540/836
f 488/543/835 489/547/837 508/540/836
f 508/540/836 489/547/837 509/544/838
f 489/547/837 490/550/839 509/544/838
f 509/544/838 490/550/839 510/548/840
f 490/550/839 491/551/841 510/548/840
f 510/548/840 491/551/841 511/546/842
f 491/551/841 492/549/843 511/546/842
f 511/546/842 492/549/843 512/542/844
f 492/549/843 493/545/845 512/542/844
f 512/542/844 493/545/845 513/538/846
f 493/545/845 494/541/847 513/538/846
f 513/538/846 494/541/847 514/534/848
f 494/541/847 495/537/849 514/534/848
f 514/534/848 495/537/849 515/530/850
f 495/537/849 496/533/851 515/530/850
f 515/530/850 496/533/851 516/526/852
f 496/533/851 497/529/853 516/526/852
f 516/526/852 497/529/853 517/524/854
f 497/529/853 498/523/855 517/524/854
f 517/524/854 498/523/855 518/520/856
f 498/523/855 499/518/857 518/520/856
f 518/520/856 499/518/857 519/515/858
f 499/518/857 480/511/819 519/515/858
f 519/515/858 480/511/819 500/513/821
f 500/513/821 501/514/822 520/517/859
f 501/514/822 502/519/824 520/517/859
f 502/519/824 503/522/826 520/517/859
f 503/522/826 504/525/828 520/517/859
f 504/525/828 505/528/830 520/517/859
f 505/528/830 506/532/832 520/517/859
f 506/532/832 507/536/834 520/517/859
f 507/536/834 508/540/836 520/517/859
f 508/540/836 509/544/838 520/517/859
f 509/544/838 510/548/840 520/517/859
f 510/548/840 511/546/842 520/517/859
f 511/546/842 512/542/844 520/517/859
f 512/542/844 513/538/846 520/517/859
f 513/538/846 514/534/848 520/517/859
f 514/534/848 515/530/850 520/517/859
f 515/530/850 516/526/852 520/517/859
f 516/526/852 517/524/854 520/517/859
f 517/524/854 518/520/856 520/517/859
f 518/520/856 519/515/858 520/517/859
f 519/515/858 500/513/821 520/517/859
