# This file uses meters as units for non-parametric coordinates.

mtllib Knife.mtl
g default
v -0.228645 5.638298 0.092875
v 0.240952 5.638298 0.092875
v 0.207318 22.642231 0.004485
v 0.240952 22.642231 0.008604
v 0.207318 22.642231 -0.004485
v 0.240952 22.642231 -0.008604
v -0.228645 5.638298 -0.092875
v 0.240952 5.638298 -0.092875
v -0.228645 10.329472 0.092875
v -0.228645 10.329471 -0.092875
v 0.240952 10.329471 -0.092875
v 0.240952 10.329472 0.092875
v -1.341774 13.847852 -0.004485
v -1.341774 13.847852 0.004485
v 0.240952 13.847852 0.092875
v 0.240952 13.847852 -0.092875
v -1.408609 12.088661 0.092875
v -1.408608 12.088661 -0.092875
v 0.241242 12.088661 -0.092875
v 0.241243 12.088661 0.092875
v -0.337842 11.209066 0.092875
v -0.337842 11.209066 -0.092875
v 0.242153 11.209066 -0.092875
v 0.242153 11.209066 0.092875
v -1.381701 12.968257 -0.004485
v -1.381701 12.968257 0.004485
v 0.240952 12.968257 0.092875
v 0.240952 12.968257 -0.092875
v -0.236748 10.769269 0.092875
v -0.236748 10.769269 -0.092875
v 0.239762 10.769269 -0.092875
v 0.239762 10.769269 0.092875
v -0.663236 11.648864 -0.092875
v -0.663236 11.648864 0.092875
v 0.241171 11.648864 0.092875
v 0.241171 11.648864 -0.092875
v -1.399447 12.528460 0.004485
v -1.399447 12.528460 -0.004485
v 0.240952 12.528460 -0.092875
v 0.240952 12.528460 0.092875
v -0.966076 18.245041 -0.004485
v -0.966076 18.245041 0.004485
v 0.240952 18.245041 0.078427
v 0.240952 18.245041 -0.078427
v -0.541503 20.443638 -0.004485
v -0.541503 20.443638 0.004485
v 0.240952 20.443638 0.058545
v 0.240952 20.443638 -0.058545
v -1.204192 16.046448 0.004485
v -1.204192 16.046448 -0.004485
v 0.240952 16.046448 -0.092875
v 0.240952 16.046448 0.092875
v -1.100807 17.145744 -0.004485
v -1.100807 17.145744 0.004485
v 0.240952 17.145744 0.085651
v 0.240952 17.145744 -0.085651
v -0.784374 19.344339 0.004485
v -0.784374 19.344339 -0.004485
v 0.240952 19.344339 -0.069197
v 0.240952 19.344339 0.069197
v -0.213775 21.542934 -0.004485
v -0.213775 21.542934 0.004485
v 0.240952 21.542934 0.043789
v 0.240952 21.542934 -0.043789
v -1.277660 14.947149 0.004485
v -1.277660 14.947149 -0.004485
v 0.240952 14.947149 -0.092875
v 0.240952 14.947149 0.092875
v -0.909285 11.824782 -0.092875
v -0.909285 11.824783 0.092875
v 0.241200 11.824783 0.092875
v 0.241200 11.824782 -0.092875
v -0.425813 11.428966 0.092875
v -0.425813 11.428965 -0.092875
v 0.241662 11.428965 -0.092875
v 0.241662 11.428966 0.092875
v -0.264966 10.989167 -0.092875
v -0.264966 10.989167 0.092875
v 0.240958 10.989167 0.092875
v 0.240958 10.989167 -0.092875
v -1.404028 12.308560 0.004485
v -1.404027 12.308560 -0.004485
v 0.241097 12.308560 -0.092875
v 0.241098 12.308560 0.092875
v 0.006154 5.638298 0.092875
v 0.006154 10.329472 0.092875
v 0.001507 10.769269 0.092875
v -0.012004 10.989167 0.092875
v -0.047844 11.209066 0.092875
v -0.092075 11.428966 0.092875
v -0.211033 11.648864 0.092875
v -0.334043 11.824783 0.092875
v -0.583683 12.088661 0.092875
v -0.581465 12.308560 0.037445
v -0.579247 12.528460 0.037445
v -0.570375 12.968257 0.037445
v -0.550411 13.847852 0.037445
v -0.518354 14.947149 0.037445
v -0.481620 16.046448 0.037445
v -0.429927 17.145744 0.037445
v -0.362562 18.245041 0.037445
v -0.271711 19.344339 0.037445
v -0.150276 20.443638 0.037445
v 0.013588 21.542934 0.037445
v 0.224135 22.642231 0.007489
v 0.224135 22.642231 -0.007489
v 0.013588 21.542934 -0.037445
v -0.150276 20.443638 -0.037445
v -0.271711 19.344339 -0.037445
v -0.362562 18.245041 -0.037445
v -0.429927 17.145744 -0.037445
v -0.481620 16.046448 -0.037445
v -0.518354 14.947149 -0.037445
v -0.550411 13.847852 -0.037445
v -0.570375 12.968257 -0.037445
v -0.579247 12.528460 -0.037445
v -0.581465 12.308560 -0.037445
v -0.583683 12.088661 -0.092875
v -0.334043 11.824782 -0.092875
v -0.211033 11.648864 -0.092875
v -0.092075 11.428965 -0.092875
v -0.047844 11.209066 -0.092875
v -0.012004 10.989167 -0.092875
v 0.001507 10.769269 -0.092875
v 0.006154 10.329471 -0.092875
v 0.006154 5.638298 -0.092875
v 0.123553 10.329472 0.092875
v 0.123553 5.638298 0.092875
v 0.123553 5.638298 -0.092875
v 0.123553 10.329471 -0.092875
v 0.120635 10.769269 -0.092875
v 0.114477 10.989167 -0.092875
v 0.097155 11.209066 -0.092875
v 0.074794 11.428965 -0.092875
v 0.015069 11.648864 -0.092875
v -0.046421 11.824782 -0.092875
v -0.171220 12.088661 -0.092875
v -0.170184 12.308560 -0.066079
v -0.169147 12.528460 -0.066079
v -0.164711 12.968257 -0.066079
v -0.154729 13.847852 -0.066079
v -0.138701 14.947149 -0.066079
v -0.120334 16.046448 -0.066079
v -0.094488 17.145744 -0.066079
v -0.060805 18.245041 -0.066079
v -0.015379 19.344339 -0.062408
v 0.045338 20.443638 -0.054331
v 0.127270 21.542934 -0.041850
v 0.232544 22.642231 -0.008223
v 0.232544 22.642231 0.008223
v 0.127270 21.542934 0.041850
v 0.045338 20.443638 0.054331
v -0.015379 19.344339 0.062408
v -0.060805 18.245041 0.066079
v -0.094488 17.145744 0.066079
v -0.120334 16.046448 0.066079
v -0.138701 14.947149 0.066079
v -0.154729 13.847852 0.066079
v -0.164711 12.968257 0.066079
v -0.169147 12.528460 0.066079
v -0.170184 12.308560 0.066079
v -0.171220 12.088661 0.092875
v -0.046421 11.824783 0.092875
v 0.015069 11.648864 0.092875
v 0.074794 11.428966 0.092875
v 0.097155 11.209066 0.092875
v 0.114477 10.989167 0.092875
v 0.120635 10.769269 0.092875
v -0.111245 5.638298 0.092875
v -0.111245 10.329472 0.092875
v -0.117620 10.769269 0.092875
v -0.138485 10.989167 0.092875
v -0.192843 11.209066 0.092875
v -0.258944 11.428966 0.092875
v -0.437134 11.648864 0.092875
v -0.621664 11.824783 0.092875
v -0.996146 12.088661 0.092875
v -0.992746 12.308560 0.016642
v -0.989347 12.528460 0.016642
v -0.976038 12.968257 0.016642
v -0.946092 13.847852 0.016642
v -0.898007 14.947149 0.016642
v -0.842906 16.046448 0.016642
v -0.765367 17.145744 0.016642
v -0.664319 18.245041 0.016642
v -0.528042 19.344339 0.016642
v -0.345890 20.443638 0.016642
v -0.100093 21.542934 0.016642
v 0.215727 22.642231 0.006657
v 0.215727 22.642231 -0.006657
v -0.100093 21.542934 -0.016642
v -0.345890 20.443638 -0.016642
v -0.528042 19.344339 -0.016642
v -0.664319 18.245041 -0.016642
v -0.765367 17.145744 -0.016642
v -0.842906 16.046448 -0.016642
v -0.898007 14.947149 -0.016642
v -0.946092 13.847852 -0.016642
v -0.976038 12.968257 -0.016642
v -0.989347 12.528460 -0.016642
v -0.992746 12.308560 -0.016642
v -0.996145 12.088661 -0.092875
v -0.621664 11.824782 -0.092875
v -0.437134 11.648864 -0.092875
v -0.258944 11.428965 -0.092875
v -0.192843 11.209066 -0.092875
v -0.138485 10.989167 -0.092875
v -0.117620 10.769269 -0.092875
v -0.111245 10.329471 -0.092875
v -0.111245 5.638298 -0.092875
v -1.361738 13.408054 -0.004485
v -1.361738 13.408054 0.004485
v -0.961065 13.408054 0.016642
v -0.560393 13.408054 0.037445
v -0.159720 13.408054 0.066079
v 0.240952 13.408054 0.092875
v 0.240952 13.408054 -0.092875
v -0.159720 13.408054 -0.066079
v -0.560393 13.408054 -0.037445
v -0.961065 13.408054 -0.016642
v -1.309717 14.397501 0.004485
v -1.309717 14.397501 -0.004485
v -0.922050 14.397501 -0.016642
v -0.534382 14.397501 -0.037445
v -0.146715 14.397501 -0.066079
v 0.240952 14.397501 -0.092875
v 0.240952 14.397501 0.092875
v -0.146715 14.397501 0.066079
v -0.534382 14.397501 0.037445
v -0.922050 14.397501 0.016642
v -1.240926 15.496799 -0.004485
v -1.240926 15.496799 0.004485
v -0.870456 15.496799 0.016642
v -0.499987 15.496799 0.037445
v -0.129517 15.496799 0.066079
v 0.240952 15.496799 0.092875
v 0.240952 15.496799 -0.092875
v -0.129517 15.496799 -0.066079
v -0.499987 15.496799 -0.037445
v -0.870456 15.496799 -0.016642
v -1.152499 16.596096 0.004485
v -1.152499 16.596096 -0.004485
v -0.804136 16.596096 -0.016642
v -0.455774 16.596096 -0.037445
v -0.107411 16.596096 -0.066079
v 0.240952 16.596096 -0.089263
v 0.240952 16.596096 0.089263
v -0.107411 16.596096 0.066079
v -0.455774 16.596096 0.037445
v -0.804136 16.596096 0.016642
v -1.033441 17.695393 -0.004485
v -1.033441 17.695393 0.004485
v -0.714843 17.695393 0.016642
v -0.396245 17.695393 0.037445
v -0.077646 17.695393 0.066079
v 0.240952 17.695393 0.082039
v 0.240952 17.695393 -0.082039
v -0.077646 17.695393 -0.066079
v -0.396245 17.695393 -0.037445
v -0.714843 17.695393 -0.016642
v -0.875225 18.794691 0.004485
v -0.875225 18.794691 -0.004485
v -0.596181 18.794691 -0.016642
v -0.317136 18.794691 -0.037445
v -0.038092 18.794691 -0.064243
v 0.240952 18.794691 -0.073812
v 0.240952 18.794691 0.073812
v -0.038092 18.794691 0.064243
v -0.317136 18.794691 0.037445
v -0.596181 18.794691 0.016642
v -0.662939 19.893988 -0.004485
v -0.662939 19.893988 0.004485
v -0.436966 19.893988 0.016642
v -0.210993 19.893988 0.037445
v 0.014979 19.893988 0.058369
v 0.240952 19.893988 0.063871
v 0.240952 19.893988 -0.063871
v 0.014979 19.893988 -0.058369
v -0.210993 19.893988 -0.037445
v -0.436966 19.893988 -0.016642
v -0.377639 20.993286 0.004485
v -0.377639 20.993286 -0.004485
v -0.222991 20.993286 -0.016642
v -0.068344 20.993286 -0.037445
v 0.086304 20.993286 -0.048091
v 0.240952 20.993286 -0.051167
v 0.240952 20.993286 0.051167
v 0.086304 20.993286 0.048091
v -0.068344 20.993286 0.037445
v -0.222991 20.993286 0.016642
v -0.003228 22.092583 -0.004485
v -0.003228 22.092583 0.004485
v 0.057817 22.092583 0.011649
v 0.118862 22.092583 0.022467
v 0.179907 22.092583 0.025036
v 0.240952 22.092583 0.026196
v 0.240952 22.092583 -0.026196
v 0.179907 22.092583 -0.025036
v 0.118862 22.092583 -0.022467
v 0.057817 22.092583 -0.011649
v -0.232696 10.549370 0.092875
v -0.232696 10.549370 -0.092875
v -0.114433 10.549370 -0.092875
v 0.003830 10.549370 -0.092875
v 0.122094 10.549370 -0.092875
v 0.240357 10.549370 -0.092875
v 0.240357 10.549370 0.092875
v 0.122094 10.549370 0.092875
v 0.003830 10.549370 0.092875
v -0.114433 10.549370 0.092875
v 0.283787 0.000000 0.674613
v 0.533344 0.000000 0.549950
v 0.718573 0.000000 0.358954
v 0.817131 0.000000 0.124664
v 0.817132 0.000000 -0.124663
v 0.718573 0.000000 -0.358954
v 0.533345 0.000000 -0.549949
v 0.283787 0.000000 -0.674613
v 0.000000 0.000000 -0.717908
v -0.283787 0.000000 -0.674613
v -0.533345 0.000000 -0.549949
v -0.718573 0.000000 -0.358954
v -0.817131 0.000000 -0.124663
v -0.817132 0.000000 0.124663
v -0.718573 0.000000 0.358954
v -0.533345 0.000000 0.549949
v -0.283787 0.000000 0.674613
v 0.000000 0.000000 0.717908
v 0.000000 0.000000 0.000000
v 0.551634 3.341734 1.311336
v 0.000000 3.341734 1.395494
v -0.551635 3.341734 1.311336
v -1.036734 3.341734 1.069010
v -1.396788 3.341734 0.697747
v -1.588369 3.341734 0.242325
v -1.588369 3.341734 -0.242325
v -1.396788 3.341734 -0.697747
v -1.036734 3.341734 -1.069011
v -0.551634 3.341734 -1.311336
v 0.000000 3.341734 -1.395494
v 0.551635 3.341734 -1.311336
v 1.036734 3.341734 -1.069010
v 1.396788 3.341734 -0.697747
v 1.588369 3.341734 -0.242325
v 1.588369 3.341734 0.242325
v 1.396788 3.341734 0.697747
v 1.036734 3.341734 1.069011
v 0.571543 1.142270 1.358664
v 0.000000 1.142270 1.445859
v -0.571544 1.142270 1.358663
v -1.074151 1.142270 1.107593
v -1.447200 1.142270 0.722929
v -1.645695 1.142270 0.251070
v -1.645695 1.142270 -0.251071
v -1.447200 1.142270 -0.722930
v -1.074151 1.142270 -1.107593
v -0.571544 1.142270 -1.358664
v 0.000000 1.142270 -1.445859
v 0.571544 1.142270 -1.358663
v 1.074152 1.142270 -1.107592
v 1.447200 1.142270 -0.722929
v 1.645695 1.142270 -0.251070
v 1.645695 1.142270 0.251071
v 1.447200 1.142270 0.722930
v 1.074151 1.142270 1.107593
v 0.445115 6.584481 1.058119
v 0.000000 6.584481 1.126027
v -0.445115 6.584481 1.058119
v -0.836543 6.584481 0.862587
v -1.127071 6.584481 0.563014
v -1.281658 6.584481 0.195532
v -1.281658 6.584481 -0.195533
v -1.127071 6.584481 -0.563014
v -0.836543 6.584481 -0.862587
v -0.445115 6.584481 -1.058119
v 0.000000 6.584481 -1.126027
v 0.445115 6.584481 -1.058119
v 0.836543 6.584481 -0.862586
v 1.127071 6.584481 -0.563013
v 1.281658 6.584481 -0.195532
v 1.281658 6.584481 0.195533
v 1.127071 6.584481 0.563014
v 0.836542 6.584481 0.862587
v 0.465031 0.511511 1.105463
v 0.000000 0.511511 1.176409
v -0.465031 0.511511 1.105463
v -0.873973 0.511511 0.901182
v -1.177500 0.511511 0.588205
v -1.339004 0.511511 0.204281
v -1.339004 0.511511 -0.204282
v -1.177500 0.511511 -0.588205
v -0.873972 0.511511 -0.901182
v -0.465031 0.511511 -1.105463
v 0.000000 0.511511 -1.176409
v 0.465031 0.511511 -1.105463
v 0.873973 0.511511 -0.901182
v 1.177500 0.511511 -0.588204
v 1.339004 0.511511 -0.204281
v 1.339004 0.511511 0.204282
v 1.177500 0.511511 0.588205
v 0.873972 0.511511 0.901182
v 0.610754 2.089258 1.451876
v 0.000000 2.089258 1.545054
v -0.610755 2.089258 1.451876
v -1.147844 2.089258 1.183580
v -1.546486 2.089258 0.772527
v -1.758599 2.089258 0.268296
v -1.758599 2.089258 -0.268296
v -1.546486 2.089258 -0.772527
v -1.147844 2.089258 -1.183580
v -0.610755 2.089258 -1.451876
v 0.000000 2.089258 -1.545054
v 0.610755 2.089258 -1.451875
v 1.147844 2.089258 -1.183579
v 1.546486 2.089258 -0.772527
v 1.758599 2.089258 -0.268295
v 1.758599 2.089258 0.268296
v 1.546486 2.089258 0.772527
v 1.147844 2.089258 1.183580
v 0.465031 5.245657 1.105463
v 0.000000 5.245657 1.176409
v -0.465031 5.245657 1.105463
v -0.873973 5.245657 0.901182
v -1.177500 5.245657 0.588205
v -1.339004 5.245657 0.204281
v -1.339004 5.245657 -0.204282
v -1.177500 5.245657 -0.588205
v -0.873972 5.245657 -0.901182
v -0.465031 5.245657 -1.105463
v 0.000000 5.245657 -1.176409
v 0.465031 5.245657 -1.105463
v 0.873973 5.245657 -0.901182
v 1.177500 5.245657 -0.588204
v 1.339004 5.245657 -0.204281
v 1.339004 5.245657 0.204282
v 1.177500 5.245657 0.588205
v 0.873972 5.245657 0.901182
v 0.426077 8.030064 1.012864
v 0.000000 8.030064 1.077867
v -0.426078 8.030064 1.012864
v -0.800764 8.030064 0.825694
v -1.078867 8.030064 0.538934
v -1.226842 8.030064 0.187170
v -1.226842 8.030064 -0.187170
v -1.078867 8.030064 -0.538934
v -0.800764 8.030064 -0.825694
v -0.426077 8.030064 -1.012864
v 0.000000 8.030064 -1.077867
v 0.426078 8.030064 -1.012864
v 0.800764 8.030064 -0.825694
v 1.078867 8.030064 -0.538934
v 1.226842 8.030064 -0.187169
v 1.226842 8.030064 0.187170
v 1.078866 8.030064 0.538934
v 0.800764 8.030064 0.825695
v 0.426077 8.977228 1.012864
v 0.000000 8.977228 1.077867
v -0.426078 8.977228 1.012864
v -0.800764 8.977228 0.825694
v -1.078867 8.977228 0.538934
v -1.226842 8.977228 0.187170
v -1.226842 8.977228 -0.187170
v -1.078867 8.977228 -0.538934
v -0.800764 8.977228 -0.825694
v -0.426077 8.977228 -1.012864
v 0.000000 8.977228 -1.077867
v 0.426078 8.977228 -1.012864
v 0.800764 8.977228 -0.825694
v 1.078867 8.977228 -0.538934
v 1.226842 8.977228 -0.187169
v 1.226842 8.977228 0.187170
v 1.078866 8.977228 0.538934
v 0.800764 8.977228 0.825695
v 0.446609 9.991434 1.077551
v 0.840941 9.991434 0.880568
v 0.000000 9.991434 0.000000
v 1.135775 9.991434 0.576555
v 1.293885 9.991434 0.200698
v 1.293886 9.991434 -0.200697
v 1.135775 9.991434 -0.576555
v 0.840942 9.991434 -0.880567
v 0.446609 9.991434 -1.077551
v 0.000000 9.991434 -1.145687
v -0.446609 9.991434 -1.077551
v -0.840941 9.991434 -0.880568
v -1.135775 9.991434 -0.576555
v -1.293886 9.991434 -0.200697
v -1.293886 9.991434 0.200697
v -1.135775 9.991434 0.576555
v -0.840941 9.991434 0.880567
v -0.446609 9.991434 1.077551
v 0.000000 9.991434 1.145687
v 0.446609 8.977228 1.077551
v 0.000000 8.977228 1.145687
v -0.446609 8.977228 1.077551
v -0.840942 8.977228 0.880567
v -1.135775 8.977228 0.576555
v -1.293886 8.977228 0.200697
v -1.293886 8.977228 -0.200697
v -1.135775 8.977228 -0.576555
v -0.840941 8.977228 -0.880568
v -0.446609 8.977228 -1.077551
v 0.000000 8.977228 -1.145687
v 0.446609 8.977228 -1.077551
v 0.840942 8.977228 -0.880567
v 1.135775 8.977228 -0.576555
v 1.293886 8.977228 -0.200697
v 1.293885 8.977228 0.200698
v 1.135775 8.977228 0.576555
v 0.840941 8.977228 0.880568
vt 0.970850 0.407457
vt 0.977027 0.001886
vt 0.324131 0.950595
vt 0.991468 0.987483
vt 0.611022 0.862663
vt 0.958357 0.862445
vt 0.847808 0.393394
vt 0.875424 0.393486
vt 0.938929 0.849492
vt 0.966546 0.849488
vt 0.997252 0.011103
vt 0.992456 0.987483
vt 0.959926 0.407362
vt 0.981833 0.978969
vt 0.950167 0.277848
vt 0.957536 0.683239
vt 0.848728 0.117508
vt 0.876344 0.117600
vt 0.997264 0.280473
vt 0.977784 0.277772
vt 0.981774 0.485844
vt 0.093727 0.771980
vt 0.982266 0.485844
vt 0.841370 0.955364
vt 0.093766 0.865217
vt 0.997273 0.482502
vt 0.967277 0.819822
vt 0.956353 0.819727
vt 0.779646 0.013945
vt 0.876716 0.014164
vt 0.997268 0.381488
vt 0.978094 0.381209
vt 0.943888 0.329595
vt 0.957081 0.735768
vt 0.842480 0.065758
vt 0.876587 0.065873
vt 0.997266 0.330981
vt 0.977995 0.329500
vt 0.981768 0.437486
vt 0.041997 0.769657
vt 0.982260 0.437486
vt 0.893099 0.955607
vt 0.042038 0.865238
vt 0.997271 0.431995
vt 0.949761 0.303714
vt 0.957312 0.709107
vt 0.848338 0.091642
vt 0.876361 0.091736
vt 0.997265 0.305727
vt 0.977784 0.303637
vt 0.956795 0.768727
vt 0.823439 0.039840
vt 0.924832 0.355502
vt 0.978007 0.355359
vt 0.876614 0.040014
vt 0.997267 0.356235
vt 0.919418 0.859106
vt 0.981765 0.413313
vt 0.016132 0.768625
vt 0.016173 0.865249
vt 0.997270 0.406742
vt 0.918963 0.955728
vt 0.981803 0.728295
vt 0.352336 0.793931
vt 0.583109 0.882972
vt 0.582774 0.954107
vt 0.352366 0.865067
vt 0.996455 0.734993
vt 0.981818 0.851318
vt 0.481655 0.818798
vt 0.982310 0.851318
vt 0.453471 0.953433
vt 0.481670 0.864947
vt 0.995319 0.861238
vt 0.712473 0.869600
vt 0.981788 0.606829
vt 0.223029 0.780006
vt 0.223065 0.865167
vt 0.997279 0.608748
vt 0.712073 0.954760
vt 0.981796 0.667469
vt 0.287682 0.786049
vt 0.982288 0.667469
vt 0.647424 0.954431
vt 0.287715 0.865114
vt 0.996867 0.671870
vt 0.982303 0.789488
vt 0.981810 0.789488
vt 0.416993 0.804571
vt 0.417018 0.865013
vt 0.995928 0.798115
vt 0.518123 0.953776
vt 0.981825 0.914318
vt 0.546333 0.837981
vt 0.982318 0.914317
vt 0.388814 0.953085
vt 0.546329 0.864876
vt 0.994474 0.924360
vt 0.982274 0.546320
vt 0.981781 0.546320
vt 0.158378 0.775718
vt 0.158416 0.865192
vt 0.997276 0.545625
vt 0.776722 0.955062
vt 0.956641 0.786515
vt 0.808995 0.029479
vt 0.910382 0.365854
vt 0.978039 0.365700
vt 0.876652 0.029673
vt 0.997268 0.366336
vt 0.938753 0.342540
vt 0.956960 0.749696
vt 0.837352 0.052809
vt 0.876600 0.052942
vt 0.997267 0.343608
vt 0.978001 0.342431
vt 0.957199 0.722145
vt 0.846722 0.078705
vt 0.948138 0.316651
vt 0.977890 0.316569
vt 0.876474 0.078804
vt 0.997266 0.318354
vt 0.982256 0.401233
vt 0.981763 0.401234
vt 0.779922 0.000009
vt 0.876772 0.001238
vt 0.997269 0.394115
vt 0.931895 0.955797
vt 0.963218 0.001924
vt 0.952738 0.849490
vt 0.963975 0.277810
vt 0.963773 0.303675
vt 0.963014 0.316610
vt 0.960941 0.329548
vt 0.958375 0.342488
vt 0.951415 0.355441
vt 0.944207 0.365809
vt 0.929551 0.381366
vt 0.932122 0.907313
vt 0.919190 0.907383
vt 0.893323 0.907782
vt 0.841589 0.908711
vt 0.776931 0.910289
vt 0.712271 0.912141
vt 0.647608 0.914872
vt 0.582940 0.918521
vt 0.518264 0.923550
vt 0.453580 0.930380
vt 0.388892 0.939710
vt 0.324132 0.951603
vt 0.957368 0.862379
vt 0.546307 0.851501
vt 0.481660 0.841893
vt 0.417006 0.834787
vt 0.352353 0.829481
vt 0.287701 0.825554
vt 0.223049 0.822547
vt 0.158398 0.820418
vt 0.093748 0.818563
vt 0.042018 0.817413
vt 0.016153 0.816903
vt 0.003221 0.816778
vt 0.828174 0.013978
vt 0.842820 0.029543
vt 0.850021 0.039916
vt 0.856974 0.052873
vt 0.859533 0.065815
vt 0.861598 0.078754
vt 0.862349 0.091689
vt 0.862536 0.117554
vt 0.861616 0.393440
vt 0.970879 0.277791
vt 0.970123 0.001905
vt 0.959642 0.849489
vt 0.868520 0.393463
vt 0.869440 0.117577
vt 0.869355 0.091712
vt 0.869036 0.078779
vt 0.868059 0.065844
vt 0.866787 0.052908
vt 0.863317 0.039964
vt 0.859735 0.029604
vt 0.852451 0.014055
vt 0.003231 0.841024
vt 0.016163 0.841080
vt 0.042028 0.841329
vt 0.093757 0.841894
vt 0.158407 0.842809
vt 0.223057 0.843861
vt 0.287707 0.845353
vt 0.352357 0.847306
vt 0.417007 0.849933
vt 0.481660 0.853440
vt 0.546316 0.858190
vt 0.957863 0.862422
vt 0.957863 0.861455
vt 0.388855 0.946399
vt 0.453530 0.941927
vt 0.518198 0.938696
vt 0.582859 0.936346
vt 0.647516 0.934670
vt 0.712173 0.933455
vt 0.776827 0.932679
vt 0.841480 0.932041
vt 0.893211 0.931698
vt 0.919076 0.931559
vt 0.953912 0.394332
vt 0.953829 0.381304
vt 0.961122 0.365758
vt 0.964710 0.355401
vt 0.968188 0.342459
vt 0.969468 0.329524
vt 0.970452 0.316589
vt 0.970779 0.303656
vt 0.956314 0.001943
vt 0.945834 0.849491
vt 0.957071 0.277829
vt 0.956767 0.303695
vt 0.955576 0.316630
vt 0.952415 0.329572
vt 0.948564 0.342515
vt 0.938121 0.355475
vt 0.927295 0.365845
vt 0.905282 0.381372
vt 0.905484 0.395056
vt 0.919303 0.883234
vt 0.893435 0.883894
vt 0.841699 0.885409
vt 0.777036 0.887928
vt 0.712372 0.890859
vt 0.647701 0.895106
vt 0.583023 0.900733
vt 0.518333 0.908426
vt 0.453628 0.918811
vt 0.388898 0.932914
vt 0.956874 0.861547
vt 0.611017 0.863173
vt 0.546330 0.844705
vt 0.481661 0.830324
vt 0.417002 0.819663
vt 0.352346 0.811692
vt 0.287692 0.805789
vt 0.223040 0.801265
vt 0.158389 0.798057
vt 0.093738 0.795261
vt 0.042008 0.793525
vt 0.016143 0.792754
vt 0.804114 0.000274
vt 0.803904 0.013958
vt 0.825908 0.029498
vt 0.836728 0.039874
vt 0.847163 0.052840
vt 0.851006 0.065786
vt 0.854160 0.078729
vt 0.855343 0.091666
vt 0.855632 0.117531
vt 0.945832 0.838567
vt 0.981771 0.461665
vt 0.067862 0.770818
vt 0.867679 0.861077
vt 0.867567 0.884651
vt 0.867456 0.908246
vt 0.867345 0.931870
vt 0.986606 0.457249
vt 0.067902 0.865228
vt 0.997272 0.457249
vt 0.067892 0.841612
vt 0.067883 0.817988
vt 0.067873 0.794393
vt 0.982270 0.516082
vt 0.981777 0.516082
vt 0.126052 0.773849
vt 0.126063 0.796659
vt 0.126073 0.819491
vt 0.126082 0.842351
vt 0.126091 0.865204
vt 0.997274 0.514064
vt 0.809046 0.955213
vt 0.809153 0.932360
vt 0.809260 0.909500
vt 0.809368 0.886669
vt 0.981784 0.576575
vt 0.190704 0.777862
vt 0.744808 0.867595
vt 0.744704 0.889394
vt 0.744601 0.911215
vt 0.744499 0.933067
vt 0.986611 0.577187
vt 0.190740 0.865179
vt 0.997277 0.577186
vt 0.190732 0.843335
vt 0.190724 0.821483
vt 0.190714 0.799661
vt 0.982285 0.637149
vt 0.981792 0.637149
vt 0.255356 0.783028
vt 0.255366 0.803527
vt 0.255375 0.824051
vt 0.255382 0.844607
vt 0.255390 0.865140
vt 0.997073 0.640309
vt 0.679749 0.954595
vt 0.679844 0.934062
vt 0.679940 0.913506
vt 0.680036 0.892983
vt 0.981799 0.697882
vt 0.320009 0.789991
vt 0.615452 0.879170
vt 0.615362 0.897920
vt 0.615274 0.916696
vt 0.615187 0.935508
vt 0.987239 0.703432
vt 0.320040 0.865090
vt 0.996661 0.703431
vt 0.320032 0.846330
vt 0.320027 0.827518
vt 0.320019 0.808741
vt 0.982299 0.758891
vt 0.981807 0.758891
vt 0.384664 0.799251
vt 0.384674 0.815678
vt 0.384679 0.832133
vt 0.384682 0.848620
vt 0.384692 0.865040
vt 0.996191 0.766554
vt 0.550449 0.953941
vt 0.550528 0.937521
vt 0.550602 0.921035
vt 0.550678 0.904579
vt 0.981814 0.820403
vt 0.449324 0.811685
vt 0.486045 0.900310
vt 0.485981 0.913619
vt 0.485922 0.926964
vt 0.485864 0.940311
vt 0.988288 0.829677
vt 0.449344 0.864979
vt 0.995623 0.829676
vt 0.449334 0.851686
vt 0.449333 0.838339
vt 0.449331 0.824994
vt 0.982314 0.882818
vt 0.981822 0.882818
vt 0.513991 0.828395
vt 0.513995 0.837517
vt 0.513988 0.846695
vt 0.513989 0.855812
vt 0.513997 0.864909
vt 0.994896 0.892799
vt 0.421145 0.953257
vt 0.421192 0.944160
vt 0.421232 0.935043
vt 0.421264 0.925866
vt 0.981829 0.946643
vt 0.578681 0.850323
vt 0.356524 0.938394
vt 0.356514 0.942009
vt 0.356514 0.945655
vt 0.356492 0.949248
vt 0.990457 0.955922
vt 0.578676 0.864768
vt 0.993465 0.955922
vt 0.578667 0.861177
vt 0.578660 0.857584
vt 0.578676 0.853938
vt 0.949964 0.290781
vt 0.957424 0.696173
vt 0.848533 0.104575
vt 0.855488 0.104598
vt 0.862443 0.104622
vt 0.869398 0.104645
vt 0.876353 0.104668
vt 0.997265 0.293100
vt 0.977784 0.290705
vt 0.970829 0.290724
vt 0.963874 0.290743
vt 0.956919 0.290762
vt 0.103398 0.000104
vt 0.114487 0.012552
vt 0.065589 0.027217
vt 0.084127 0.045168
vt 0.128789 0.022099
vt 0.104258 0.058198
vt 0.144988 0.029140
vt 0.125024 0.067441
vt 0.162579 0.034020
vt 0.146482 0.073622
vt 0.181529 0.037096
vt 0.169054 0.077349
vt 0.201915 0.038802
vt 0.193052 0.079278
vt 0.223660 0.039636
vt 0.218392 0.080148
vt 0.246418 0.040065
vt 0.244544 0.080669
vt 0.269585 0.040383
vt 0.270683 0.081274
vt 0.292449 0.040589
vt 0.296013 0.081895
vt 0.314455 0.040381
vt 0.320115 0.082005
vt 0.335430 0.039293
vt 0.343114 0.080911
vt 0.355580 0.036898
vt 0.365588 0.078064
vt 0.375272 0.032946
vt 0.388288 0.073176
vt 0.394699 0.027363
vt 0.411773 0.066173
vt 0.413585 0.020145
vt 0.436109 0.057011
vt 0.430989 0.011164
vt 0.460679 0.045353
vt 0.445218 0.000000
vt 0.484063 0.030157
vt 0.715282 0.471258
vt 0.710310 0.486892
vt 0.670228 0.471209
vt 0.714819 0.455618
vt 0.708978 0.441858
vt 0.698463 0.431639
vt 0.684543 0.426192
vt 0.668896 0.426175
vt 0.653409 0.431590
vt 0.639951 0.441784
vt 0.630145 0.455527
vt 0.625174 0.471161
vt 0.625637 0.486801
vt 0.631478 0.500561
vt 0.641993 0.510780
vt 0.655913 0.516227
vt 0.671560 0.516244
vt 0.687047 0.510829
vt 0.700504 0.500635
vt 0.803434 0.598706
vt 0.778721 0.606536
vt 0.778167 0.534930
vt 0.753827 0.605774
vt 0.731763 0.596381
vt 0.715328 0.579436
vt 0.706613 0.557095
vt 0.706612 0.532189
vt 0.715193 0.507728
vt 0.731257 0.486565
vt 0.752900 0.471155
vt 0.777613 0.463325
vt 0.802507 0.464087
vt 0.824571 0.473480
vt 0.841006 0.490425
vt 0.849721 0.512765
vt 0.849722 0.537671
vt 0.841141 0.562133
vt 0.825077 0.583296
vt 0.502590 0.229355
vt 0.535127 0.229227
vt 0.484228 0.349608
vt 0.512160 0.351098
vt 0.470528 0.231467
vt 0.455945 0.349249
vt 0.439698 0.234324
vt 0.428120 0.349565
vt 0.410478 0.237192
vt 0.401277 0.350223
vt 0.382661 0.239785
vt 0.375382 0.351052
vt 0.355445 0.242056
vt 0.349789 0.351980
vt 0.327783 0.243950
vt 0.323569 0.352914
vt 0.298924 0.245294
vt 0.296044 0.353685
vt 0.268744 0.245860
vt 0.267146 0.354075
vt 0.237696 0.245478
vt 0.237396 0.353916
vt 0.206556 0.244097
vt 0.207654 0.353168
vt 0.176115 0.241794
vt 0.178781 0.351945
vt 0.146855 0.238773
vt 0.151304 0.350480
vt 0.118678 0.235300
vt 0.125164 0.349040
vt 0.090835 0.231608
vt 0.099697 0.347851
vt 0.062252 0.227886
vt 0.073988 0.347099
vt 0.032071 0.224523
vt 0.047419 0.347015
vt 0.000000 0.222498
vt 0.019990 0.347983
vt 0.483475 0.084998
vt 0.514413 0.072273
vt 0.500882 0.145974
vt 0.535756 0.139681
vt 0.453600 0.095841
vt 0.467761 0.152993
vt 0.425289 0.104741
vt 0.436704 0.159514
vt 0.398716 0.111680
vt 0.407765 0.164946
vt 0.373529 0.116653
vt 0.380507 0.169132
vt 0.348920 0.119765
vt 0.354006 0.172158
vt 0.323928 0.121273
vt 0.327163 0.174152
vt 0.297860 0.121584
vt 0.299203 0.175209
vt 0.270554 0.121205
vt 0.269964 0.175424
vt 0.242378 0.120553
vt 0.239849 0.174889
vt 0.214059 0.119696
vt 0.209588 0.173604
vt 0.186389 0.118284
vt 0.179951 0.171432
vt 0.159900 0.115735
vt 0.151421 0.168185
vt 0.134607 0.111455
vt 0.123908 0.163711
vt 0.109967 0.104900
vt 0.096655 0.157849
vt 0.085149 0.095503
vt 0.068515 0.150385
vt 0.059486 0.082636
vt 0.038400 0.141240
vt 0.032796 0.065615
vt 0.005464 0.130936
vt 0.473795 0.429785
vt 0.500569 0.430347
vt 0.468373 0.514319
vt 0.494010 0.513205
vt 0.446797 0.429656
vt 0.442312 0.515263
vt 0.420292 0.429799
vt 0.416570 0.515978
vt 0.394747 0.430092
vt 0.391674 0.516499
vt 0.370104 0.430472
vt 0.367617 0.516875
vt 0.345724 0.430912
vt 0.343801 0.517156
vt 0.320691 0.431367
vt 0.319333 0.517366
vt 0.294342 0.431748
vt 0.293585 0.517507
vt 0.266620 0.431940
vt 0.266508 0.517558
vt 0.238063 0.431846
vt 0.238632 0.517492
vt 0.209558 0.431440
vt 0.210828 0.517302
vt 0.181980 0.430792
vt 0.183950 0.516995
vt 0.155853 0.430034
vt 0.158522 0.516590
vt 0.131100 0.429310
vt 0.134478 0.516105
vt 0.107046 0.428736
vt 0.111184 0.515544
vt 0.082770 0.428401
vt 0.087766 0.514874
vt 0.057616 0.428414
vt 0.063634 0.514053
vt 0.031496 0.428948
vt 0.038607 0.513164
vt 0.471575 0.569720
vt 0.497679 0.566280
vt 0.444788 0.571452
vt 0.418387 0.572454
vt 0.392946 0.573118
vt 0.368453 0.573543
vt 0.344301 0.573793
vt 0.319630 0.573801
vt 0.293770 0.573787
vt 0.266636 0.573739
vt 0.238720 0.573637
vt 0.210816 0.573548
vt 0.183752 0.573383
vt 0.158014 0.573163
vt 0.133543 0.572813
vt 0.109713 0.572275
vt 0.085718 0.571338
vt 0.061047 0.569894
vt 0.036234 0.566886
vt 0.472176 0.675957
vt 0.499018 0.570045
vt 0.472174 0.735603
vt 0.498743 0.735604
vt 0.445107 0.575420
vt 0.445605 0.735602
vt 0.418603 0.576422
vt 0.419682 0.735601
vt 0.393093 0.577086
vt 0.394776 0.735600
vt 0.368537 0.577509
vt 0.370796 0.735599
vt 0.344355 0.577688
vt 0.347190 0.735598
vt 0.319671 0.577768
vt 0.323209 0.735597
vt 0.293797 0.577755
vt 0.298304 0.735596
vt 0.266656 0.577709
vt 0.272380 0.735595
vt 0.245814 0.675949
vt 0.245811 0.735594
vt 0.210809 0.577518
vt 0.219243 0.735593
vt 0.183726 0.577352
vt 0.193319 0.735592
vt 0.157950 0.577132
vt 0.168414 0.735591
vt 0.133416 0.576779
vt 0.144433 0.735590
vt 0.109533 0.576172
vt 0.120827 0.735589
vt 0.085441 0.575308
vt 0.096847 0.735588
vt 0.060521 0.573868
vt 0.071941 0.735587
vt 0.046020 0.675941
vt 0.046018 0.735586
vt 0.854712 0.393417
vt 0.952737 0.838566
vt 0.959641 0.838565
vt 0.966545 0.838565
vt 0.938928 0.838568
vt 0.986599 0.293101
vt 0.986599 0.305728
vt 0.968347 0.696268
vt 0.968235 0.709202
vt 0.932236 0.883095
vt 0.881292 0.395307
vt 0.961967 0.832711
vt 0.932009 0.931559
vt 0.929685 0.394709
vt 0.978142 0.394135
vt 0.961439 0.832707
vt 0.986600 0.318355
vt 0.986600 0.330982
vt 0.968122 0.722240
vt 0.968004 0.735863
vt 0.986601 0.343608
vt 0.986601 0.356235
vt 0.967884 0.749791
vt 0.967719 0.768822
vt 0.986602 0.366337
vt 0.986603 0.381489
vt 0.967565 0.786610
vt 0.881024 0.381371
vt 0.986598 0.280474
vt 0.968459 0.683334
vt 0.986586 0.011103
vt 0.949410 0.001962
vt 0.356467 0.952839
vt 0.324126 0.952594
vt 0.958357 0.861433
vt 0.989020 0.892799
vt 0.989445 0.924361
vt 0.485797 0.953604
vt 0.988595 0.861238
vt 0.987714 0.766554
vt 0.987981 0.798116
vt 0.615099 0.954268
vt 0.987448 0.734993
vt 0.744398 0.954911
vt 0.986613 0.608748
vt 0.986608 0.514064
vt 0.986610 0.545625
vt 0.867235 0.955486
vt 0.986607 0.482503
vt 0.956874 0.862330
vt 0.611017 0.863670
vt 0.324134 0.951106
vt 0.957368 0.861498
vt 0.324129 0.952099
vt 0.611017 0.864167
vt 0.611018 0.864662
vt 0.986603 0.394115
vt 0.986604 0.406742
vt 0.986605 0.431996
vt 0.956379 0.862202
vt 0.956379 0.861675
vt 0.982322 0.946643
vt 0.982326 0.978969
vt 0.421307 0.916743
vt 0.388924 0.926191
vt 0.982307 0.820403
vt 0.453684 0.907285
vt 0.550757 0.888153
vt 0.518406 0.893334
vt 0.982292 0.697882
vt 0.982296 0.728295
vt 0.680135 0.872484
vt 0.647796 0.875367
vt 0.982277 0.576575
vt 0.982281 0.606829
vt 0.809476 0.863859
vt 0.777143 0.865590
vt 0.982263 0.461665
vt 0.841809 0.862128
vt 0.932351 0.858898
vt 0.982258 0.413313
vt 0.893549 0.860026
vt 0.986822 0.640309
vt 0.987030 0.671870
vt 0.003210 0.792560
vt 0.828315 0.000635
vt 0.852542 0.001027
vt 0.003241 0.865263
vt 0.003199 0.768362
vt 0.071943 0.675942
vt 0.498745 0.675958
vt 0.034889 0.570685
vt 0.096849 0.675943
vt 0.120830 0.675944
vt 0.144435 0.675945
vt 0.168416 0.675946
vt 0.193322 0.675947
vt 0.219245 0.675948
vt 0.238729 0.577651
vt 0.272383 0.675950
vt 0.298306 0.675951
vt 0.323212 0.675952
vt 0.347192 0.675952
vt 0.370798 0.675953
vt 0.394778 0.675954
vt 0.419684 0.675955
vt 0.445607 0.675956
vt 0.472153 0.573699
vn 0.000000 0.000000 1.000000
vn 0.000000 0.000000 1.000000
vn 0.000000 0.000000 1.000000
vn 0.000000 0.000000 1.000000
vn 0.000000 1.000000 0.000000
vn 0.000000 1.000000 0.000000
vn 0.000000 1.000000 0.000000
vn 0.000000 1.000000 0.000000
vn 0.000000 0.000000 -1.000000
vn 0.000000 0.000000 -1.000000
vn 0.000000 0.000000 -1.000000
vn 0.000000 0.000000 -1.000000
vn 0.000000 -1.000000 0.000000
vn 0.000000 -1.000000 0.000000
vn 0.000000 -1.000000 0.000000
vn 0.000000 -1.000000 0.000000
vn 1.000000 0.000000 0.000000
vn 1.000000 0.000000 0.000000
vn 1.000000 0.000121 0.000000
vn 1.000000 0.000121 0.000000
vn -1.000000 0.000000 0.000000
vn -1.000000 0.000000 0.000000
vn -1.000000 -0.000825 0.000000
vn -1.000000 -0.000825 0.000000
vn -0.933832 0.357711 0.000000
vn -0.933832 0.357711 0.000000
vn -0.933832 0.357711 0.000000
vn -0.933832 0.357711 0.000000
vn -0.166504 0.060672 -0.984172
vn -0.146726 0.052032 -0.987808
vn -0.212362 0.070466 -0.974647
vn -0.115348 0.043058 -0.992392
vn 1.000000 0.000000 0.000000
vn 1.000000 0.000000 0.000000
vn 1.000000 -0.000000 0.000000
vn 1.000000 -0.000000 0.000000
vn -0.115348 0.043058 0.992392
vn -0.146726 0.052032 0.987808
vn -0.212362 0.070466 0.974647
vn -0.166502 0.060671 0.984173
vn -0.999830 -0.018422 0.000000
vn -0.999830 -0.018422 0.000000
vn 0.000000 0.000000 1.000000
vn 0.000000 0.000000 1.000000
vn 0.999996 0.002705 0.000000
vn 0.999996 0.002705 0.000000
vn 0.000000 0.000000 -1.000000
vn 0.000000 0.000000 -1.000000
vn -0.998971 0.045347 0.000000
vn -0.998971 0.045347 0.000000
vn -0.998621 0.052503 0.000000
vn -0.998621 0.052503 0.000000
vn -0.041587 0.001645 -0.999134
vn -0.041094 0.001367 -0.999154
vn -0.030626 0.001519 -0.999530
vn -0.030236 0.001280 -0.999542
vn 1.000000 0.000000 0.000000
vn 1.000000 0.000000 0.000000
vn 1.000000 0.000000 0.000000
vn 1.000000 0.000000 0.000000
vn -0.030236 0.001280 0.999542
vn -0.041094 0.001367 0.999154
vn -0.030626 0.001519 0.999530
vn -0.041587 0.001645 0.999134
vn -0.508174 -0.861255 0.000002
vn -0.508173 -0.861255 0.000004
vn -0.655401 -0.755281 -0.000002
vn -0.651294 -0.758825 -0.000002
vn 0.000000 0.280396 -0.959884
vn -0.004614 0.165119 -0.986263
vn 0.000000 0.000000 -1.000000
vn 0.000000 0.000000 -1.000000
vn 1.000000 -0.000163 -0.000002
vn 1.000000 -0.000162 -0.000003
vn 1.000000 0.000212 -0.000005
vn 1.000000 0.000212 -0.000005
vn 0.000000 0.000000 1.000000
vn -0.004614 0.165119 0.986263
vn 0.000000 0.000000 1.000000
vn 0.000000 0.280396 0.959885
vn -0.999783 0.020826 -0.000009
vn -0.999783 0.020811 -0.000041
vn -0.019131 0.190752 0.981452
vn -0.030981 0.163943 0.985983
vn 1.000000 0.000660 -0.000004
vn 1.000000 0.000659 -0.000002
vn -0.030981 0.163943 -0.985983
vn -0.019131 0.190753 -0.981452
vn -0.974584 -0.224022 0.000000
vn -0.974584 -0.224022 0.000000
vn -0.939161 -0.343478 0.000000
vn -0.939161 -0.343478 0.000000
vn 0.000000 0.000000 -1.000000
vn 0.000000 0.000000 -1.000000
vn 0.000000 0.000000 -1.000000
vn 0.000000 0.000000 -1.000000
vn 0.999985 -0.005437 0.000000
vn 0.999985 -0.005437 0.000000
vn 0.999999 -0.001602 0.000000
vn 0.999999 -0.001602 0.000000
vn 0.000000 0.000000 1.000000
vn 0.000000 0.000000 1.000000
vn 0.000000 0.000000 1.000000
vn 0.000000 0.000000 1.000000
vn -0.803891 -0.594777 0.000005
vn -0.803890 -0.594778 0.000003
vn 0.000000 0.000000 1.000000
vn 0.000000 0.000000 1.000000
vn 0.999998 0.002233 -0.000000
vn 0.999998 0.002233 -0.000000
vn 0.000000 0.000000 -1.000000
vn 0.000000 0.000000 -1.000000
vn -0.999428 0.033824 -0.000000
vn -0.999428 0.033824 0.000000
vn -0.999082 0.042832 0.000000
vn -0.999082 0.042832 0.000000
vn -0.040584 0.001282 -0.999175
vn -0.040108 0.001054 -0.999195
vn -0.029874 0.001198 -0.999553
vn -0.029611 0.000980 -0.999561
vn 1.000000 0.000221 -0.000000
vn 1.000000 0.000220 0.000000
vn 1.000000 0.000001 0.000000
vn 1.000000 0.000001 0.000000
vn -0.029611 0.000980 0.999561
vn -0.040108 0.001054 0.999195
vn -0.029874 0.001198 0.999553
vn -0.040584 0.001282 0.999175
vn -0.998304 0.058224 0.000000
vn -0.998304 0.058224 0.000000
vn -0.031212 0.001678 0.999511
vn -0.042469 0.001809 0.999096
vn 1.000000 0.000000 0.000000
vn 1.000000 0.000000 0.000000
vn -0.042469 0.001809 -0.999096
vn -0.031212 0.001678 -0.999511
vn -0.989801 0.142457 0.000000
vn -0.989801 0.142457 0.000000
vn -0.986613 0.163077 0.000000
vn -0.986613 0.163077 0.000000
vn -0.039859 0.005208 0.999192
vn -0.054442 0.005805 0.998500
vn -0.042935 0.006417 0.999057
vn -0.058898 0.007085 0.998239
vn 1.000000 -0.000000 0.000000
vn 1.000000 -0.000000 0.000000
vn 1.000000 -0.000000 0.000000
vn 1.000000 -0.000000 0.000000
vn -0.058898 0.007085 -0.998239
vn -0.054442 0.005805 -0.998500
vn -0.042935 0.006417 -0.999057
vn -0.039859 0.005208 -0.999192
vn -0.992573 0.121650 0.000000
vn -0.992573 0.121650 0.000000
vn -0.051634 0.004611 -0.998655
vn -0.037764 0.004217 -0.999278
vn 1.000000 0.000000 0.000000
vn 1.000000 0.000000 0.000000
vn -0.037764 0.004217 0.999278
vn -0.051634 0.004611 0.998655
vn -0.996780 0.080180 0.000000
vn -0.996780 0.080180 0.000000
vn -0.995607 0.093633 0.000000
vn -0.995607 0.093633 0.000000
vn -0.033463 0.002484 0.999437
vn -0.045528 0.002720 0.998959
vn -0.034628 0.002983 0.999396
vn -0.047243 0.003241 0.998878
vn 1.000000 0.000000 0.000000
vn 1.000000 0.000000 0.000000
vn 1.000000 -0.000000 0.000000
vn 1.000000 -0.000000 0.000000
vn -0.047243 0.003241 -0.998878
vn -0.045528 0.002720 -0.998959
vn -0.034628 0.002983 -0.999396
vn -0.033463 0.002484 -0.999437
vn -0.976453 0.215730 0.000000
vn -0.976453 0.215730 0.000000
vn -0.967934 0.251206 0.000000
vn -0.967934 0.251206 0.000000
vn -0.083488 0.016048 -0.996380
vn -0.072568 0.011647 -0.997296
vn -0.060779 0.013876 -0.998055
vn -0.052687 0.010409 -0.998557
vn 1.000000 -0.000000 0.000000
vn 1.000000 -0.000000 0.000000
vn 1.000000 0.000000 0.000000
vn 1.000000 0.000000 0.000000
vn -0.052687 0.010409 0.998557
vn -0.072568 0.011647 0.997295
vn -0.060779 0.013876 0.998055
vn -0.083488 0.016048 0.996380
vn -0.958319 0.285700 0.000000
vn -0.958319 0.285699 0.000000
vn -0.076132 0.019967 0.996898
vn -0.105282 0.022738 0.994183
vn 1.000000 -0.000000 0.000000
vn 1.000000 -0.000000 0.000000
vn -0.105282 0.022738 -0.994182
vn -0.076132 0.019967 -0.996898
vn -0.997774 0.066683 0.000000
vn -0.997774 0.066683 0.000000
vn -0.044435 0.002167 -0.999010
vn -0.032636 0.002005 -0.999465
vn 1.000000 0.000000 0.000000
vn 1.000000 0.000000 0.000000
vn -0.032636 0.002005 0.999465
vn -0.044435 0.002167 0.999010
vn -0.633477 -0.773762 0.000001
vn -0.633476 -0.773762 0.000002
vn 0.000000 0.000000 1.000000
vn 0.000000 0.000000 1.000000
vn 0.999999 0.001168 -0.000000
vn 0.999999 0.001169 -0.000001
vn 0.000000 0.000000 -1.000000
vn 0.000000 0.000000 -1.000000
vn -0.997319 -0.073178 0.000000
vn -0.997319 -0.073178 0.000000
vn 0.000000 0.000000 1.000000
vn 0.000000 0.000000 1.000000
vn 0.999999 -0.001366 0.000000
vn 0.999999 -0.001366 0.000000
vn 0.000000 0.000000 -1.000000
vn 0.000000 0.000000 -1.000000
vn 0.000000 0.000000 1.000000
vn 0.000000 0.000000 1.000000
vn 0.000000 0.000000 1.000000
vn 0.000000 0.000000 1.000000
vn 0.000000 0.000000 1.000000
vn 0.000000 0.000000 1.000000
vn 0.000000 0.000000 1.000000
vn 0.000000 0.000000 1.000000
vn 0.000000 0.000000 1.000000
vn 0.000000 0.000000 1.000000
vn 0.000000 0.000000 1.000000
vn 0.000000 0.000000 1.000000
vn 0.000000 0.000000 1.000000
vn 0.000000 0.000000 1.000000
vn 0.000000 0.000000 1.000000
vn 0.000000 0.000000 1.000000
vn 0.000000 0.000000 1.000000
vn 0.000000 0.000000 1.000000
vn -0.010697 0.049326 0.998726
vn 0.000000 0.000000 1.000000
vn -0.042705 0.019194 0.998903
vn -0.055273 0.071511 0.995907
vn -0.067528 0.000666 0.997717
vn -0.065424 0.000216 0.997858
vn -0.068172 0.000750 0.997673
vn -0.066102 0.000198 0.997813
vn -0.069005 0.000792 0.997616
vn -0.066922 0.000202 0.997758
vn -0.069939 0.001008 0.997551
vn -0.067864 0.000334 0.997695
vn -0.069231 0.000310 0.997601
vn -0.071305 0.001053 0.997454
vn -0.074595 0.001264 0.997213
vn -0.072473 0.000381 0.997370
vn -0.076556 0.001647 0.997064
vn -0.072645 0.001705 0.997357
vn -0.065025 0.004922 0.997872
vn -0.075119 0.002883 0.997171
vn -0.070784 0.003480 0.997486
vn -0.048637 0.004838 0.998805
vn -0.068455 0.005114 0.997641
vn -0.039963 0.006275 0.999182
vn -0.033267 0.007063 0.999422
vn -0.065312 0.006783 0.997842
vn -0.057668 0.010254 0.998283
vn -0.024072 0.009291 0.999667
vn -0.053025 0.011891 0.998522
vn -0.021421 0.011323 0.999706
vn -0.019750 0.013160 0.999718
vn -0.043148 0.013264 0.998981
vn -0.045229 0.031957 0.998465
vn -0.055857 0.034691 0.997836
vn -0.019005 0.032184 0.999301
vn -0.030075 0.033524 0.998985
vn 0.000000 1.000000 0.000000
vn 0.000000 1.000000 0.000000
vn 0.000000 1.000000 0.000000
vn 0.000000 1.000000 0.000000
vn -0.045229 0.031957 -0.998465
vn -0.019005 0.032184 -0.999301
vn -0.055856 0.034691 -0.997836
vn -0.030075 0.033524 -0.998985
vn -0.053025 0.011891 -0.998522
vn -0.043148 0.013264 -0.998981
vn -0.021421 0.011323 -0.999706
vn -0.019750 0.013160 -0.999718
vn -0.057668 0.010254 -0.998283
vn -0.024072 0.009291 -0.999667
vn -0.068455 0.005114 -0.997641
vn -0.065312 0.006783 -0.997842
vn -0.039963 0.006275 -0.999181
vn -0.033266 0.007063 -0.999422
vn -0.070784 0.003480 -0.997486
vn -0.048637 0.004838 -0.998805
vn -0.076556 0.001647 -0.997064
vn -0.075119 0.002883 -0.997170
vn -0.072645 0.001705 -0.997357
vn -0.065025 0.004922 -0.997872
vn -0.074595 0.001264 -0.997213
vn -0.072473 0.000381 -0.997370
vn -0.069939 0.001008 -0.997551
vn -0.071305 0.001053 -0.997454
vn -0.067864 0.000334 -0.997695
vn -0.069231 0.000310 -0.997601
vn -0.069005 0.000792 -0.997616
vn -0.066922 0.000202 -0.997758
vn -0.067528 0.000666 -0.997717
vn -0.068172 0.000750 -0.997673
vn -0.065425 0.000217 -0.997858
vn -0.066102 0.000198 -0.997813
vn -0.055273 0.071511 -0.995907
vn -0.042705 0.019194 -0.998903
vn 0.000000 0.000000 -1.000000
vn -0.010697 0.049326 -0.998726
vn 0.000000 0.000000 -1.000000
vn 0.000000 0.000000 -1.000000
vn 0.000000 0.000000 -1.000000
vn 0.000000 0.000000 -1.000000
vn 0.000000 0.000000 -1.000000
vn 0.000000 0.000000 -1.000000
vn 0.000000 0.000000 -1.000000
vn 0.000000 0.000000 -1.000000
vn 0.000000 0.000000 -1.000000
vn 0.000000 0.000000 -1.000000
vn 0.000000 0.000000 -1.000000
vn 0.000000 0.000000 -1.000000
vn 0.000000 0.000000 -1.000000
vn 0.000000 0.000000 -1.000000
vn 0.000000 0.000000 -1.000000
vn 0.000000 0.000000 -1.000000
vn 0.000000 0.000000 -1.000000
vn 0.000000 0.000000 -1.000000
vn 0.000000 -1.000000 0.000000
vn 0.000000 -1.000000 0.000000
vn 0.000000 -1.000000 0.000000
vn 0.000000 -1.000000 0.000000
vn 0.000000 0.000000 1.000000
vn 0.000000 0.000000 1.000000
vn 0.000000 -1.000000 0.000000
vn 0.000000 -1.000000 0.000000
vn 0.000000 0.000000 -1.000000
vn 0.000000 0.000000 -1.000000
vn 0.000000 0.000000 -1.000000
vn 0.000000 0.000000 -1.000000
vn 0.000000 0.000000 -1.000000
vn 0.000000 0.000000 -1.000000
vn 0.000000 0.000000 -1.000000
vn 0.000000 0.000000 -1.000000
vn 0.000000 0.000000 -1.000000
vn -0.019340 0.117338 -0.992904
vn -0.059503 0.125405 -0.990320
vn -0.060188 0.001083 -0.998187
vn -0.060821 0.001288 -0.998148
vn -0.061573 0.001369 -0.998102
vn -0.062366 0.001673 -0.998052
vn -0.063628 0.001813 -0.997972
vn -0.066567 0.002173 -0.997780
vn -0.068269 0.002757 -0.997663
vn -0.070762 0.003250 -0.997488
vn -0.077319 0.004626 -0.996996
vn -0.081635 0.005893 -0.996645
vn -0.085444 0.007536 -0.996315
vn -0.093005 0.011774 -0.995596
vn -0.097252 0.014933 -0.995148
vn -0.102753 0.019033 -0.994525
vn -0.106711 0.047016 -0.993178
vn -0.081829 0.040653 -0.995817
vn 0.000000 1.000000 0.000000
vn 0.000000 1.000000 0.000000
vn -0.106711 0.047016 0.993178
vn -0.081828 0.040653 0.995817
vn -0.102753 0.019033 0.994525
vn -0.097252 0.014933 0.995148
vn -0.093005 0.011774 0.995596
vn -0.085444 0.007536 0.996315
vn -0.081635 0.005893 0.996645
vn -0.077319 0.004626 0.996996
vn -0.070762 0.003250 0.997488
vn -0.068269 0.002757 0.997663
vn -0.066567 0.002173 0.997780
vn -0.063628 0.001813 0.997972
vn -0.062366 0.001673 0.998052
vn -0.061573 0.001369 0.998102
vn -0.060188 0.001083 0.998187
vn -0.060821 0.001288 0.998148
vn -0.059503 0.125406 0.990320
vn -0.019340 0.117338 0.992904
vn 0.000000 0.000000 1.000000
vn 0.000000 0.000000 1.000000
vn 0.000000 0.000000 1.000000
vn 0.000000 0.000000 1.000000
vn 0.000000 0.000000 1.000000
vn 0.000000 0.000000 1.000000
vn 0.000000 0.000000 1.000000
vn -0.998048 0.062455 0.000000
vn -0.998048 0.062455 0.000000
vn -0.043353 0.001995 -0.999058
vn -0.031869 0.001841 -0.999490
vn -0.064971 0.002008 -0.997885
vn -0.072825 0.001179 -0.997344
vn -0.070727 0.000367 -0.997496
vn 1.000000 0.000000 0.000000
vn 1.000000 0.000000 0.000000
vn -0.072825 0.001179 0.997344
vn -0.070727 0.000367 0.997496
vn -0.064971 0.002008 0.997885
vn -0.043353 0.001995 0.999058
vn -0.031869 0.001841 0.999490
vn -0.994186 0.107674 0.000000
vn -0.994186 0.107674 0.000000
vn -0.049020 0.003927 -0.998790
vn -0.035956 0.003567 -0.999347
vn -0.073493 0.003975 -0.997288
vn -0.072729 0.003254 -0.997346
vn -0.056933 0.004959 -0.998366
vn 1.000000 0.000000 0.000000
vn 1.000000 0.000000 0.000000
vn -0.072729 0.003254 0.997347
vn -0.056933 0.004959 0.998366
vn -0.073493 0.003975 0.997288
vn -0.049020 0.003927 0.998790
vn -0.035956 0.003567 0.999347
vn -0.981860 0.189608 0.000000
vn -0.981860 0.189608 0.000000
vn -0.063984 0.009147 -0.997909
vn -0.046711 0.008085 -0.998876
vn -0.089457 0.009404 -0.995946
vn -0.061843 0.008615 -0.998049
vn -0.026240 0.008694 -0.999618
vn 1.000000 0.000000 0.000000
vn 1.000000 0.000000 0.000000
vn -0.061843 0.008615 0.998049
vn -0.026240 0.008694 0.999618
vn -0.089457 0.009404 0.995946
vn -0.063984 0.009147 0.997909
vn -0.046711 0.008085 0.998876
vn -0.946602 0.322404 0.000000
vn -0.946602 0.322404 0.000000
vn -0.140832 0.037265 -0.989332
vn -0.103005 0.030184 -0.994223
vn -0.110999 0.033908 -0.993242
vn -0.027896 0.023363 -0.999338
vn -0.017086 0.022652 -0.999597
vn 1.000000 0.000000 0.000000
vn 1.000000 0.000000 0.000000
vn -0.027896 0.023363 0.999338
vn -0.017086 0.022652 0.999597
vn -0.110999 0.033908 0.993242
vn -0.140832 0.037265 0.989332
vn -0.103005 0.030184 0.994223
vn 0.206632 -0.672120 0.711026
vn 0.411642 -0.686051 0.599903
vn 0.249201 -0.528240 0.811703
vn 0.488573 -0.542728 0.683186
vn 0.579818 -0.704011 0.410096
vn 0.685072 -0.560996 0.464715
vn 0.679461 -0.717268 0.154463
vn 0.800824 -0.574187 0.170266
vn 0.684016 -0.717960 -0.129055
vn 0.803371 -0.574670 -0.156040
vn 0.592684 -0.705727 -0.388169
vn 0.692190 -0.562199 -0.452554
vn 0.430860 -0.687948 -0.584027
vn 0.499037 -0.544067 -0.674502
vn 0.229770 -0.673332 -0.702730
vn 0.261629 -0.529101 -0.807219
vn 0.012233 -0.667419 -0.744582
vn 0.006535 -0.523148 -0.852217
vn -0.206632 -0.672120 -0.711026
vn -0.249201 -0.528240 -0.811703
vn -0.411643 -0.686051 -0.599903
vn -0.488573 -0.542728 -0.683185
vn -0.579818 -0.704011 -0.410096
vn -0.685072 -0.560996 -0.464715
vn -0.679461 -0.717268 -0.154463
vn -0.800824 -0.574187 -0.170265
vn -0.684016 -0.717960 0.129055
vn -0.803371 -0.574671 0.156041
vn -0.592684 -0.705727 0.388169
vn -0.692190 -0.562199 0.452554
vn -0.430860 -0.687947 0.584027
vn -0.499037 -0.544067 0.674503
vn -0.229770 -0.673332 0.702730
vn -0.261628 -0.529101 0.807219
vn -0.012233 -0.667419 0.744582
vn -0.006535 -0.523148 0.852217
vn 0.000000 -1.000000 0.000000
vn 0.000000 -1.000000 0.000000
vn 0.000000 -1.000000 0.000000
vn 0.000000 -1.000000 0.000000
vn 0.000000 -1.000000 0.000000
vn 0.000000 -1.000000 0.000000
vn 0.000000 -1.000000 0.000000
vn 0.000000 -1.000000 0.000000
vn 0.000000 -1.000000 0.000000
vn 0.000000 -1.000000 0.000000
vn 0.000000 -1.000000 0.000000
vn 0.000000 -1.000000 0.000000
vn 0.000000 -1.000000 0.000000
vn 0.000000 -1.000000 0.000000
vn 0.000000 -1.000000 0.000000
vn 0.000000 -1.000000 0.000000
vn 0.000000 -1.000000 0.000000
vn 0.000000 -1.000000 0.000000
vn 0.000000 -1.000000 0.000000
vn 0.000000 1.000000 0.000001
vn 0.000000 1.000000 0.000001
vn 0.000000 1.000000 0.000000
vn 0.000000 1.000000 0.000000
vn 0.000000 1.000000 0.000000
vn 0.000000 1.000000 0.000000
vn 0.000000 1.000000 0.000000
vn 0.000000 1.000000 0.000000
vn 0.000000 1.000000 0.000000
vn 0.000000 1.000000 0.000000
vn 0.000000 1.000000 -0.000001
vn 0.000000 1.000000 -0.000001
vn 0.000000 1.000000 0.000000
vn 0.000000 1.000000 0.000000
vn 0.000000 1.000000 0.000000
vn 0.000000 1.000000 0.000000
vn 0.000000 1.000000 0.000002
vn 0.000000 1.000000 0.000002
vn 0.000000 1.000000 0.000000
vn 0.002042 0.116055 0.993241
vn 0.300449 0.117801 0.946495
vn 0.001760 0.083471 0.996509
vn 0.300536 0.084730 0.949999
vn -0.296490 0.117756 0.947748
vn -0.297125 0.084710 0.951074
vn -0.581596 0.122472 0.804206
vn -0.583031 0.088142 0.807654
vn -0.823821 0.128608 0.552069
vn -0.826675 0.092627 0.555003
vn -0.970684 0.133165 0.200101
vn -0.974852 0.095973 0.201130
vn -0.971631 0.133196 -0.195427
vn -0.975670 0.095987 -0.197118
vn -0.826356 0.128681 -0.548249
vn -0.828862 0.092661 -0.551726
vn -0.585101 0.122547 -0.801648
vn -0.586053 0.088176 -0.805461
vn -0.300448 0.117801 -0.946496
vn -0.300536 0.084730 -0.949999
vn -0.002042 0.116055 -0.993241
vn -0.001760 0.083471 -0.996509
vn 0.296490 0.117756 -0.947748
vn 0.297125 0.084710 -0.951074
vn 0.581596 0.122472 -0.804206
vn 0.583032 0.088142 -0.807654
vn 0.823821 0.128608 -0.552068
vn 0.826675 0.092627 -0.555003
vn 0.970684 0.133165 -0.200100
vn 0.974852 0.095973 -0.201130
vn 0.971631 0.133196 0.195427
vn 0.975670 0.095987 0.197118
vn 0.826356 0.128681 0.548249
vn 0.828862 0.092661 0.551726
vn 0.585101 0.122547 0.801648
vn 0.586052 0.088176 0.805461
vn -0.003235 -0.220619 0.975355
vn 0.290413 -0.223576 0.930416
vn 0.000389 0.022721 0.999742
vn 0.301687 0.023053 0.953128
vn -0.296666 -0.223785 0.928391
vn -0.300934 0.023072 0.953366
vn -0.575341 -0.232168 0.784271
vn -0.588483 0.024016 0.808153
vn -0.809699 -0.242758 0.534281
vn -0.832338 0.025227 0.553694
vn -0.949513 -0.250365 0.189057
vn -0.979597 0.026107 0.199267
vn -0.948049 -0.250239 -0.196428
vn -0.979776 0.026092 -0.198388
vn -0.805757 -0.242450 -0.540346
vn -0.832817 0.025192 -0.552974
vn -0.569845 -0.231835 -0.788372
vn -0.589148 0.023983 -0.807669
vn -0.290413 -0.223576 -0.930416
vn -0.301687 0.023054 -0.953128
vn 0.003235 -0.220619 -0.975355
vn -0.000389 0.022721 -0.999742
vn 0.296666 -0.223786 -0.928391
vn 0.300934 0.023072 -0.953366
vn 0.575341 -0.232168 -0.784271
vn 0.588483 0.024016 -0.808153
vn 0.809699 -0.242758 -0.534281
vn 0.832338 0.025227 -0.553694
vn 0.949513 -0.250365 -0.189056
vn 0.979598 0.026108 -0.199267
vn 0.948049 -0.250239 0.196428
vn 0.979776 0.026092 0.198388
vn 0.805757 -0.242450 0.540346
vn 0.832817 0.025192 0.552975
vn 0.569844 -0.231835 0.788372
vn 0.589148 0.023983 0.807670
vn 0.000665 0.035385 0.999374
vn 0.300816 0.035919 0.953006
vn 0.000394 0.020183 0.999796
vn 0.300513 0.020487 0.953558
vn -0.299527 0.035915 0.953412
vn -0.299748 0.020486 0.953799
vn -0.586509 0.037374 0.809080
vn -0.586768 0.021321 0.809475
vn -0.830749 0.039274 0.555260
vn -0.831177 0.022409 0.555557
vn -0.978892 0.040685 0.200290
vn -0.979475 0.023218 0.200226
vn -0.979201 0.040688 -0.198769
vn -0.979659 0.023218 -0.199324
vn -0.831577 0.039282 -0.554019
vn -0.831668 0.022410 -0.554821
vn -0.587651 0.037382 -0.808250
vn -0.587445 0.021322 -0.808983
vn -0.300816 0.035919 -0.953006
vn -0.300512 0.020487 -0.953558
vn -0.000664 0.035385 -0.999374
vn -0.000394 0.020183 -0.999796
vn 0.299527 0.035915 -0.953412
vn 0.299748 0.020486 -0.953799
vn 0.586509 0.037374 -0.809080
vn 0.586768 0.021321 -0.809475
vn 0.830749 0.039274 -0.555260
vn 0.831177 0.022409 -0.555557
vn 0.978892 0.040685 -0.200290
vn 0.979475 0.023218 -0.200226
vn 0.979201 0.040688 0.198769
vn 0.979658 0.023218 0.199324
vn 0.831577 0.039282 0.554019
vn 0.831668 0.022410 0.554821
vn 0.587651 0.037382 0.808250
vn 0.587445 0.021322 0.808983
vn -0.000000 0.000000 1.000000
vn 0.300373 0.000000 0.953822
vn -0.300373 0.000000 0.953822
vn -0.587502 0.000000 0.809222
vn -0.831813 0.000000 0.555056
vn -0.979859 0.000000 0.199689
vn -0.979859 0.000000 -0.199689
vn -0.831813 0.000000 -0.555056
vn -0.587502 0.000000 -0.809223
vn -0.300373 0.000000 -0.953822
vn 0.000000 0.000000 -1.000000
vn 0.300373 0.000000 -0.953822
vn 0.587503 0.000000 -0.809222
vn 0.831813 0.000000 -0.555056
vn 0.979859 0.000000 -0.199689
vn 0.979859 0.000000 0.199689
vn 0.831813 0.000000 0.555057
vn 0.587502 0.000000 0.809223
vn 0.000000 0.000000 1.000000
vn 0.300676 0.000000 0.953726
vn -0.000000 0.000000 1.000000
vn 0.300676 0.000000 0.953726
vn -0.300676 0.000000 0.953726
vn -0.300677 0.000000 0.953726
vn -0.588007 0.000000 0.808856
vn -0.588006 0.000000 0.808856
vn -0.832222 -0.000000 0.554443
vn -0.832221 0.000000 0.554444
vn -0.979930 0.000000 0.199340
vn -0.979930 -0.000000 0.199340
vn -0.979930 -0.000000 -0.199340
vn -0.979930 0.000000 -0.199340
vn -0.832221 -0.000000 -0.554444
vn -0.832221 -0.000000 -0.554444
vn -0.588007 0.000000 -0.808856
vn -0.588006 0.000000 -0.808856
vn -0.300677 0.000000 -0.953726
vn -0.300676 0.000000 -0.953726
vn -0.000000 0.000000 -1.000000
vn 0.000001 0.000000 -1.000000
vn 0.300677 -0.000000 -0.953726
vn 0.300677 0.000000 -0.953726
vn 0.588007 -0.000000 -0.808856
vn 0.588007 -0.000000 -0.808856
vn 0.832222 0.000000 -0.554443
vn 0.832221 0.000000 -0.554443
vn 0.979931 0.000000 -0.199340
vn 0.979930 0.000000 -0.199340
vn 0.979930 0.000000 0.199340
vn 0.979930 0.000000 0.199341
vn 0.832221 0.000000 0.554444
vn 0.832221 0.000000 0.554444
vn 0.588006 0.000000 0.808857
vn 0.588006 0.000000 0.808857
vn 0.000000 -1.000000 0.000008
vn 0.000000 -1.000000 0.000007
vn 0.000000 -1.000000 0.000001
vn 0.000000 -1.000000 0.000000
vn 0.000000 -1.000000 0.000008
vn 0.000000 -1.000000 0.000007
vn 0.000000 -1.000000 0.000011
vn 0.000000 -1.000000 0.000011
vn 0.000000 -1.000000 0.000000
vn 0.000000 -1.000000 0.000001
vn 0.000000 -1.000000 0.000000
vn 0.000000 -1.000000 0.000000
vn 0.000000 -1.000000 0.000000
vn 0.000000 -1.000000 0.000000
vn 0.000000 -1.000000 0.000000
vn 0.000000 -1.000000 0.000000
vn 0.000000 -1.000000 0.000003
vn 0.000000 -1.000000 0.000003
vn 0.000000 -1.000000 -0.000008
vn 0.000000 -1.000000 -0.000007
vn 0.000000 -1.000000 -0.000001
vn 0.000000 -1.000000 0.000000
vn 0.000000 -1.000000 -0.000008
vn 0.000000 -1.000000 -0.000007
vn 0.000000 -1.000000 -0.000010
vn 0.000000 -1.000000 -0.000011
vn 0.000000 -1.000000 0.000004
vn 0.000000 -1.000000 0.000003
vn 0.000000 -1.000000 -0.000000
vn 0.000000 -1.000000 -0.000000
vn 0.000000 -1.000000 0.000000
vn 0.000000 -1.000000 -0.000000
vn 0.000000 -1.000000 0.000000
vn 0.000000 -1.000000 0.000000
vn 0.000000 -1.000000 0.000001
vn 0.000000 -1.000000 0.000001
s 1
g pCube2
usemtl initialShadingGroup
f 1/656/1 169/215/2 9/15/3
f 9/15/3 169/215/2 170/217/4
s 2
f 3/685/5 189/236/6 5/684/7
f 5/684/7 189/236/6 190/674/8
s 3
f 10/17/9 209/256/10 7/7/11
f 7/7/11 209/256/10 210/625/12
s 4
f 7/629/13 210/257/14 1/9/15
f 1/9/15 210/257/14 169/216/16
s 5
f 2/655/17 8/11/18 12/653/19
f 12/653/19 8/11/18 11/19/20
s 6
f 7/13/21 1/1/22 10/16/23
f 10/16/23 1/1/22 9/654/24
f 291/354/25 292/686/26 5/14/27
f 5/14/27 292/686/26 3/687/28
s 3
f 190/237/29 300/365/30 5/5/31
f 5/5/31 300/365/30 291/355/32
s 5
f 296/360/33 297/362/34 4/4/35
f 4/4/35 297/362/34 6/12/36
s 1
f 292/356/37 293/357/38 3/3/39
f 3/3/39 293/357/38 189/676/40
s 6
f 10/16/23 9/654/24 302/367/41
f 302/367/41 9/654/24 301/632/42
s 1
f 170/217/4 310/377/43 9/15/3
f 9/15/3 310/377/43 301/366/44
s 5
f 12/653/19 11/19/20 307/630/45
f 307/630/45 11/19/20 306/373/46
s 3
f 302/368/47 303/369/48 10/17/9
f 10/17/9 303/369/48 209/256/10
s 6
f 211/258/49 212/702/50 13/21/51
f 13/21/51 212/702/50 14/23/52
s 3
f 198/245/53 220/269/54 13/22/55
f 13/22/55 220/269/54 211/259/56
s 5
f 216/264/57 217/266/58 15/673/59
f 15/673/59 217/266/58 16/26/60
s 1
f 212/260/61 213/261/62 14/703/63
f 14/703/63 213/261/62 181/228/64
s 6
f 69/105/65 70/651/66 18/28/67
f 18/28/67 70/651/66 17/27/68
s 3
f 18/29/69 202/249/70 69/106/71
f 69/106/71 202/249/70 203/250/72
s 5
f 71/649/73 72/110/74 20/650/75
f 20/650/75 72/110/74 19/31/76
s 1
f 176/223/77 177/224/78 70/107/79
f 70/107/79 177/224/78 17/652/80
s 6
f 18/28/67 17/27/68 82/640/81
f 17/27/68 81/636/82 82/640/81
s 1
f 17/652/80 177/224/78 81/635/83
f 81/635/83 177/224/78 178/225/84
s 5
f 20/650/75 19/31/76 84/681/85
f 84/681/85 19/31/76 83/127/86
s 3
f 201/248/87 202/249/70 82/125/88
f 82/125/88 202/249/70 18/29/69
s 6
f 77/117/89 78/643/90 22/34/91
f 22/34/91 78/643/90 21/644/92
s 3
f 22/35/93 206/253/94 77/118/95
f 77/118/95 206/253/94 207/254/96
s 5
f 79/641/97 80/122/98 24/642/99
f 24/642/99 80/122/98 23/37/100
s 1
f 172/219/101 173/220/102 78/119/103
f 78/119/103 173/220/102 21/33/104
s 6
f 22/34/91 21/644/92 74/112/105
f 74/112/105 21/644/92 73/647/106
s 1
f 173/220/102 174/221/107 21/33/104
f 21/33/104 174/221/107 73/111/108
s 5
f 24/642/99 23/37/100 76/645/109
f 76/645/109 23/37/100 75/115/110
s 3
f 74/113/111 205/252/112 22/35/93
f 22/35/93 205/252/112 206/253/94
s 6
f 38/58/113 37/705/114 25/39/115
f 25/39/115 37/705/114 26/41/116
s 3
f 199/246/117 200/247/118 25/40/119
f 25/40/119 200/247/118 38/59/120
s 5
f 40/682/121 39/61/122 27/683/123
f 27/683/123 39/61/122 28/44/124
s 1
f 37/57/125 179/226/126 26/706/127
f 26/706/127 179/226/126 180/227/128
s 6
f 13/21/51 14/23/52 222/271/129
f 222/271/129 14/23/52 221/270/130
s 1
f 14/703/63 181/228/64 221/700/131
f 221/700/131 181/228/64 230/281/132
s 5
f 15/673/59 16/26/60 227/670/133
f 227/670/133 16/26/60 226/277/134
s 3
f 223/273/135 198/245/53 222/272/136
f 222/272/136 198/245/53 13/22/55
s 6
f 41/63/137 42/695/138 262/319/139
f 262/319/139 42/695/138 261/318/140
s 1
f 42/65/141 185/232/142 261/692/143
f 261/692/143 185/232/142 270/329/144
s 5
f 43/667/145 44/68/146 267/664/147
f 267/664/147 44/68/146 266/325/148
s 3
f 263/321/149 194/241/150 262/320/151
f 262/320/151 194/241/150 41/64/152
s 6
f 251/306/153 252/694/154 41/63/137
f 41/63/137 252/694/154 42/695/138
s 3
f 194/241/150 260/317/155 41/64/152
f 41/64/152 260/317/155 251/307/156
s 5
f 256/312/157 257/314/158 43/667/145
f 43/667/145 257/314/158 44/68/146
s 1
f 252/308/159 253/309/160 42/65/141
f 42/65/141 253/309/160 185/232/142
s 6
f 50/76/161 49/699/162 242/295/163
f 242/295/163 49/699/162 241/294/164
s 1
f 49/75/165 183/230/166 241/696/167
f 241/696/167 183/230/166 250/305/168
s 5
f 52/669/169 51/79/170 247/707/171
f 247/707/171 51/79/170 246/301/172
s 3
f 243/297/173 196/243/174 242/296/175
f 242/296/175 196/243/174 50/77/176
s 6
f 271/330/177 272/690/178 45/69/179
f 45/69/179 272/690/178 46/71/180
s 3
f 192/239/181 280/341/182 45/70/183
f 45/70/183 280/341/182 271/331/184
s 5
f 276/336/185 277/338/186 47/663/187
f 47/663/187 277/338/186 48/74/188
s 1
f 272/332/189 273/333/190 46/691/191
f 46/691/191 273/333/190 187/234/192
s 6
f 45/69/179 46/71/180 282/343/193
f 282/343/193 46/71/180 281/342/194
s 1
f 46/691/191 187/234/192 281/688/195
f 281/688/195 187/234/192 290/353/196
s 5
f 47/663/187 48/74/188 287/660/197
f 287/660/197 48/74/188 286/349/198
s 3
f 283/345/199 192/239/181 282/344/200
f 282/344/200 192/239/181 45/70/183
s 6
f 231/282/201 232/698/202 50/76/161
f 50/76/161 232/698/202 49/699/162
s 3
f 196/243/174 240/293/203 50/77/176
f 50/77/176 240/293/203 231/283/204
s 5
f 236/288/205 237/290/206 52/669/169
f 52/669/169 237/290/206 51/79/170
s 1
f 232/284/207 233/285/208 49/75/165
f 49/75/165 233/285/208 183/230/166
s 6
f 33/51/209 34/648/210 69/105/65
f 69/105/65 34/648/210 70/651/66
s 1
f 175/222/211 176/223/77 34/53/212
f 34/53/212 176/223/77 70/107/79
s 5
f 35/646/213 36/56/214 71/649/73
f 71/649/73 36/56/214 72/110/74
s 3
f 69/106/71 203/250/72 33/52/215
f 33/52/215 203/250/72 204/251/216
s 6
f 74/112/105 73/647/106 33/51/209
f 33/51/209 73/647/106 34/648/210
s 3
f 33/52/215 204/251/216 74/113/111
f 74/113/111 204/251/216 205/252/112
s 5
f 76/645/109 75/115/110 35/646/213
f 35/646/213 75/115/110 36/56/214
s 1
f 174/221/107 175/222/211 73/111/108
f 73/111/108 175/222/211 34/53/212
s 6
f 30/46/217 29/633/218 77/117/89
f 77/117/89 29/633/218 78/643/90
s 1
f 171/218/219 172/219/101 29/45/220
f 29/45/220 172/219/101 78/119/103
s 5
f 32/631/221 31/49/222 79/641/97
f 79/641/97 31/49/222 80/122/98
s 3
f 77/118/95 207/254/96 30/47/223
f 30/47/223 207/254/96 208/255/224
s 6
f 82/124/81 81/123/82 38/58/113
f 38/58/113 81/123/82 37/705/114
s 3
f 200/247/118 201/709/87 38/59/120
f 38/59/120 201/709/87 82/713/88
s 5
f 84/681/85 83/127/86 40/682/121
f 40/682/121 83/127/86 39/61/122
s 1
f 81/704/83 178/634/84 37/57/125
f 37/57/125 178/634/84 179/226/126
f 127/172/225 128/173/226 12/20/227
f 12/20/227 128/173/226 2/2/228
f 308/375/229 127/172/225 307/374/230
f 307/374/230 127/172/225 12/20/227
f 167/213/231 168/214/232 79/120/233
f 79/120/233 168/214/232 32/50/234
f 166/212/235 167/213/231 24/38/236
f 24/38/236 167/213/231 79/120/233
f 165/211/237 166/212/235 76/116/238
f 76/116/238 166/212/235 24/38/236
f 164/210/239 165/211/237 35/54/240
f 35/54/240 165/211/237 76/116/238
f 163/209/241 164/210/239 71/108/242
f 71/108/242 164/210/239 35/54/240
f 162/208/243 163/209/241 20/32/244
f 20/32/244 163/209/241 71/108/242
f 20/32/244 84/639/245 162/208/243
f 161/207/246 162/208/243 84/639/245
f 161/637/246 84/128/245 160/206/247
f 160/206/247 84/128/245 40/62/248
f 160/206/247 40/62/248 159/205/249
f 159/205/249 40/62/248 27/42/250
f 215/263/251 216/672/252 158/204/253
f 158/204/253 216/672/252 15/24/254
f 227/278/255 228/279/256 15/24/254
f 15/24/254 228/279/256 158/204/253
f 235/287/257 236/668/258 156/202/259
f 156/202/259 236/668/258 52/80/260
f 247/302/261 248/303/262 52/80/260
f 52/80/260 248/303/262 156/202/259
f 255/311/263 256/666/264 154/200/265
f 154/200/265 256/666/264 43/66/266
f 267/326/267 268/327/268 43/66/266
f 43/66/266 268/327/268 154/200/265
f 275/335/269 276/662/270 152/198/271
f 152/198/271 276/662/270 47/72/272
f 287/350/273 288/351/274 47/72/272
f 47/72/272 288/351/274 152/198/271
f 4/658/275 150/678/276 296/657/277
f 150/678/276 295/359/278 296/657/277
s 2
f 149/195/279 150/196/280 6/6/281
f 6/6/281 150/196/280 4/659/282
s 3
f 6/680/283 297/361/284 149/679/285
f 297/361/284 298/363/286 149/679/285
f 147/193/287 285/347/288 48/73/289
f 48/73/289 285/347/288 286/348/290
f 278/339/291 147/193/287 277/337/292
f 277/337/292 147/193/287 48/73/289
f 145/191/293 265/323/294 44/67/295
f 44/67/295 265/323/294 266/324/296
f 258/315/297 145/191/293 257/313/298
f 257/313/298 145/191/293 44/67/295
f 143/189/299 245/299/300 51/78/301
f 51/78/301 245/299/300 246/300/302
f 238/291/303 143/189/299 237/289/304
f 237/289/304 143/189/299 51/78/301
f 141/187/305 225/275/306 16/25/307
f 16/25/307 225/275/306 226/276/308
f 218/267/309 141/187/305 217/265/310
f 217/265/310 141/187/305 16/25/307
f 139/185/311 140/186/312 39/60/313
f 39/60/313 140/186/312 28/43/314
f 138/184/315 139/185/311 83/712/316
f 83/712/316 139/185/311 39/60/313
f 19/30/317 137/183/318 83/126/316
f 137/183/318 138/711/315 83/126/316
f 137/183/318 19/30/317 136/182/319
f 136/182/319 19/30/317 72/109/320
f 136/182/319 72/109/320 135/181/321
f 135/181/321 72/109/320 36/55/322
f 135/181/321 36/55/322 134/180/323
f 134/180/323 36/55/322 75/114/324
f 134/180/323 75/114/324 133/179/325
f 133/179/325 75/114/324 23/36/326
f 133/179/325 23/36/326 132/178/327
f 132/178/327 23/36/326 80/121/328
f 132/178/327 80/121/328 131/177/329
f 131/177/329 80/121/328 31/48/330
f 305/371/331 306/372/332 130/176/333
f 130/176/333 306/372/332 11/18/334
f 129/175/335 130/176/333 8/8/336
f 8/8/336 130/176/333 11/18/334
s 4
f 128/174/337 129/627/338 2/10/339
f 2/10/339 129/627/338 8/628/340
s 1
f 86/131/341 85/129/342 127/172/225
f 127/172/225 85/129/342 128/173/226
s 4
f 85/130/343 126/626/344 128/174/337
f 128/174/337 126/626/344 129/627/338
s 3
f 126/171/345 125/170/346 129/175/335
f 129/175/335 125/170/346 130/176/333
f 304/370/347 305/371/331 125/170/346
f 125/170/346 305/371/331 130/176/333
f 123/168/348 132/178/327 124/169/349
f 124/169/349 132/178/327 131/177/329
f 122/167/350 133/179/325 123/168/348
f 123/168/348 133/179/325 132/178/327
f 121/166/351 134/180/323 122/167/350
f 122/167/350 134/180/323 133/179/325
f 120/165/352 135/181/321 121/166/351
f 121/166/351 135/181/321 134/180/323
f 119/164/353 136/182/319 120/165/352
f 120/165/352 136/182/319 135/181/321
f 118/163/354 137/183/318 119/164/353
f 119/164/353 137/183/318 136/182/319
f 117/710/355 138/711/315 118/163/354
f 118/163/354 138/711/315 137/183/318
f 117/162/355 116/161/356 138/184/315
f 138/184/315 116/161/356 139/185/311
f 116/161/356 115/160/357 139/185/311
f 139/185/311 115/160/357 140/186/312
f 219/268/358 114/159/359 218/267/309
f 218/267/309 114/159/359 141/187/305
f 114/159/359 224/274/360 141/187/305
f 141/187/305 224/274/360 225/275/306
f 239/292/361 112/157/362 238/291/303
f 238/291/303 112/157/362 143/189/299
f 112/157/362 244/298/363 143/189/299
f 143/189/299 244/298/363 245/299/300
f 259/316/364 110/155/365 258/315/297
f 258/315/297 110/155/365 145/191/293
f 110/155/365 264/322/366 145/191/293
f 145/191/293 264/322/366 265/323/294
f 279/340/367 108/153/368 278/339/291
f 278/339/291 108/153/368 147/193/287
f 108/153/368 284/346/369 147/193/287
f 147/193/287 284/346/369 285/347/288
f 299/364/370 106/675/371 298/363/286
f 298/363/286 106/675/371 149/679/285
s 2
f 106/151/372 105/677/373 149/195/279
f 149/195/279 105/677/373 150/196/280
s 1
f 294/358/374 295/359/278 105/150/375
f 105/150/375 295/359/278 150/678/276
f 288/351/274 289/352/376 152/198/271
f 152/198/271 289/352/376 103/148/377
f 274/334/378 275/335/269 103/148/377
f 103/148/377 275/335/269 152/198/271
f 268/327/268 269/328/379 154/200/265
f 154/200/265 269/328/379 101/146/380
f 254/310/381 255/311/263 101/146/380
f 101/146/380 255/311/263 154/200/265
f 248/303/262 249/304/382 156/202/259
f 156/202/259 249/304/382 99/144/383
f 234/286/384 235/287/257 99/144/383
f 99/144/383 235/287/257 156/202/259
f 228/279/256 229/280/385 158/204/253
f 158/204/253 229/280/385 97/142/386
f 214/262/387 215/263/251 97/142/386
f 97/142/386 215/263/251 158/204/253
f 95/140/388 160/206/247 96/141/389
f 96/141/389 160/206/247 159/205/249
f 94/139/390 161/637/246 95/140/388
f 95/140/388 161/637/246 160/206/247
f 94/638/390 93/138/391 161/207/246
f 161/207/246 93/138/391 162/208/243
f 93/138/391 92/137/392 162/208/243
f 162/208/243 92/137/392 163/209/241
f 92/137/392 91/136/393 163/209/241
f 163/209/241 91/136/393 164/210/239
f 91/136/393 90/135/394 164/210/239
f 164/210/239 90/135/394 165/211/237
f 90/135/394 89/134/395 165/211/237
f 165/211/237 89/134/395 166/212/235
f 89/134/395 88/133/396 166/212/235
f 166/212/235 88/133/396 167/213/231
f 88/133/396 87/132/397 167/213/231
f 167/213/231 87/132/397 168/214/232
f 309/376/398 86/131/341 308/375/229
f 308/375/229 86/131/341 127/172/225
f 170/217/4 169/215/2 86/131/341
f 86/131/341 169/215/2 85/129/342
f 310/377/43 170/217/4 309/376/398
f 309/376/398 170/217/4 86/131/341
f 172/219/101 171/218/219 88/133/396
f 88/133/396 171/218/219 87/132/397
f 173/220/102 172/219/101 89/134/395
f 89/134/395 172/219/101 88/133/396
f 174/221/107 173/220/102 90/135/394
f 90/135/394 173/220/102 89/134/395
f 175/222/211 174/221/107 91/136/393
f 91/136/393 174/221/107 90/135/394
f 176/223/77 175/222/211 92/137/392
f 92/137/392 175/222/211 91/136/393
f 177/224/78 176/223/77 93/138/391
f 93/138/391 176/223/77 92/137/392
f 177/224/78 93/138/391 178/225/84
f 178/225/84 93/138/391 94/638/390
f 178/634/84 94/139/390 179/226/126
f 179/226/126 94/139/390 95/140/388
f 179/226/126 95/140/388 180/227/128
f 180/227/128 95/140/388 96/141/389
f 213/261/62 214/262/387 181/228/64
f 181/228/64 214/262/387 97/142/386
f 229/280/385 230/281/132 97/142/386
f 97/142/386 230/281/132 181/228/64
f 233/285/208 234/286/384 183/230/166
f 183/230/166 234/286/384 99/144/383
f 249/304/382 250/305/168 99/144/383
f 99/144/383 250/305/168 183/230/166
f 253/309/160 254/310/381 185/232/142
f 185/232/142 254/310/381 101/146/380
f 269/328/379 270/329/144 101/146/380
f 101/146/380 270/329/144 185/232/142
f 273/333/190 274/334/378 187/234/192
f 187/234/192 274/334/378 103/148/377
f 289/352/376 290/353/196 103/148/377
f 103/148/377 290/353/196 187/234/192
f 105/150/375 189/676/40 294/358/374
f 189/676/40 293/357/38 294/358/374
s 2
f 190/674/8 189/236/6 106/151/372
f 106/151/372 189/236/6 105/677/373
s 3
f 106/675/371 299/364/370 190/237/29
f 299/364/370 300/365/30 190/237/29
f 192/239/181 283/345/199 108/153/368
f 108/153/368 283/345/199 284/346/369
f 280/341/182 192/239/181 279/340/367
f 279/340/367 192/239/181 108/153/368
f 194/241/150 263/321/149 110/155/365
f 110/155/365 263/321/149 264/322/366
f 260/317/155 194/241/150 259/316/364
f 259/316/364 194/241/150 110/155/365
f 196/243/174 243/297/173 112/157/362
f 112/157/362 243/297/173 244/298/363
f 240/293/203 196/243/174 239/292/361
f 239/292/361 196/243/174 112/157/362
f 198/245/53 223/273/135 114/159/359
f 114/159/359 223/273/135 224/274/360
f 220/269/54 198/245/53 219/268/358
f 219/268/358 198/245/53 114/159/359
f 200/247/118 199/246/117 116/161/356
f 116/161/356 199/246/117 115/160/357
f 201/709/87 200/247/118 117/162/355
f 117/162/355 200/247/118 116/161/356
f 202/249/70 201/248/87 118/163/354
f 118/163/354 201/248/87 117/710/355
f 202/249/70 118/163/354 203/250/72
f 203/250/72 118/163/354 119/164/353
f 203/250/72 119/164/353 204/251/216
f 204/251/216 119/164/353 120/165/352
f 204/251/216 120/165/352 205/252/112
f 205/252/112 120/165/352 121/166/351
f 205/252/112 121/166/351 206/253/94
f 206/253/94 121/166/351 122/167/350
f 206/253/94 122/167/350 207/254/96
f 207/254/96 122/167/350 123/168/348
f 207/254/96 123/168/348 208/255/224
f 208/255/224 123/168/348 124/169/349
f 303/369/48 304/370/347 209/256/10
f 209/256/10 304/370/347 125/170/346
f 210/625/12 209/256/10 126/171/345
f 126/171/345 209/256/10 125/170/346
s 4
f 169/216/16 210/257/14 85/130/343
f 85/130/343 210/257/14 126/626/344
s 6
f 25/39/115 26/41/116 211/258/49
f 211/258/49 26/41/116 212/702/50
s 1
f 26/706/127 180/227/128 212/260/61
f 212/260/61 180/227/128 213/261/62
f 214/262/387 213/261/62 96/141/389
f 96/141/389 213/261/62 180/227/128
f 215/263/251 214/262/387 159/205/249
f 159/205/249 214/262/387 96/141/389
f 216/672/252 215/263/251 27/42/250
f 27/42/250 215/263/251 159/205/249
s 5
f 27/683/123 28/44/124 216/264/57
f 216/264/57 28/44/124 217/266/58
s 3
f 140/186/312 218/267/309 28/43/314
f 28/43/314 218/267/309 217/265/310
f 115/160/357 219/268/358 140/186/312
f 140/186/312 219/268/358 218/267/309
f 199/246/117 220/269/54 115/160/357
f 115/160/357 220/269/54 219/268/358
f 220/269/54 199/246/117 211/259/56
f 211/259/56 199/246/117 25/40/119
s 6
f 222/271/129 221/270/130 66/100/399
f 66/100/399 221/270/130 65/99/400
s 3
f 197/244/401 223/273/135 66/101/402
f 66/101/402 223/273/135 222/272/136
f 223/273/135 197/244/401 224/274/360
f 224/274/360 197/244/401 113/158/403
f 224/274/360 113/158/403 225/275/306
f 225/275/306 113/158/403 142/188/404
f 225/275/306 142/188/404 226/276/308
f 226/276/308 142/188/404 67/102/405
s 5
f 227/670/133 226/277/134 68/671/406
f 68/671/406 226/277/134 67/103/407
s 1
f 228/279/256 227/278/255 157/203/408
f 157/203/408 227/278/255 68/104/409
f 229/280/385 228/279/256 98/143/410
f 98/143/410 228/279/256 157/203/408
f 230/281/132 229/280/385 182/229/411
f 182/229/411 229/280/385 98/143/410
f 221/700/131 230/281/132 65/701/412
f 65/701/412 230/281/132 182/229/411
s 6
f 66/100/399 65/99/400 231/282/201
f 231/282/201 65/99/400 232/698/202
s 1
f 65/701/412 182/229/411 232/284/207
f 232/284/207 182/229/411 233/285/208
f 234/286/384 233/285/208 98/143/410
f 98/143/410 233/285/208 182/229/411
f 235/287/257 234/286/384 157/203/408
f 157/203/408 234/286/384 98/143/410
f 236/668/258 235/287/257 68/104/409
f 68/104/409 235/287/257 157/203/408
s 5
f 68/671/406 67/103/407 236/288/205
f 236/288/205 67/103/407 237/290/206
s 3
f 142/188/404 238/291/303 67/102/405
f 67/102/405 238/291/303 237/289/304
f 113/158/403 239/292/361 142/188/404
f 142/188/404 239/292/361 238/291/303
f 197/244/401 240/293/203 113/158/403
f 113/158/403 240/293/203 239/292/361
f 240/293/203 197/244/401 231/283/204
f 231/283/204 197/244/401 66/101/402
s 6
f 242/295/163 241/294/164 53/81/413
f 53/81/413 241/294/164 54/83/414
s 3
f 195/242/415 243/297/173 53/82/416
f 53/82/416 243/297/173 242/296/175
f 243/297/173 195/242/415 244/298/363
f 244/298/363 195/242/415 111/156/417
f 244/298/363 111/156/417 245/299/300
f 245/299/300 111/156/417 144/190/418
f 245/299/300 144/190/418 246/300/302
f 246/300/302 144/190/418 56/85/419
s 5
f 247/707/171 246/301/172 55/708/420
f 55/708/420 246/301/172 56/86/421
s 1
f 248/303/262 247/302/261 155/201/422
f 155/201/422 247/302/261 55/84/423
f 249/304/382 248/303/262 100/145/424
f 100/145/424 248/303/262 155/201/422
f 250/305/168 249/304/382 184/231/425
f 184/231/425 249/304/382 100/145/424
f 241/696/167 250/305/168 54/697/426
f 54/697/426 250/305/168 184/231/425
s 6
f 53/81/413 54/83/414 251/306/153
f 251/306/153 54/83/414 252/694/154
s 1
f 54/697/426 184/231/425 252/308/159
f 252/308/159 184/231/425 253/309/160
f 254/310/381 253/309/160 100/145/424
f 100/145/424 253/309/160 184/231/425
f 255/311/263 254/310/381 155/201/422
f 155/201/422 254/310/381 100/145/424
f 256/666/264 255/311/263 55/84/423
f 55/84/423 255/311/263 155/201/422
s 5
f 55/708/420 56/86/421 256/312/157
f 256/312/157 56/86/421 257/314/158
s 3
f 144/190/418 258/315/297 56/85/419
f 56/85/419 258/315/297 257/313/298
f 111/156/417 259/316/364 144/190/418
f 144/190/418 259/316/364 258/315/297
f 195/242/415 260/317/155 111/156/417
f 111/156/417 260/317/155 259/316/364
f 260/317/155 195/242/415 251/307/156
f 251/307/156 195/242/415 53/82/416
s 6
f 262/319/139 261/318/140 58/88/427
f 58/88/427 261/318/140 57/87/428
s 3
f 193/240/429 263/321/149 58/89/430
f 58/89/430 263/321/149 262/320/151
f 263/321/149 193/240/429 264/322/366
f 264/322/366 193/240/429 109/154/431
f 264/322/366 109/154/431 265/323/294
f 265/323/294 109/154/431 146/192/432
f 265/323/294 146/192/432 266/324/296
f 266/324/296 146/192/432 59/90/433
s 5
f 267/664/147 266/325/148 60/665/434
f 60/665/434 266/325/148 59/91/435
s 1
f 268/327/268 267/326/267 153/199/436
f 153/199/436 267/326/267 60/92/437
f 269/328/379 268/327/268 102/147/438
f 102/147/438 268/327/268 153/199/436
f 270/329/144 269/328/379 186/233/439
f 186/233/439 269/328/379 102/147/438
f 261/692/143 270/329/144 57/693/440
f 57/693/440 270/329/144 186/233/439
s 6
f 58/88/427 57/87/428 271/330/177
f 271/330/177 57/87/428 272/690/178
s 1
f 57/693/440 186/233/439 272/332/189
f 272/332/189 186/233/439 273/333/190
f 274/334/378 273/333/190 102/147/438
f 102/147/438 273/333/190 186/233/439
f 275/335/269 274/334/378 153/199/436
f 153/199/436 274/334/378 102/147/438
f 276/662/270 275/335/269 60/92/437
f 60/92/437 275/335/269 153/199/436
s 5
f 60/665/434 59/91/435 276/336/185
f 276/336/185 59/91/435 277/338/186
s 3
f 146/192/432 278/339/291 59/90/433
f 59/90/433 278/339/291 277/337/292
f 109/154/431 279/340/367 146/192/432
f 146/192/432 279/340/367 278/339/291
f 193/240/429 280/341/182 109/154/431
f 109/154/431 280/341/182 279/340/367
f 280/341/182 193/240/429 271/331/184
f 271/331/184 193/240/429 58/89/430
s 6
f 282/343/193 281/342/194 61/93/441
f 61/93/441 281/342/194 62/95/442
s 3
f 191/238/443 283/345/199 61/94/444
f 61/94/444 283/345/199 282/344/200
f 283/345/199 191/238/443 284/346/369
f 284/346/369 191/238/443 107/152/445
f 284/346/369 107/152/445 285/347/288
f 285/347/288 107/152/445 148/194/446
f 285/347/288 148/194/446 286/348/290
f 286/348/290 148/194/446 64/97/447
s 5
f 287/660/197 286/349/198 63/661/448
f 63/661/448 286/349/198 64/98/449
s 1
f 288/351/274 287/350/273 151/197/450
f 151/197/450 287/350/273 63/96/451
f 289/352/376 288/351/274 104/149/452
f 104/149/452 288/351/274 151/197/450
f 290/353/196 289/352/376 188/235/453
f 188/235/453 289/352/376 104/149/452
f 281/688/195 290/353/196 62/689/454
f 62/689/454 290/353/196 188/235/453
s 6
f 61/93/441 62/95/442 291/354/25
f 291/354/25 62/95/442 292/686/26
s 1
f 62/689/454 188/235/453 292/356/37
f 292/356/37 188/235/453 293/357/38
f 294/358/374 293/357/38 104/149/452
f 104/149/452 293/357/38 188/235/453
f 295/359/278 294/358/374 151/197/450
f 151/197/450 294/358/374 104/149/452
f 296/657/277 295/359/278 63/96/451
f 63/96/451 295/359/278 151/197/450
s 5
f 63/661/448 64/98/449 296/360/33
f 296/360/33 64/98/449 297/362/34
s 3
f 148/194/446 298/363/286 64/97/447
f 64/97/447 298/363/286 297/361/284
f 107/152/445 299/364/370 148/194/446
f 148/194/446 299/364/370 298/363/286
f 191/238/443 300/365/30 107/152/445
f 107/152/445 300/365/30 299/364/370
f 300/365/30 191/238/443 291/355/32
f 291/355/32 191/238/443 61/94/444
s 6
f 302/367/41 301/632/42 30/46/217
f 30/46/217 301/632/42 29/633/218
s 3
f 30/47/223 208/255/224 302/368/47
f 302/368/47 208/255/224 303/369/48
f 304/370/347 303/369/48 124/169/349
f 124/169/349 303/369/48 208/255/224
f 305/371/331 304/370/347 131/177/329
f 131/177/329 304/370/347 124/169/349
f 306/372/332 305/371/331 31/48/330
f 31/48/330 305/371/331 131/177/329
s 5
f 307/630/45 306/373/46 32/631/221
f 32/631/221 306/373/46 31/49/222
s 1
f 168/214/232 308/375/229 32/50/234
f 32/50/234 308/375/229 307/374/230
f 87/132/397 309/376/398 168/214/232
f 168/214/232 309/376/398 308/375/229
f 171/218/219 310/377/43 87/132/397
f 87/132/397 310/377/43 309/376/398
f 310/377/43 171/218/219 301/366/44
f 301/366/44 171/218/219 29/45/220
s 107
f 311/378/455 312/379/456 384/380/457
f 384/380/457 312/379/456 401/381/458
f 312/379/456 313/382/459 401/381/458
f 401/381/458 313/382/459 400/383/460
f 313/382/459 314/384/461 400/383/460
f 400/383/460 314/384/461 399/385/462
f 314/384/461 315/386/463 399/385/462
f 399/385/462 315/386/463 398/387/464
f 315/386/463 316/388/465 398/387/464
f 398/387/464 316/388/465 397/389/466
f 316/388/465 317/390/467 397/389/466
f 397/389/466 317/390/467 396/391/468
f 317/390/467 318/392/469 396/391/468
f 396/391/468 318/392/469 395/393/470
f 318/392/469 319/394/471 395/393/470
f 395/393/470 319/394/471 394/395/472
f 319/394/471 320/396/473 394/395/472
f 394/395/472 320/396/473 393/397/474
f 320/396/473 321/398/475 393/397/474
f 393/397/474 321/398/475 392/399/476
f 321/398/475 322/400/477 392/399/476
f 392/399/476 322/400/477 391/401/478
f 322/400/477 323/402/479 391/401/478
f 391/401/478 323/402/479 390/403/480
f 323/402/479 324/404/481 390/403/480
f 390/403/480 324/404/481 389/405/482
f 324/404/481 325/406/483 389/405/482
f 389/405/482 325/406/483 388/407/484
f 325/406/483 326/408/485 388/407/484
f 388/407/484 326/408/485 387/409/486
f 326/408/485 327/410/487 387/409/486
f 387/409/486 327/410/487 386/411/488
f 327/410/487 328/412/489 386/411/488
f 386/411/488 328/412/489 385/413/490
f 328/412/489 311/414/455 385/413/490
f 385/413/490 311/414/455 384/415/457
s 108
f 312/416/491 311/417/492 329/418/493
f 313/419/494 312/416/491 329/418/493
f 314/420/495 313/419/494 329/418/493
f 315/421/496 314/420/495 329/418/493
f 316/422/497 315/421/496 329/418/493
f 317/423/498 316/422/497 329/418/493
f 318/424/499 317/423/498 329/418/493
f 319/425/500 318/424/499 329/418/493
f 320/426/501 319/425/500 329/418/493
f 321/427/502 320/426/501 329/418/493
f 322/428/503 321/427/502 329/418/493
f 323/429/504 322/428/503 329/418/493
f 324/430/505 323/429/504 329/418/493
f 325/431/506 324/430/505 329/418/493
f 326/432/507 325/431/506 329/418/493
f 327/433/508 326/432/507 329/418/493
f 328/434/509 327/433/508 329/418/493
f 311/417/492 328/434/509 329/418/493
s 109
f 474/435/510 475/436/511 476/437/512
f 475/436/511 477/438/513 476/437/512
f 477/438/513 478/439/514 476/437/512
f 478/439/514 479/440/515 476/437/512
f 479/440/515 480/441/516 476/437/512
f 480/441/516 481/442/517 476/437/512
f 481/442/517 482/443/518 476/437/512
f 482/443/518 483/444/519 476/437/512
f 483/444/519 484/445/520 476/437/512
f 484/445/520 485/446/521 476/437/512
f 485/446/521 486/447/522 476/437/512
f 486/447/522 487/448/523 476/437/512
f 487/448/523 488/449/524 476/437/512
f 488/449/524 489/450/525 476/437/512
f 489/450/525 490/451/526 476/437/512
f 490/451/526 491/452/527 476/437/512
f 491/452/527 492/453/528 476/437/512
f 492/453/528 474/435/510 476/437/512
s 107
f 331/454/529 330/455/530 421/456/531
f 421/456/531 330/455/530 420/457/532
f 332/458/533 331/454/529 422/459/534
f 422/459/534 331/454/529 421/456/531
f 333/460/535 332/458/533 423/461/536
f 423/461/536 332/458/533 422/459/534
f 334/462/537 333/460/535 424/463/538
f 424/463/538 333/460/535 423/461/536
f 335/464/539 334/462/537 425/465/540
f 425/465/540 334/462/537 424/463/538
f 336/466/541 335/464/539 426/467/542
f 426/467/542 335/464/539 425/465/540
f 337/468/543 336/466/541 427/469/544
f 427/469/544 336/466/541 426/467/542
f 338/470/545 337/468/543 428/471/546
f 428/471/546 337/468/543 427/469/544
f 339/472/547 338/470/545 429/473/548
f 429/473/548 338/470/545 428/471/546
f 340/474/549 339/472/547 430/475/550
f 430/475/550 339/472/547 429/473/548
f 341/476/551 340/474/549 431/477/552
f 431/477/552 340/474/549 430/475/550
f 342/478/553 341/476/551 432/479/554
f 432/479/554 341/476/551 431/477/552
f 343/480/555 342/478/553 433/481/556
f 433/481/556 342/478/553 432/479/554
f 344/482/557 343/480/555 434/483/558
f 434/483/558 343/480/555 433/481/556
f 345/484/559 344/482/557 435/485/560
f 435/485/560 344/482/557 434/483/558
f 346/486/561 345/484/559 436/487/562
f 436/487/562 345/484/559 435/485/560
f 347/488/563 346/486/561 437/489/564
f 437/489/564 346/486/561 436/487/562
f 330/490/530 347/488/563 420/491/532
f 420/491/532 347/488/563 437/489/564
f 349/492/565 348/493/566 403/494/567
f 403/494/567 348/493/566 402/495/568
f 350/496/569 349/492/565 404/497/570
f 404/497/570 349/492/565 403/494/567
f 351/498/571 350/496/569 405/499/572
f 405/499/572 350/496/569 404/497/570
f 352/500/573 351/498/571 406/501/574
f 406/501/574 351/498/571 405/499/572
f 353/502/575 352/500/573 407/503/576
f 407/503/576 352/500/573 406/501/574
f 354/504/577 353/502/575 408/505/578
f 408/505/578 353/502/575 407/503/576
f 355/506/579 354/504/577 409/507/580
f 409/507/580 354/504/577 408/505/578
f 356/508/581 355/506/579 410/509/582
f 410/509/582 355/506/579 409/507/580
f 357/510/583 356/508/581 411/511/584
f 411/511/584 356/508/581 410/509/582
f 358/512/585 357/510/583 412/513/586
f 412/513/586 357/510/583 411/511/584
f 359/514/587 358/512/585 413/515/588
f 413/515/588 358/512/585 412/513/586
f 360/516/589 359/514/587 414/517/590
f 414/517/590 359/514/587 413/515/588
f 361/518/591 360/516/589 415/519/592
f 415/519/592 360/516/589 414/517/590
f 362/520/593 361/518/591 416/521/594
f 416/521/594 361/518/591 415/519/592
f 363/522/595 362/520/593 417/523/596
f 417/523/596 362/520/593 416/521/594
f 364/524/597 363/522/595 418/525/598
f 418/525/598 363/522/595 417/523/596
f 365/526/599 364/524/597 419/527/600
f 419/527/600 364/524/597 418/525/598
f 348/528/566 365/526/599 402/529/568
f 402/529/568 365/526/599 419/527/600
f 367/530/601 366/531/602 439/532/603
f 439/532/603 366/531/602 438/533/604
f 368/534/605 367/530/601 440/535/606
f 440/535/606 367/530/601 439/532/603
f 369/536/607 368/534/605 441/537/608
f 441/537/608 368/534/605 440/535/606
f 370/538/609 369/536/607 442/539/610
f 442/539/610 369/536/607 441/537/608
f 371/540/611 370/538/609 443/541/612
f 443/541/612 370/538/609 442/539/610
f 372/542/613 371/540/611 444/543/614
f 444/543/614 371/540/611 443/541/612
f 373/544/615 372/542/613 445/545/616
f 445/545/616 372/542/613 444/543/614
f 374/546/617 373/544/615 446/547/618
f 446/547/618 373/544/615 445/545/616
f 375/548/619 374/546/617 447/549/620
f 447/549/620 374/546/617 446/547/618
f 376/550/621 375/548/619 448/551/622
f 448/551/622 375/548/619 447/549/620
f 377/552/623 376/550/621 449/553/624
f 449/553/624 376/550/621 448/551/622
f 378/554/625 377/552/623 450/555/626
f 450/555/626 377/552/623 449/553/624
f 379/556/627 378/554/625 451/557/628
f 451/557/628 378/554/625 450/555/626
f 380/558/629 379/556/627 452/559/630
f 452/559/630 379/556/627 451/557/628
f 381/560/631 380/558/629 453/561/632
f 453/561/632 380/558/629 452/559/630
f 382/562/633 381/560/631 454/563/634
f 454/563/634 381/560/631 453/561/632
f 383/564/635 382/562/633 455/565/636
f 455/565/636 382/562/633 454/563/634
f 366/566/602 383/564/635 438/567/604
f 438/567/604 383/564/635 455/565/636
f 385/413/490 384/415/457 349/492/565
f 349/492/565 384/415/457 348/493/566
f 386/411/488 385/413/490 350/496/569
f 350/496/569 385/413/490 349/492/565
f 387/409/486 386/411/488 351/498/571
f 351/498/571 386/411/488 350/496/569
f 388/407/484 387/409/486 352/500/573
f 352/500/573 387/409/486 351/498/571
f 389/405/482 388/407/484 353/502/575
f 353/502/575 388/407/484 352/500/573
f 390/403/480 389/405/482 354/504/577
f 354/504/577 389/405/482 353/502/575
f 391/401/478 390/403/480 355/506/579
f 355/506/579 390/403/480 354/504/577
f 392/399/476 391/401/478 356/508/581
f 356/508/581 391/401/478 355/506/579
f 393/397/474 392/399/476 357/510/583
f 357/510/583 392/399/476 356/508/581
f 394/395/472 393/397/474 358/512/585
f 358/512/585 393/397/474 357/510/583
f 395/393/470 394/395/472 359/514/587
f 359/514/587 394/395/472 358/512/585
f 396/391/468 395/393/470 360/516/589
f 360/516/589 395/393/470 359/514/587
f 397/389/466 396/391/468 361/518/591
f 361/518/591 396/391/468 360/516/589
f 398/387/464 397/389/466 362/520/593
f 362/520/593 397/389/466 361/518/591
f 399/385/462 398/387/464 363/522/595
f 363/522/595 398/387/464 362/520/593
f 400/383/460 399/385/462 364/524/597
f 364/524/597 399/385/462 363/522/595
f 401/381/458 400/383/460 365/526/599
f 365/526/599 400/383/460 364/524/597
f 384/380/457 401/381/458 348/528/566
f 348/528/566 401/381/458 365/526/599
f 403/494/567 402/495/568 331/454/529
f 331/454/529 402/495/568 330/455/530
f 404/497/570 403/494/567 332/458/533
f 332/458/533 403/494/567 331/454/529
f 405/499/572 404/497/570 333/460/535
f 333/460/535 404/497/570 332/458/533
f 406/501/574 405/499/572 334/462/537
f 334/462/537 405/499/572 333/460/535
f 407/503/576 406/501/574 335/464/539
f 335/464/539 406/501/574 334/462/537
f 408/505/578 407/503/576 336/466/541
f 336/466/541 407/503/576 335/464/539
f 409/507/580 408/505/578 337/468/543
f 337/468/543 408/505/578 336/466/541
f 410/509/582 409/507/580 338/470/545
f 338/470/545 409/507/580 337/468/543
f 411/511/584 410/509/582 339/472/547
f 339/472/547 410/509/582 338/470/545
f 412/513/586 411/511/584 340/474/549
f 340/474/549 411/511/584 339/472/547
f 413/515/588 412/513/586 341/476/551
f 341/476/551 412/513/586 340/474/549
f 414/517/590 413/515/588 342/478/553
f 342/478/553 413/515/588 341/476/551
f 415/519/592 414/517/590 343/480/555
f 343/480/555 414/517/590 342/478/553
f 416/521/594 415/519/592 344/482/557
f 344/482/557 415/519/592 343/480/555
f 417/523/596 416/521/594 345/484/559
f 345/484/559 416/521/594 344/482/557
f 418/525/598 417/523/596 346/486/561
f 346/486/561 417/523/596 345/484/559
f 419/527/600 418/525/598 347/488/563
f 347/488/563 418/525/598 346/486/561
f 402/529/568 419/527/600 330/490/530
f 330/490/530 419/527/600 347/488/563
f 421/456/531 420/457/532 367/530/601
f 367/530/601 420/457/532 366/531/602
f 422/459/534 421/456/531 368/534/605
f 368/534/605 421/456/531 367/530/601
f 423/461/536 422/459/534 369/536/607
f 369/536/607 422/459/534 368/534/605
f 424/463/538 423/461/536 370/538/609
f 370/538/609 423/461/536 369/536/607
f 425/465/540 424/463/538 371/540/611
f 371/540/611 424/463/538 370/538/609
f 426/467/542 425/465/540 372/542/613
f 372/542/613 425/465/540 371/540/611
f 427/469/544 426/467/542 373/544/615
f 373/544/615 426/467/542 372/542/613
f 428/471/546 427/469/544 374/546/617
f 374/546/617 427/469/544 373/544/615
f 429/473/548 428/471/546 375/548/619
f 375/548/619 428/471/546 374/546/617
f 430/475/550 429/473/548 376/550/621
f 376/550/621 429/473/548 375/548/619
f 431/477/552 430/475/550 377/552/623
f 377/552/623 430/475/550 376/550/621
f 432/479/554 431/477/552 378/554/625
f 378/554/625 431/477/552 377/552/623
f 433/481/556 432/479/554 379/556/627
f 379/556/627 432/479/554 378/554/625
f 434/483/558 433/481/556 380/558/629
f 380/558/629 433/481/556 379/556/627
f 435/485/560 434/483/558 381/560/631
f 381/560/631 434/483/558 380/558/629
f 436/487/562 435/485/560 382/562/633
f 382/562/633 435/485/560 381/560/631
f 437/489/564 436/487/562 383/564/635
f 383/564/635 436/487/562 382/562/633
f 420/491/532 437/489/564 366/566/602
f 366/566/602 437/489/564 383/564/635
f 439/532/603 438/533/604 457/568/637
f 457/568/637 438/533/604 456/569/638
f 440/535/606 439/532/603 458/570/639
f 458/570/639 439/532/603 457/568/637
f 441/537/608 440/535/606 459/571/640
f 459/571/640 440/535/606 458/570/639
f 442/539/610 441/537/608 460/572/641
f 460/572/641 441/537/608 459/571/640
f 443/541/612 442/539/610 461/573/642
f 461/573/642 442/539/610 460/572/641
f 444/543/614 443/541/612 462/574/643
f 462/574/643 443/541/612 461/573/642
f 445/545/616 444/543/614 463/575/644
f 463/575/644 444/543/614 462/574/643
f 446/547/618 445/545/616 464/576/645
f 464/576/645 445/545/616 463/575/644
f 447/549/620 446/547/618 465/577/646
f 465/577/646 446/547/618 464/576/645
f 448/551/622 447/549/620 466/578/647
f 466/578/647 447/549/620 465/577/646
f 449/553/624 448/551/622 467/579/648
f 467/579/648 448/551/622 466/578/647
f 450/555/626 449/553/624 468/580/649
f 468/580/649 449/553/624 467/579/648
f 451/557/628 450/555/626 469/581/650
f 469/581/650 450/555/626 468/580/649
f 452/559/630 451/557/628 470/582/651
f 470/582/651 451/557/628 469/581/650
f 453/561/632 452/559/630 471/583/652
f 471/583/652 452/559/630 470/582/651
f 454/563/634 453/561/632 472/584/653
f 472/584/653 453/561/632 471/583/652
f 455/565/636 454/563/634 473/585/654
f 473/585/654 454/563/634 472/584/653
f 438/567/604 455/565/636 456/586/638
f 456/586/638 455/565/636 473/585/654
s 161
f 494/587/655 493/715/656 492/589/657
f 492/589/657 493/715/656 474/590/658
f 495/731/659 494/587/655 491/592/660
f 491/592/660 494/587/655 492/589/657
f 496/730/661 495/731/659 490/594/662
f 490/594/662 495/731/659 491/592/660
f 497/729/663 496/730/661 489/596/664
f 489/596/664 496/730/661 490/594/662
f 498/728/665 497/729/663 488/598/666
f 488/598/666 497/729/663 489/596/664
f 499/727/667 498/728/665 487/600/668
f 487/600/668 498/728/665 488/598/666
f 500/726/669 499/727/667 486/602/670
f 486/602/670 499/727/667 487/600/668
f 501/725/671 500/726/669 485/604/672
f 485/604/672 500/726/669 486/602/670
f 502/724/673 501/725/671 484/606/674
f 484/606/674 501/725/671 485/604/672
f 503/607/675 502/724/673 483/608/676
f 483/608/676 502/724/673 484/606/674
f 504/722/677 503/607/675 482/610/678
f 482/610/678 503/607/675 483/608/676
f 505/721/679 504/722/677 481/612/680
f 481/612/680 504/722/677 482/610/678
f 506/720/681 505/721/679 480/614/682
f 480/614/682 505/721/679 481/612/680
f 507/719/683 506/720/681 479/616/684
f 479/616/684 506/720/681 480/614/682
f 508/718/685 507/719/683 478/618/686
f 478/618/686 507/719/683 479/616/684
f 509/717/687 508/718/685 477/620/688
f 477/620/688 508/718/685 478/618/686
f 510/714/689 509/717/687 475/622/690
f 475/622/690 509/717/687 477/620/688
f 493/623/656 510/714/689 474/624/658
f 474/624/658 510/714/689 475/622/690
s 162
f 456/569/691 493/588/692 457/568/693
f 457/568/693 493/588/692 494/732/694
f 458/570/695 457/568/693 495/591/696
f 495/591/696 457/568/693 494/732/694
f 459/571/697 458/570/695 496/593/698
f 496/593/698 458/570/695 495/591/696
f 460/572/699 459/571/697 497/595/700
f 497/595/700 459/571/697 496/593/698
f 461/573/701 460/572/699 498/597/702
f 498/597/702 460/572/699 497/595/700
f 462/574/703 461/573/701 499/599/704
f 499/599/704 461/573/701 498/597/702
f 462/574/703 499/599/704 463/575/705
f 463/575/705 499/599/704 500/601/706
f 463/575/705 500/601/706 464/576/707
f 464/576/707 500/601/706 501/603/708
f 464/576/707 501/603/708 465/577/709
f 465/577/709 501/603/708 502/605/710
f 465/577/709 502/605/710 466/578/711
f 466/578/711 502/605/710 503/723/712
f 467/579/713 466/578/711 504/609/714
f 504/609/714 466/578/711 503/723/712
f 468/580/715 467/579/713 505/611/716
f 505/611/716 467/579/713 504/609/714
f 469/581/717 468/580/715 506/613/718
f 506/613/718 468/580/715 505/611/716
f 470/582/719 469/581/717 507/615/720
f 507/615/720 469/581/717 506/613/718
f 471/583/721 470/582/719 508/617/722
f 508/617/722 470/582/719 507/615/720
f 471/583/721 508/617/722 472/584/723
f 472/584/723 508/617/722 509/619/724
f 472/584/723 509/619/724 473/585/725
f 473/585/725 509/619/724 510/621/726
f 473/585/725 510/621/726 456/586/691
f 456/586/691 510/621/726 493/716/692
