# This file uses meters as units for non-parametric coordinates.

mtllib Spoon.mtl
g default
v -0.683125 6.092335 -0.170218
v -0.683125 6.092335 0.170218
v -0.857626 18.964638 -0.927159
v -0.857626 18.964638 -0.599407
v 0.857626 18.964638 -0.927159
v 0.857626 18.964638 -0.599407
v 0.683125 6.092335 -0.170218
v 0.683125 6.092335 0.170218
v -0.683125 11.976439 -0.170218
v 0.683125 11.976439 -0.170218
v 0.683125 11.976439 0.170218
v -0.683125 11.976439 0.170218
v 0.857626 15.271053 -0.271148
v -0.857626 15.271053 -0.271148
v -0.857626 15.271053 0.068611
v 0.857626 15.271053 0.068611
v 0.857626 17.117847 -0.750082
v -0.857626 17.117847 -0.750082
v -0.857626 17.117847 -0.421243
v 0.857626 17.117847 -0.421243
v 1.967976 18.964638 -0.207810
v 1.967976 18.964638 0.124895
v 1.967976 17.117847 0.143404
v 1.967976 17.117847 -0.191079
v 1.420714 15.901995 0.141939
v 1.420714 15.901995 -0.196667
v -1.967976 17.117847 -0.191079
v -1.967976 17.117847 0.143404
v -1.967976 18.964638 0.124895
v -1.967976 18.964638 -0.207810
v -1.420714 15.901995 -0.196667
v -1.420714 15.901995 0.141939
v -0.672854 22.084618 -0.244464
v -0.672854 22.084618 0.093958
v 0.672854 22.084618 0.093959
v 0.672854 22.084618 -0.244464
v 1.543983 20.996204 0.090920
v 1.543983 20.996204 -0.244037
v -1.543983 20.996204 -0.244037
v -1.543983 20.996204 0.090920
v 0.000000 6.092335 0.170218
v 0.000000 11.976439 0.170218
v 0.000000 15.271053 0.042016
v 0.000000 17.117847 -0.493455
v 0.000000 18.964638 -0.669466
v 0.000000 22.328251 0.091381
v 0.000000 22.328251 -0.247613
v 0.000000 18.964638 -0.994837
v 0.000000 17.117847 -0.820159
v 0.000000 15.271053 -0.298220
v 0.000000 11.976439 -0.170218
v 0.000000 6.092335 -0.170218
v -0.683125 14.330080 -0.171976
v 0.000000 14.330080 -0.173436
v 0.683125 14.330080 -0.171975
v 0.683125 14.330080 0.168460
v 0.000000 14.330080 0.167000
v -0.683125 14.330080 0.168460
v 0.708165 14.800566 -0.200667
v 0.000000 14.800566 -0.209710
v -0.708165 14.800566 -0.200667
v -0.708165 14.800566 0.138524
v 0.000000 14.800566 0.129889
v 0.708165 14.800566 0.138524
v -0.895982 16.194450 -0.509469
v 0.000000 16.194450 -0.570128
v 0.895982 16.194450 -0.509469
v 1.770121 16.509922 -0.184196
v 1.770121 16.509922 0.152323
v 0.895981 16.194450 -0.173206
v 0.000000 16.194450 -0.234957
v -0.895982 16.194450 -0.173206
v -1.770121 16.509922 0.152323
v -1.770121 16.509922 -0.184196
v 0.885804 18.041241 -0.880927
v 0.000000 18.041241 -0.954873
v -0.885804 18.041241 -0.880927
v -2.032635 18.041241 -0.186123
v -2.032635 18.041241 0.146605
v -0.885804 18.041241 -0.554416
v 0.000000 18.041241 -0.630757
v 0.885804 18.041241 -0.554416
v 2.032635 18.041241 0.146605
v 2.032635 18.041241 -0.186123
v -0.799464 20.013165 -0.878544
v 0.000000 20.134983 -0.915124
v 0.799464 20.013165 -0.878544
v 1.834512 19.980423 -0.232597
v 1.834512 19.980423 0.100183
v 0.799464 20.013165 -0.548984
v 0.000000 20.134983 -0.586637
v -0.799464 20.013165 -0.548984
v -1.834512 19.980423 0.100183
v -1.834512 19.980423 -0.232597
v -0.761190 20.996204 -0.379241
v 0.000000 20.996204 -0.433632
v 0.761190 20.996204 -0.379241
v 0.761190 20.996204 -0.711787
v 0.000000 20.996204 -0.764915
v -0.761190 20.996204 -0.711787
v -1.169997 21.540409 0.089908
v -0.717022 21.540409 -0.226163
v 0.000000 21.540409 -0.265573
v 0.717022 21.540409 -0.226163
v 1.169997 21.540409 0.089908
v 1.169997 21.540409 -0.246761
v 0.717022 21.540409 -0.562279
v 0.000000 21.540409 -0.601187
v -0.717022 21.540409 -0.562279
v -1.169997 21.540409 -0.246761
v 0.341562 6.092335 -0.170218
v 0.341562 11.976439 -0.170218
v 0.341562 14.330080 -0.173028
v 0.354083 14.800566 -0.207205
v 0.428813 15.271053 -0.290931
v 0.447991 16.194450 -0.554226
v 0.428813 17.117847 -0.802002
v 0.442902 18.041241 -0.935771
v 0.428813 18.964638 -0.977324
v 0.399732 20.074074 -0.912742
v 0.380595 20.996204 -0.751235
v 0.358511 21.540409 -0.591167
v 0.336427 22.268723 -0.258192
v 0.336427 22.268723 0.080678
v 0.358511 21.540409 -0.255414
v 0.380595 20.996204 -0.419639
v 0.399732 20.074074 -0.584186
v 0.428813 18.964638 -0.651357
v 0.442902 18.041241 -0.610943
v 0.428813 17.117847 -0.474730
v 0.447991 16.194450 -0.218752
v 0.428813 15.271053 0.049188
v 0.354083 14.800566 0.131848
v 0.341562 14.330080 0.167000
v 0.341562 11.976439 0.170218
v 0.341562 6.092335 0.170218
v -0.341562 6.092335 0.170218
v -0.341562 11.976439 0.170218
v -0.341562 14.330080 0.167000
v -0.354083 14.800566 0.131848
v -0.428813 15.271053 0.049188
v -0.447991 16.194450 -0.218752
v -0.428813 17.117847 -0.474730
v -0.442902 18.041241 -0.610944
v -0.428813 18.964638 -0.651357
v -0.399732 20.074074 -0.584186
v -0.380595 20.996204 -0.419639
v -0.358511 21.540409 -0.255414
v -0.336427 22.268723 0.080678
v -0.336427 22.268723 -0.258192
v -0.358511 21.540409 -0.591167
v -0.380595 20.996204 -0.751235
v -0.399732 20.074074 -0.912742
v -0.428813 18.964638 -0.977324
v -0.442902 18.041241 -0.935771
v -0.428813 17.117847 -0.802002
v -0.447991 16.194450 -0.554226
v -0.428813 15.271053 -0.290931
v -0.354083 14.800566 -0.207205
v -0.341562 14.330080 -0.173028
v -0.341562 11.976439 -0.170218
v -0.341562 6.092335 -0.170218
v -0.943509 21.540409 -0.151079
v -1.152586 20.996204 -0.227113
v -1.316988 19.996796 -0.307352
v -1.412801 18.964638 -0.320208
v -1.459219 18.041241 -0.286858
v -1.412801 17.117847 -0.221871
v -1.333051 16.352184 -0.093394
v -1.139170 15.586525 0.105275
v -1.139170 15.586525 -0.233907
v -1.333051 16.352184 -0.429785
v -1.412801 17.117847 -0.553532
v -1.459219 18.041241 -0.616477
v -1.412801 18.964638 -0.650436
v -1.316988 19.996796 -0.638522
v -1.152586 20.996204 -0.560864
v -0.943509 21.540409 -0.487472
v 0.943509 21.540409 -0.487472
v 1.152586 20.996204 -0.560864
v 1.316988 19.996796 -0.638522
v 1.412801 18.964638 -0.650436
v 1.459219 18.041241 -0.616477
v 1.412801 17.117847 -0.553532
v 1.333051 16.352184 -0.429785
v 1.139170 15.586525 -0.233907
v 1.139170 15.586525 0.105275
v 1.333051 16.352184 -0.093393
v 1.412801 17.117847 -0.221871
v 1.459219 18.041241 -0.286858
v 1.412801 18.964638 -0.320208
v 1.316988 19.996796 -0.307352
v 1.152586 20.996204 -0.227113
v 0.943509 21.540409 -0.151079
v -0.755481 21.268311 -0.302702
v -1.071267 21.268311 -0.189096
v -1.387054 21.268311 0.090414
v -1.387054 21.268311 -0.245399
v -1.071267 21.268311 -0.524168
v -0.755481 21.268311 -0.637033
v -0.377740 21.268311 -0.671201
v 0.000000 21.268311 -0.683051
v 0.377740 21.268311 -0.671201
v 0.755481 21.268311 -0.637033
v 1.071267 21.268311 -0.524168
v 1.387054 21.268311 -0.245399
v 1.387054 21.268311 0.090414
v 1.071267 21.268311 -0.189096
v 0.755481 21.268311 -0.302702
v 0.377740 21.268311 -0.337527
v 0.000000 21.268311 -0.349602
v -0.377740 21.268311 -0.337527
v -0.797615 20.504684 -0.795166
v -0.398807 20.535137 -0.831989
v 0.000000 20.565594 -0.840020
v 0.398807 20.535137 -0.831989
v 0.797615 20.504684 -0.795166
v 1.262144 20.496498 -0.599693
v 1.726672 20.488312 -0.238317
v 1.726672 20.488312 0.095551
v 1.262144 20.496498 -0.267232
v 0.797615 20.504684 -0.464113
v 0.398807 20.535137 -0.501912
v 0.000000 20.565594 -0.510134
v -0.398807 20.535137 -0.501912
v -0.797615 20.504684 -0.464113
v -1.262144 20.496498 -0.267232
v -1.726672 20.488312 0.095551
v -1.726672 20.488312 -0.238317
v -1.262144 20.496498 -0.599693
v -0.963704 21.812515 0.091933
v -0.891801 21.723045 -0.068844
v -0.737921 21.681778 -0.143005
v -0.371597 21.646461 -0.206476
v 0.000000 21.638237 -0.221248
v 0.371597 21.646461 -0.206476
v 0.737921 21.681778 -0.143005
v 0.891801 21.723045 -0.068844
v 0.963704 21.812515 0.091933
v 0.963704 21.812515 -0.245613
v -0.963704 21.812515 -0.245613
v -0.820298 21.860508 -0.344536
v -0.721761 21.872154 -0.368540
v -0.363546 21.900333 -0.426615
v 0.000000 21.905533 -0.437325
v 0.363546 21.900333 -0.426615
v 0.721761 21.872154 -0.368540
v 0.820298 21.860508 -0.344536
v -0.828545 19.488903 -0.902851
v -0.414272 19.519356 -0.945033
v 0.000000 19.549809 -0.954981
v 0.414272 19.519356 -0.945033
v 0.828545 19.488903 -0.902851
v 1.364894 19.480717 -0.644479
v 1.901244 19.472530 -0.220203
v 1.901244 19.472530 0.112539
v 1.364894 19.480717 -0.313780
v 0.828545 19.488903 -0.574196
v 0.414272 19.519356 -0.617772
v 0.000000 19.549809 -0.628051
v -0.414272 19.519356 -0.617772
v -0.828545 19.488903 -0.574195
v -1.364894 19.480717 -0.313780
v -1.901244 19.472530 0.112539
v -1.901244 19.472530 -0.220203
v -1.364894 19.480717 -0.644479
v -0.874533 17.671883 -0.828589
v -0.437266 17.671883 -0.882264
v 0.000000 17.671883 -0.900988
v 0.437266 17.671883 -0.882264
v 0.874533 17.671883 -0.828589
v 1.440652 17.671883 -0.591299
v 2.006771 17.671883 -0.188106
v 2.006772 17.671883 0.145324
v 1.440652 17.671883 -0.260863
v 0.874533 17.671883 -0.501147
v 0.437266 17.671883 -0.556458
v 0.000000 17.671883 -0.575836
v -0.437266 17.671883 -0.556458
v -0.874533 17.671883 -0.501147
v -1.440652 17.671883 -0.260863
v -2.006771 17.671883 0.145324
v -2.006771 17.671883 -0.188106
v -1.440652 17.671883 -0.591299
v 0.871715 18.502941 -0.904043
v 0.435858 18.502941 -0.956548
v 0.000000 18.502941 -0.974855
v -0.435858 18.502941 -0.956548
v -0.871715 18.502941 -0.904043
v -1.436010 18.502941 -0.633457
v -2.000305 18.502941 -0.196967
v -2.000305 18.502941 0.135749
v -1.436010 18.502941 -0.303533
v -0.871715 18.502941 -0.576912
v -0.435857 18.502941 -0.631150
v 0.000000 18.502941 -0.650111
v 0.435858 18.502941 -0.631150
v 0.871715 18.502941 -0.576912
v 1.436010 18.502941 -0.303533
v 2.000305 18.502941 0.135749
v 2.000305 18.502941 -0.196967
v 1.436010 18.502941 -0.633457
v 0.876804 16.656147 -0.629775
v 0.438402 16.656147 -0.678114
v 0.000000 16.656147 -0.695144
v -0.438402 16.656147 -0.678114
v -0.876804 16.656147 -0.629775
v -1.372926 16.735016 -0.491658
v -1.869049 16.813885 -0.187638
v -1.869049 16.813885 0.147863
v -1.372926 16.735016 -0.157632
v -0.876804 16.656147 -0.297224
v -0.438402 16.656147 -0.346741
v 0.000000 16.656147 -0.364206
v 0.438402 16.656147 -0.346741
v 0.876804 16.656147 -0.297224
v 1.372926 16.735016 -0.157632
v 1.869049 16.813885 0.147863
v 1.869049 16.813885 -0.187638
v 1.372926 16.735016 -0.491658
v 0.283787 0.000000 0.674613
v 0.533344 0.000000 0.549950
v 0.718573 0.000000 0.358954
v 0.817131 0.000000 0.124664
v 0.817132 0.000000 -0.124663
v 0.718573 0.000000 -0.358954
v 0.533345 0.000000 -0.549949
v 0.283787 0.000000 -0.674613
v 0.000000 0.000000 -0.717908
v -0.283787 0.000000 -0.674613
v -0.533345 0.000000 -0.549949
v -0.718573 0.000000 -0.358954
v -0.817131 0.000000 -0.124663
v -0.817132 0.000000 0.124663
v -0.718573 0.000000 0.358954
v -0.533345 0.000000 0.549949
v -0.283787 0.000000 0.674613
v 0.000000 0.000000 0.717908
v 0.000000 0.000000 0.000000
v 0.551634 3.341734 1.311336
v 0.000000 3.341734 1.395494
v -0.551635 3.341734 1.311336
v -1.036734 3.341734 1.069010
v -1.396788 3.341734 0.697747
v -1.588369 3.341734 0.242325
v -1.588369 3.341734 -0.242325
v -1.396788 3.341734 -0.697747
v -1.036734 3.341734 -1.069011
v -0.551634 3.341734 -1.311336
v 0.000000 3.341734 -1.395494
v 0.551635 3.341734 -1.311336
v 1.036734 3.341734 -1.069010
v 1.396788 3.341734 -0.697747
v 1.588369 3.341734 -0.242325
v 1.588369 3.341734 0.242325
v 1.396788 3.341734 0.697747
v 1.036734 3.341734 1.069011
v 0.571543 1.142270 1.358664
v 0.000000 1.142270 1.445859
v -0.571544 1.142270 1.358663
v -1.074151 1.142270 1.107593
v -1.447200 1.142270 0.722929
v -1.645695 1.142270 0.251070
v -1.645695 1.142270 -0.251071
v -1.447200 1.142270 -0.722930
v -1.074151 1.142270 -1.107593
v -0.571544 1.142270 -1.358664
v 0.000000 1.142270 -1.445859
v 0.571544 1.142270 -1.358663
v 1.074152 1.142270 -1.107592
v 1.447200 1.142270 -0.722929
v 1.645695 1.142270 -0.251070
v 1.645695 1.142270 0.251071
v 1.447200 1.142270 0.722930
v 1.074151 1.142270 1.107593
v 0.445115 6.584481 1.058119
v 0.000000 6.584481 1.126027
v -0.445115 6.584481 1.058119
v -0.836543 6.584481 0.862587
v -1.127071 6.584481 0.563014
v -1.281658 6.584481 0.195532
v -1.281658 6.584481 -0.195533
v -1.127071 6.584481 -0.563014
v -0.836543 6.584481 -0.862587
v -0.445115 6.584481 -1.058119
v 0.000000 6.584481 -1.126027
v 0.445115 6.584481 -1.058119
v 0.836543 6.584481 -0.862586
v 1.127071 6.584481 -0.563013
v 1.281658 6.584481 -0.195532
v 1.281658 6.584481 0.195533
v 1.127071 6.584481 0.563014
v 0.836542 6.584481 0.862587
v 0.465031 0.511511 1.105463
v 0.000000 0.511511 1.176409
v -0.465031 0.511511 1.105463
v -0.873973 0.511511 0.901182
v -1.177500 0.511511 0.588205
v -1.339004 0.511511 0.204281
v -1.339004 0.511511 -0.204282
v -1.177500 0.511511 -0.588205
v -0.873972 0.511511 -0.901182
v -0.465031 0.511511 -1.105463
v 0.000000 0.511511 -1.176409
v 0.465031 0.511511 -1.105463
v 0.873973 0.511511 -0.901182
v 1.177500 0.511511 -0.588204
v 1.339004 0.511511 -0.204281
v 1.339004 0.511511 0.204282
v 1.177500 0.511511 0.588205
v 0.873972 0.511511 0.901182
v 0.610754 2.089258 1.451876
v 0.000000 2.089258 1.545054
v -0.610755 2.089258 1.451876
v -1.147844 2.089258 1.183580
v -1.546486 2.089258 0.772527
v -1.758599 2.089258 0.268296
v -1.758599 2.089258 -0.268296
v -1.546486 2.089258 -0.772527
v -1.147844 2.089258 -1.183580
v -0.610755 2.089258 -1.451876
v 0.000000 2.089258 -1.545054
v 0.610755 2.089258 -1.451875
v 1.147844 2.089258 -1.183579
v 1.546486 2.089258 -0.772527
v 1.758599 2.089258 -0.268295
v 1.758599 2.089258 0.268296
v 1.546486 2.089258 0.772527
v 1.147844 2.089258 1.183580
v 0.465031 5.245657 1.105463
v 0.000000 5.245657 1.176409
v -0.465031 5.245657 1.105463
v -0.873973 5.245657 0.901182
v -1.177500 5.245657 0.588205
v -1.339004 5.245657 0.204281
v -1.339004 5.245657 -0.204282
v -1.177500 5.245657 -0.588205
v -0.873972 5.245657 -0.901182
v -0.465031 5.245657 -1.105463
v 0.000000 5.245657 -1.176409
v 0.465031 5.245657 -1.105463
v 0.873973 5.245657 -0.901182
v 1.177500 5.245657 -0.588204
v 1.339004 5.245657 -0.204281
v 1.339004 5.245657 0.204282
v 1.177500 5.245657 0.588205
v 0.873972 5.245657 0.901182
v 0.426077 8.030064 1.012864
v 0.000000 8.030064 1.077867
v -0.426078 8.030064 1.012864
v -0.800764 8.030064 0.825694
v -1.078867 8.030064 0.538934
v -1.226842 8.030064 0.187170
v -1.226842 8.030064 -0.187170
v -1.078867 8.030064 -0.538934
v -0.800764 8.030064 -0.825694
v -0.426077 8.030064 -1.012864
v 0.000000 8.030064 -1.077867
v 0.426078 8.030064 -1.012864
v 0.800764 8.030064 -0.825694
v 1.078867 8.030064 -0.538934
v 1.226842 8.030064 -0.187169
v 1.226842 8.030064 0.187170
v 1.078866 8.030064 0.538934
v 0.800764 8.030064 0.825695
v 0.426077 8.977228 1.012864
v 0.000000 8.977228 1.077867
v -0.426078 8.977228 1.012864
v -0.800764 8.977228 0.825694
v -1.078867 8.977228 0.538934
v -1.226842 8.977228 0.187170
v -1.226842 8.977228 -0.187170
v -1.078867 8.977228 -0.538934
v -0.800764 8.977228 -0.825694
v -0.426077 8.977228 -1.012864
v 0.000000 8.977228 -1.077867
v 0.426078 8.977228 -1.012864
v 0.800764 8.977228 -0.825694
v 1.078867 8.977228 -0.538934
v 1.226842 8.977228 -0.187169
v 1.226842 8.977228 0.187170
v 1.078866 8.977228 0.538934
v 0.800764 8.977228 0.825695
v 0.446609 9.991434 1.077551
v 0.840941 9.991434 0.880568
v 0.000000 9.991434 0.000000
v 1.135775 9.991434 0.576555
v 1.293885 9.991434 0.200698
v 1.293886 9.991434 -0.200697
v 1.135775 9.991434 -0.576555
v 0.840942 9.991434 -0.880567
v 0.446609 9.991434 -1.077551
v 0.000000 9.991434 -1.145687
v -0.446609 9.991434 -1.077551
v -0.840941 9.991434 -0.880568
v -1.135775 9.991434 -0.576555
v -1.293886 9.991434 -0.200697
v -1.293886 9.991434 0.200697
v -1.135775 9.991434 0.576555
v -0.840941 9.991434 0.880567
v -0.446609 9.991434 1.077551
v 0.000000 9.991434 1.145687
v 0.446609 8.977228 1.077551
v 0.000000 8.977228 1.145687
v -0.446609 8.977228 1.077551
v -0.840942 8.977228 0.880567
v -1.135775 8.977228 0.576555
v -1.293886 8.977228 0.200697
v -1.293886 8.977228 -0.200697
v -1.135775 8.977228 -0.576555
v -0.840941 8.977228 -0.880568
v -0.446609 8.977228 -1.077551
v 0.000000 8.977228 -1.145687
v 0.446609 8.977228 -1.077551
v 0.840942 8.977228 -0.880567
v 1.135775 8.977228 -0.576555
v 1.293886 8.977228 -0.200697
v 1.293885 8.977228 0.200698
v 1.135775 8.977228 0.576555
v 0.840941 8.977228 0.880568
vt 0.974630 0.356914
vt 0.897495 0.294501
vt 0.529212 0.742987
vt 0.991575 0.000024
vt 0.043049 0.679684
vt 0.520709 0.963629
vt 0.543961 0.943922
vt 0.711850 0.431561
vt 0.942119 0.683809
vt 0.945984 0.327134
vt 0.962755 0.684032
vt 0.966620 0.327358
vt 0.549939 0.386293
vt 0.549917 0.742989
vt 0.570622 0.742990
vt 0.876786 0.651197
vt 0.876790 0.294501
vt 0.717386 0.226651
vt 0.718002 0.199214
vt 0.743429 0.226912
vt 0.744606 0.199396
vt 0.216695 0.966921
vt 0.557452 0.197730
vt 0.235707 0.855589
vt 0.558989 0.227097
vt 0.264836 0.670203
vt 0.264756 0.696785
vt 0.237310 0.671139
vt 0.237314 0.697164
vt 0.266220 0.588922
vt 0.236859 0.590458
vt 0.825767 0.198860
vt 0.823982 0.228213
vt 0.975999 0.499585
vt 0.876785 0.793876
vt 0.856081 0.651196
vt 0.996636 0.499372
vt 0.549908 0.885669
vt 0.947424 0.184463
vt 0.968060 0.184687
vt 0.719613 0.058482
vt 0.882069 0.851449
vt 0.747128 0.058429
vt 0.745602 0.000532
vt 0.782808 0.037411
vt 0.427323 0.633294
vt 0.906229 0.947630
vt 0.390551 0.609830
vt 0.991188 0.557918
vt 0.544620 0.943235
vt 0.405920 0.668817
vt 0.405616 0.696334
vt 0.093770 0.967908
vt 0.426550 0.814382
vt 0.093773 0.947508
vt 0.051267 0.946746
vt 0.390098 0.943842
vt 0.390095 0.964199
vt 0.590353 0.355339
vt 0.371053 0.964227
vt 0.236856 0.774914
vt 0.264375 0.776088
vt 0.236305 0.812562
vt 0.264544 0.814078
vt 0.600655 0.198523
vt 0.638605 0.198949
vt 0.601932 0.226772
vt 0.639550 0.226474
vt 0.025632 0.965045
vt 0.396528 0.806178
vt 0.405450 0.778680
vt 0.025635 0.944484
vt 0.637271 0.057966
vt 0.609707 0.066677
vt 0.265335 0.632216
vt 0.237087 0.633489
vt 0.568102 0.964318
vt 0.568105 0.943856
vt 0.781044 0.227526
vt 0.782559 0.199289
vt 0.974367 0.944627
vt 0.974364 0.965188
vt 0.397234 0.641244
vt 0.774617 0.067371
vt 0.204330 0.697783
vt 0.206033 0.672504
vt 0.741780 0.258162
vt 0.716472 0.259611
vt 0.204808 0.809518
vt 0.205592 0.773276
vt 0.275808 0.945352
vt 0.203353 0.851124
vt 0.604714 0.258289
vt 0.640936 0.257737
vt 0.777997 0.259019
vt 0.204477 0.594642
vt 0.724194 0.945420
vt 0.205569 0.636258
vt 0.612033 0.742992
vt 0.591328 0.742991
vt 0.612056 0.386297
vt 0.591350 0.386296
vt 0.612024 0.885665
vt 0.591319 0.885671
vt 0.405381 0.751161
vt 0.596599 0.943238
vt 0.962641 0.126138
vt 0.237088 0.748889
vt 0.264526 0.749506
vt 0.204110 0.747981
vt 0.669404 0.431382
vt 0.479287 0.963622
vt 0.647810 0.420504
vt 0.042821 0.764619
vt 0.665595 0.226433
vt 0.666231 0.259399
vt 0.665209 0.198992
vt 0.639284 0.000084
vt 0.830090 0.851448
vt 0.664784 0.058251
vt 0.814669 0.793869
vt 0.814670 0.651196
vt 0.835375 0.793876
vt 0.835376 0.651196
vt 0.814673 0.294501
vt 0.835379 0.294501
vt 0.974556 0.528163
vt 0.877552 0.822474
vt 0.692444 0.000024
vt 0.945994 0.155885
vt 0.834607 0.822474
vt 0.966555 0.156108
vt 0.592083 0.914274
vt 0.463916 0.723995
vt 0.995116 0.527950
vt 0.549140 0.914272
vt 0.570611 0.914288
vt 0.717909 0.115989
vt 0.718783 0.087293
vt 0.745634 0.087214
vt 0.638522 0.086763
vt 0.665372 0.087068
vt 0.639887 0.115447
vt 0.666004 0.115771
vt 0.606929 0.090246
vt 0.604325 0.113850
vt 0.113147 0.967640
vt 0.571200 0.092008
vt 0.352114 0.851226
vt 0.564308 0.110761
vt 0.376610 0.777161
vt 0.349256 0.811116
vt 0.372909 0.808738
vt 0.347758 0.749423
vt 0.376512 0.750315
vt 0.347888 0.775521
vt 0.377070 0.670091
vt 0.376741 0.696935
vt 0.347981 0.697582
vt 0.373638 0.638482
vt 0.350009 0.635903
vt 0.371967 0.602712
vt 0.812910 0.093026
vt 0.819644 0.111836
vt 0.779602 0.114588
vt 0.777196 0.090963
vt 0.665330 0.149253
vt 0.638647 0.149032
vt 0.718301 0.149476
vt 0.744985 0.149480
vt 0.782152 0.148412
vt 0.833803 0.967595
vt 0.824255 0.146379
vt 0.314749 0.670249
vt 0.316206 0.633061
vt 0.314495 0.696910
vt 0.314266 0.749809
vt 0.314290 0.776471
vt 0.315427 0.813670
vt 0.166193 0.967494
vt 0.559406 0.145264
vt 0.601490 0.147652
vt 0.733628 0.382622
vt 0.735385 0.405840
vt 0.712995 0.406767
vt 0.712230 0.382645
vt 0.669436 0.382465
vt 0.668469 0.406580
vt 0.648040 0.382261
vt 0.646087 0.405464
vt 0.633989 0.383132
vt 0.639792 0.404990
vt 0.615257 0.387984
vt 0.431898 0.943836
vt 0.171089 0.845656
vt 0.568355 0.291846
vt 0.139197 0.836884
vt 0.338336 0.944264
vt 0.071137 0.767194
vt 0.067393 0.777189
vt 0.074005 0.744762
vt 0.080890 0.765524
vt 0.071436 0.677347
vt 0.074151 0.699810
vt 0.081213 0.679124
vt 0.067891 0.667355
vt 0.693138 0.964837
vt 0.140217 0.608313
vt 0.814071 0.292881
vt 0.805231 0.324800
vt 0.747671 0.383610
vt 0.741684 0.405419
vt 0.143655 0.643876
vt 0.174157 0.639991
vt 0.145065 0.674342
vt 0.174798 0.674436
vt 0.171364 0.698644
vt 0.143491 0.698559
vt 0.144647 0.770894
vt 0.143286 0.746659
vt 0.174375 0.771067
vt 0.171154 0.746826
vt 0.173427 0.805508
vt 0.142959 0.801351
vt 0.612443 0.320160
vt 0.608475 0.289692
vt 0.642886 0.318634
vt 0.642902 0.288947
vt 0.667120 0.292339
vt 0.667085 0.320179
vt 0.739317 0.319040
vt 0.715106 0.320381
vt 0.739552 0.289354
vt 0.715306 0.292542
vt 0.773971 0.290389
vt 0.769747 0.320822
vt 0.096888 0.657018
vt 0.113389 0.651608
vt 0.098292 0.677001
vt 0.115230 0.676733
vt 0.115492 0.699671
vt 0.098400 0.699735
vt 0.097924 0.767808
vt 0.098228 0.745063
vt 0.114844 0.768232
vt 0.115308 0.745287
vt 0.112766 0.793345
vt 0.096317 0.787783
vt 0.625943 0.366641
vt 0.620332 0.350313
vt 0.645816 0.365245
vt 0.645412 0.348389
vt 0.668276 0.348158
vt 0.668404 0.365243
vt 0.735995 0.365625
vt 0.713408 0.365433
vt 0.736541 0.348773
vt 0.713679 0.348349
vt 0.761604 0.350908
vt 0.755856 0.367188
vt 0.431895 0.964298
vt 0.609905 0.943875
vt 0.791539 0.356187
vt 0.609902 0.964232
vt 0.628943 0.964266
vt 0.856084 0.294501
vt 0.856080 0.793878
vt 0.856080 0.822493
vt 0.692198 0.058447
vt 0.692077 0.087260
vt 0.691956 0.115971
vt 0.691815 0.149411
vt 0.691606 0.199081
vt 0.691491 0.226499
vt 0.691344 0.261247
vt 0.691088 0.322006
vt 0.691198 0.295988
vt 0.690906 0.365307
vt 0.690978 0.348148
vt 0.690730 0.407138
vt 0.690833 0.382583
vt 0.028547 0.722149
vt 0.500001 0.943725
vt 0.074694 0.722291
vt 0.098393 0.722397
vt 0.115527 0.722478
vt 0.141658 0.722600
vt 0.167698 0.722718
vt 0.202465 0.722874
vt 0.237237 0.723027
vt 0.264652 0.723146
vt 0.347766 0.723502
vt 0.314322 0.723359
vt 0.376538 0.723625
vt 0.405412 0.723747
vt 0.570613 0.885671
vt 0.570645 0.386294
vt 0.080109 0.664888
vt 0.079613 0.779759
vt 0.766361 0.388620
vt 0.588802 0.964198
vt 0.411195 0.964172
vt 0.081065 0.743899
vt 0.081189 0.722318
vt 0.081212 0.700738
vt 0.718468 0.171735
vt 0.745375 0.171807
vt 0.691722 0.171643
vt 0.664975 0.171510
vt 0.638068 0.171355
vt 0.599994 0.170256
vt 0.188641 0.947405
vt 0.294347 0.858400
vt 0.292807 0.814962
vt 0.291960 0.776846
vt 0.292003 0.749968
vt 0.292084 0.723264
vt 0.292234 0.696560
vt 0.292425 0.669683
vt 0.293601 0.631575
vt 0.295511 0.588152
vt 0.811360 0.947499
vt 0.783457 0.171028
vt 0.103947 0.002261
vt 0.115630 0.014876
vt 0.065336 0.030872
vt 0.084792 0.049003
vt 0.130633 0.024454
vt 0.105852 0.062041
vt 0.147597 0.031431
vt 0.127539 0.071183
vt 0.166004 0.036177
vt 0.149924 0.077179
vt 0.185825 0.039067
vt 0.173459 0.080660
vt 0.207147 0.040556
vt 0.198483 0.082307
vt 0.229898 0.041165
vt 0.224922 0.082896
vt 0.253722 0.041393
vt 0.252227 0.083176
vt 0.277984 0.041554
vt 0.279531 0.083607
vt 0.301931 0.041653
vt 0.305988 0.084126
vt 0.324973 0.041377
vt 0.331144 0.084178
vt 0.346916 0.040239
vt 0.355120 0.083040
vt 0.367970 0.037786
vt 0.378520 0.080135
vt 0.388514 0.033752
vt 0.402124 0.075160
vt 0.408746 0.028053
vt 0.426514 0.068030
vt 0.428377 0.020675
vt 0.451748 0.058690
vt 0.446424 0.011474
vt 0.477177 0.046772
vt 0.461130 0.000000
vt 0.501326 0.031178
vt 0.920698 0.194927
vt 0.915108 0.210887
vt 0.874278 0.193528
vt 0.920690 0.178798
vt 0.915084 0.164446
vt 0.904556 0.153602
vt 0.890376 0.147573
vt 0.874255 0.147087
vt 0.858136 0.152202
vt 0.843965 0.162302
vt 0.833449 0.176168
vt 0.827859 0.192128
vt 0.827867 0.208257
vt 0.833473 0.222609
vt 0.844001 0.233453
vt 0.858181 0.239482
vt 0.874302 0.239968
vt 0.890421 0.234853
vt 0.904592 0.224753
vt 0.922914 0.139568
vt 0.897443 0.147643
vt 0.896859 0.073834
vt 0.871782 0.146862
vt 0.849037 0.137183
vt 0.832093 0.119720
vt 0.823106 0.096693
vt 0.823101 0.071020
vt 0.831942 0.045804
vt 0.848497 0.023987
vt 0.870804 0.008099
vt 0.896276 0.000024
vt 0.921937 0.000805
vt 0.944681 0.010484
vt 0.961625 0.027948
vt 0.970612 0.050975
vt 0.970618 0.076647
vt 0.961776 0.101863
vt 0.945221 0.123680
vt 0.521136 0.237358
vt 0.554667 0.237636
vt 0.502372 0.362408
vt 0.531124 0.364683
vt 0.488023 0.239112
vt 0.473181 0.361253
vt 0.456127 0.241663
vt 0.444404 0.360846
vt 0.425856 0.244286
vt 0.416606 0.360900
vt 0.397010 0.246698
vt 0.389768 0.361257
vt 0.368769 0.248852
vt 0.363233 0.361834
vt 0.340048 0.250695
vt 0.336043 0.362535
vt 0.310071 0.252062
vt 0.307500 0.363197
vt 0.278710 0.252738
vt 0.277533 0.363620
vt 0.246440 0.252565
vt 0.246682 0.363652
vt 0.214075 0.251487
vt 0.215837 0.363251
vt 0.182442 0.249563
vt 0.185893 0.362512
vt 0.152049 0.246972
vt 0.157403 0.361636
vt 0.122797 0.243969
vt 0.130311 0.360867
vt 0.093917 0.240786
vt 0.103941 0.360427
vt 0.064303 0.237630
vt 0.077359 0.360511
vt 0.033087 0.234903
vt 0.049946 0.361347
vt 0.000000 0.233596
vt 0.021724 0.363279
vt 0.500874 0.087774
vt 0.532815 0.074793
vt 0.519081 0.150907
vt 0.555063 0.144665
vt 0.469978 0.098790
vt 0.484850 0.157879
vt 0.440655 0.107807
vt 0.452704 0.164354
vt 0.413094 0.114826
vt 0.422712 0.169746
vt 0.386941 0.119856
vt 0.394436 0.173905
vt 0.361361 0.123009
vt 0.366920 0.176922
vt 0.335355 0.124557
vt 0.339028 0.178935
vt 0.308202 0.124929
vt 0.309953 0.180054
vt 0.279738 0.124663
vt 0.279531 0.180394
vt 0.250359 0.124199
vt 0.248187 0.180063
vt 0.220840 0.123604
vt 0.216695 0.179058
vt 0.192015 0.122502
vt 0.185861 0.177221
vt 0.164434 0.120272
vt 0.156193 0.174333
vt 0.138103 0.116288
vt 0.127591 0.170221
vt 0.112447 0.109984
vt 0.099267 0.164717
vt 0.086591 0.100784
vt 0.070031 0.157611
vt 0.059839 0.088041
vt 0.038764 0.148835
vt 0.032000 0.071045
vt 0.004613 0.138925
vt 0.490839 0.446389
vt 0.518413 0.448437
vt 0.481658 0.535204
vt 0.508121 0.536874
vt 0.462974 0.444847
vt 0.454890 0.533765
vt 0.435593 0.443772
vt 0.428597 0.532599
vt 0.409202 0.443088
vt 0.403278 0.531715
vt 0.383757 0.442723
vt 0.378888 0.531091
vt 0.358602 0.442615
vt 0.354803 0.530691
vt 0.332797 0.442694
vt 0.330122 0.530474
vt 0.305659 0.442871
vt 0.304194 0.530402
vt 0.277122 0.443045
vt 0.276956 0.530438
vt 0.247730 0.443134
vt 0.248919 0.530555
vt 0.218377 0.443115
vt 0.220926 0.530743
vt 0.189955 0.443042
vt 0.193815 0.531015
vt 0.162999 0.443021
vt 0.168087 0.531408
vt 0.137440 0.443180
vt 0.143671 0.531965
vt 0.112596 0.443636
vt 0.119914 0.532741
vt 0.087536 0.444502
vt 0.095927 0.533796
vt 0.061613 0.445893
vt 0.071099 0.535186
vt 0.034779 0.447917
vt 0.045394 0.536935
vt 0.471040 0.822699
vt 0.504534 0.594596
vt 0.446398 0.831701
vt 0.422197 0.839435
vt 0.398848 0.845845
vt 0.376280 0.850901
vt 0.353305 0.588571
vt 0.331049 0.857011
vt 0.307036 0.858298
vt 0.281836 0.858510
vt 0.255883 0.857654
vt 0.229939 0.855924
vt 0.204795 0.853198
vt 0.180903 0.849557
vt 0.158238 0.844964
vt 0.123063 0.590777
vt 0.114335 0.831977
vt 0.091804 0.823138
vt 0.069100 0.812167
vt 0.472647 0.826454
vt 0.497597 0.815564
vt 0.493586 0.883849
vt 0.519292 0.873699
vt 0.447736 0.835543
vt 0.466940 0.893633
vt 0.423353 0.843337
vt 0.440295 0.902186
vt 0.399810 0.849797
vt 0.414169 0.909276
vt 0.377016 0.854899
vt 0.388569 0.914913
vt 0.354433 0.858636
vt 0.363015 0.919192
vt 0.331315 0.861071
vt 0.336850 0.922153
vt 0.307106 0.862369
vt 0.309648 0.923813
vt 0.281741 0.862582
vt 0.281413 0.924196
vt 0.255646 0.861761
vt 0.252597 0.923319
vt 0.229560 0.859979
vt 0.223881 0.921262
vt 0.204251 0.857232
vt 0.195919 0.918091
vt 0.180167 0.853558
vt 0.169125 0.913843
vt 0.157276 0.848914
vt 0.143458 0.908520
vt 0.135093 0.843078
vt 0.118435 0.902010
vt 0.112888 0.835778
vt 0.093468 0.894102
vt 0.090044 0.826809
vt 0.068228 0.884718
vt 0.066554 0.815533
vt 0.042820 0.874168
vt 0.744028 0.115886
vt 0.348336 0.671486
vt 0.353208 0.595819
vt 0.074880 0.593102
vt 0.049283 0.594614
vt 0.495215 0.812138
vt 0.099440 0.591812
vt 0.136280 0.839252
vt 0.146397 0.589967
vt 0.170349 0.589337
vt 0.195580 0.588858
vt 0.222170 0.588509
vt 0.249625 0.588275
vt 0.277109 0.588154
vt 0.303789 0.588153
vt 0.329162 0.588287
vt 0.353948 0.854660
vt 0.376877 0.589024
vt 0.400783 0.589682
vt 0.425665 0.590585
vt 0.451599 0.591747
vt 0.478132 0.593127
vt 0.719069 0.000250
vt 0.970593 0.558131
vt 0.908089 0.851263
vt 0.463915 0.697369
vt 0.570610 0.943303
vt 0.463687 0.750620
vt 0.622618 0.943060
vt 0.463402 0.777153
vt 0.665819 0.000025
vt 0.856079 0.851515
vt 0.527668 0.914224
vt 0.999997 0.962969
vt 0.518601 0.943053
vt 0.899023 0.822429
vt 0.529202 0.885660
vt 0.897491 0.793869
vt 0.804070 0.851262
vt 0.942046 0.125915
vt 0.613555 0.914230
vt 0.813136 0.822428
vt 0.995266 0.356700
vt 0.897492 0.651196
vt 0.529234 0.386292
vt 0.970939 0.000237
vt 0.113150 0.947302
vt 0.578310 0.073425
vt 0.370932 0.844492
vt 0.389578 0.837533
vt 0.886848 0.967756
vt 0.867470 0.967483
vt 0.886851 0.947418
vt 0.867473 0.947207
vt 0.216698 0.946752
vt 0.556664 0.168445
vt 0.265059 0.857378
vt 0.188638 0.967575
vt 0.783300 0.967007
vt 0.755244 0.966344
vt 0.783303 0.946837
vt 0.755247 0.946176
vt 0.833806 0.947382
vt 0.826802 0.169583
vt 0.318697 0.590892
vt 0.811357 0.967669
vt 0.317558 0.855858
vt 0.132525 0.967373
vt 0.166196 0.947282
vt 0.132528 0.947096
vt 0.819527 0.260581
vt 0.693141 0.944664
vt 0.724191 0.965591
vt 0.172177 0.599827
vt 0.275805 0.965523
vt 0.306859 0.964779
vt 0.563171 0.259501
vt 0.306862 0.944606
vt 0.752666 0.404932
vt 0.588805 0.943789
vt 0.628814 0.404410
vt 0.411198 0.943763
vt 0.058082 0.784406
vt 0.074451 0.798786
vt 0.058653 0.660030
vt 0.075142 0.645805
vt 0.661666 0.944312
vt 0.628946 0.943961
vt 0.661663 0.964551
vt 0.108718 0.621610
vt 0.338333 0.964503
vt 0.107809 0.823297
vt 0.576926 0.323839
vt 0.371056 0.943922
vt 0.091414 0.812548
vt 0.601143 0.371708
vt 0.780612 0.372464
vt 0.092228 0.632205
vt 0.445007 0.795754
vt 0.051264 0.967272
vt 0.620540 0.018335
vt 0.601768 0.036649
vt 0.764192 0.018940
vt 0.948735 0.946880
vt 0.445620 0.652079
vt 0.948732 0.967407
vt 0.520712 0.943086
vt 0.690612 0.435204
vt 0.032537 0.701215
vt 0.499998 0.964274
vt 0.032420 0.743104
vt 0.456039 0.964424
vt 0.479290 0.943080
vt 0.456042 0.943909
vt 0.805956 0.074383
vt 0.906226 0.968030
vt 0.543958 0.964437
vt 0.733536 0.420865
vt 0.244755 0.946099
vt 0.244752 0.966268
vt 0.463855 0.670835
vt 1.000000 0.942373
vt 0.000003 0.942223
vt 0.000000 0.962819
vn -1.000000 -0.000000 0.000000
vn -1.000000 0.000000 0.000000
vn -1.000000 0.000000 0.000000
vn -1.000000 0.000000 0.000000
vn -0.589149 0.808025 0.000000
vn -0.340556 0.940224 0.000000
vn -0.587029 0.809566 0.000000
vn -0.340217 0.940347 0.000000
vn 1.000000 0.000000 0.000000
vn 1.000000 -0.000000 0.000000
vn 1.000000 0.000000 0.000000
vn 1.000000 0.000000 0.000000
vn 0.000000 0.000000 1.000000
vn 0.000000 0.000000 1.000000
vn 0.000112 0.000374 1.000000
vn 0.000000 0.000391 1.000000
vn -0.000000 0.000391 1.000000
vn -0.000081 -0.000329 -1.000000
vn 0.000000 -0.000341 -1.000000
vn 0.000000 0.000000 -1.000000
vn 0.000000 0.000000 -1.000000
vn -0.077353 0.014702 -0.996895
vn -0.080465 -0.043868 -0.995792
vn -0.313671 0.016594 -0.949387
vn -0.309621 -0.035217 -0.950208
vn 0.997557 0.069851 0.000000
vn 0.997557 0.069851 0.000000
vn 0.994868 0.101182 0.000000
vn 0.994775 0.102096 0.000000
vn 0.313427 0.033858 0.949009
vn 0.083208 0.042555 0.995623
vn 0.317267 -0.018250 0.948161
vn 0.080059 -0.016645 0.996651
vn -0.997558 0.069851 0.000000
vn -0.994868 0.101182 0.000000
vn -0.997557 0.069851 0.000000
vn -0.994775 0.102096 0.000000
vn -0.004193 -0.012447 -0.999914
vn -0.002181 -0.013304 -0.999909
vn 0.000000 -0.000346 -1.000000
vn -0.999963 -0.008562 0.000000
vn -0.999958 -0.009143 0.000000
vn 0.005328 0.012852 0.999903
vn 0.002164 0.013652 0.999905
vn 0.999958 -0.009143 -0.000000
vn 0.999963 -0.008562 0.000000
vn -0.064649 -0.270055 -0.960672
vn -0.034375 -0.236476 -0.971029
vn -0.181568 -0.252246 -0.950476
vn -0.103776 -0.238334 -0.965623
vn -0.823813 -0.566862 0.000000
vn -0.827408 -0.561602 0.000000
vn -0.897251 -0.441522 -0.000000
vn -0.897414 -0.441190 0.000000
vn 0.103492 0.240709 0.965064
vn 0.034128 0.238700 0.970493
vn 0.182971 0.256851 0.948973
vn 0.065703 0.275680 0.959002
vn 0.897414 -0.441189 0.000003
vn 0.827408 -0.561602 0.000001
vn 0.897251 -0.441522 0.000002
vn 0.823813 -0.566862 0.000000
vn 0.824013 0.566570 0.000001
vn 0.824165 0.566350 0.000001
vn 0.916680 0.399622 0.000000
vn 0.916948 0.399007 -0.000000
vn -0.317266 -0.018250 0.948161
vn -0.313428 0.033858 0.949008
vn -0.542521 -0.029556 0.839522
vn -0.534035 0.003398 0.845456
vn 0.531036 -0.004178 -0.847339
vn 0.309621 -0.035217 -0.950208
vn 0.539965 0.028637 -0.841200
vn 0.313671 0.016594 -0.949387
vn -0.477945 0.332033 0.813217
vn -0.405228 0.250856 0.879126
vn -0.103492 0.240709 0.965064
vn -0.182972 0.256851 0.948973
vn 0.874913 -0.484281 0.000000
vn 0.746086 -0.665850 0.000000
vn 0.878455 -0.477825 0.000001
vn 0.746086 -0.665850 0.000000
vn 0.181568 -0.252246 -0.950476
vn 0.403930 -0.246920 -0.880835
vn 0.103776 -0.238334 -0.965623
vn 0.476717 -0.329233 -0.815075
vn 0.534036 0.003398 0.845455
vn 0.542521 -0.029556 0.839522
vn -0.738078 0.674715 0.000000
vn -0.738388 0.674376 -0.000001
vn -0.539966 0.028637 -0.841200
vn -0.531036 -0.004178 -0.847339
vn -0.874913 -0.484280 0.000000
vn -0.878455 -0.477825 0.000000
vn -0.746086 -0.665850 0.000000
vn -0.746086 -0.665850 0.000000
vn 0.405227 0.250856 0.879126
vn 0.477945 0.332034 0.813217
vn -0.476718 -0.329233 -0.815074
vn -0.403930 -0.246920 -0.880836
vn 0.068979 -0.062384 0.995666
vn 0.307459 -0.061860 0.949548
vn -0.304266 0.060110 -0.950689
vn -0.066732 0.060035 -0.995963
vn -0.536573 -0.061425 0.841615
vn -0.307459 -0.061860 0.949548
vn 0.991479 0.130271 0.000000
vn 0.991479 0.130270 0.000001
vn 0.534417 0.060474 -0.843055
vn 0.304267 0.060110 -0.950689
vn -0.534418 0.060473 -0.843055
vn -0.991479 0.130270 -0.000000
vn -0.991479 0.130270 -0.000000
vn 0.536572 -0.061425 0.841616
vn -0.000112 0.000374 1.000000
vn -0.000000 0.000391 1.000000
vn 0.000000 0.000000 1.000000
vn -0.000000 0.000000 1.000000
vn -0.005328 0.012852 0.999903
vn -0.002164 0.013652 0.999905
vn -0.065703 0.275680 0.959002
vn -0.034128 0.238700 0.970493
vn -0.080059 -0.016645 0.996651
vn -0.083208 0.042555 0.995623
vn -0.068978 -0.062384 0.995666
vn 0.340217 0.940347 0.000000
vn 0.340556 0.940224 0.000000
vn 0.587029 0.809566 -0.000002
vn 0.589149 0.808025 0.000000
vn 0.077353 0.014702 -0.996895
vn 0.066732 0.060035 -0.995963
vn 0.080465 -0.043868 -0.995792
vn 0.034375 -0.236475 -0.971029
vn 0.064649 -0.270055 -0.960672
vn 0.004193 -0.012447 -0.999914
vn 0.000081 -0.000329 -1.000000
vn 0.002182 -0.013304 -0.999909
vn -0.000000 -0.000341 -1.000000
vn -0.000000 0.000000 -1.000000
vn -0.000000 0.000000 -1.000000
vn -0.026077 -0.124588 -0.991866
vn -0.012288 -0.126815 -0.991850
vn -0.000000 -0.246921 -0.969036
vn 0.026077 -0.124588 -0.991866
vn 0.012288 -0.126815 -0.991850
vn 0.981733 -0.190263 0.000001
vn 0.984771 -0.173855 0.000001
vn -0.026121 0.124661 0.991856
vn -0.011914 0.126880 0.991847
vn -0.000000 0.249551 0.968362
vn 0.026121 0.124661 0.991856
vn 0.011914 0.126880 0.991847
vn -0.984771 -0.173855 0.000000
vn -0.981733 -0.190263 0.000000
vn -0.000000 0.130881 0.991398
vn -0.079165 -0.196305 -0.977342
vn -0.072506 -0.256225 -0.963894
vn -0.247129 -0.177384 -0.952608
vn -0.213480 -0.235438 -0.948153
vn 0.213480 -0.235439 -0.948153
vn 0.072506 -0.256225 -0.963894
vn 0.247129 -0.177384 -0.952608
vn 0.079165 -0.196305 -0.977342
vn 0.421026 -0.193290 -0.886215
vn 0.450094 -0.124069 -0.884320
vn 0.950906 -0.309481 0.000000
vn 0.950906 -0.309481 0.000000
vn 0.987277 -0.159011 -0.000000
vn 0.987392 -0.158293 0.000000
vn -0.250810 0.181830 0.950806
vn -0.216299 0.242322 0.945777
vn -0.453378 0.127538 0.882147
vn -0.423524 0.198694 0.883826
vn -0.081449 0.201405 0.976116
vn -0.074175 0.264051 0.961652
vn 0.216299 0.242322 0.945777
vn 0.074175 0.264051 0.961652
vn 0.250810 0.181830 0.950806
vn 0.081449 0.201405 0.976116
vn 0.423524 0.198693 0.883826
vn 0.453377 0.127538 0.882147
vn -0.950906 -0.309481 -0.000001
vn -0.987277 -0.159011 -0.000000
vn -0.950906 -0.309481 -0.000001
vn -0.987392 -0.158293 0.000000
vn -0.450094 -0.124069 -0.884320
vn -0.421025 -0.193290 -0.886215
vn 0.081872 -0.144063 -0.986176
vn 0.281796 -0.138518 -0.949423
vn -0.081871 -0.144063 -0.986176
vn -0.281796 -0.138518 -0.949423
vn -0.488107 -0.088736 -0.868261
vn -0.997557 -0.069851 0.000000
vn -0.997558 -0.069851 0.000000
vn 0.285725 0.140819 0.947909
vn 0.491470 0.090683 0.866160
vn 0.084392 0.146642 0.985583
vn -0.084392 0.146642 0.985583
vn -0.285724 0.140819 0.947909
vn -0.491470 0.090683 0.866160
vn 0.997557 -0.069852 -0.000001
vn 0.997557 -0.069852 -0.000001
vn 0.488107 -0.088736 -0.868262
vn -0.178906 0.382535 -0.906454
vn -0.214195 0.482541 -0.849279
vn -0.094429 0.428129 -0.898771
vn -0.095424 0.425231 -0.900041
vn -0.052180 0.358894 -0.931919
vn 0.052180 0.358894 -0.931919
vn 0.094429 0.428129 -0.898771
vn 0.178907 0.382537 -0.906454
vn 0.214195 0.482541 -0.849279
vn 0.095423 0.425230 -0.900041
vn 0.530302 0.452582 -0.716903
vn 0.520394 0.541117 -0.660593
vn 0.612127 0.382485 -0.692103
vn 0.619688 0.489628 -0.613393
vn 0.598867 0.500038 -0.625556
vn 0.347007 0.543373 -0.764416
vn 0.985621 0.168972 0.000000
vn 0.985472 0.169836 0.000000
vn 0.961541 0.274663 0.000000
vn 0.961308 0.275477 0.000000
vn -0.183853 -0.460620 0.868348
vn -0.457659 -0.520235 0.721044
vn -0.088894 -0.434054 0.896491
vn -0.357713 -0.554820 0.751143
vn -0.069193 -0.419764 0.904992
vn -0.174431 -0.349503 0.920555
vn 0.098816 -0.437116 0.893960
vn 0.180968 -0.464417 0.866930
vn 0.069193 -0.419763 0.904993
vn 0.174432 -0.349503 0.920555
vn 0.333513 -0.528226 0.780863
vn 0.597888 -0.556402 0.577016
vn 0.480396 -0.525879 0.701905
vn -0.985621 0.168972 -0.000000
vn -0.961541 0.274663 0.000000
vn -0.985473 0.169836 0.000000
vn -0.961308 0.275477 0.000000
vn -0.530301 0.452581 -0.716904
vn -0.520394 0.541117 -0.660593
vn 0.517644 -0.154099 0.841604
vn 0.528719 -0.095578 0.843398
vn 0.279101 -0.167877 0.945473
vn 0.294772 -0.107219 0.949533
vn 0.064584 -0.112263 0.991578
vn 0.072230 -0.175645 0.981800
vn -0.279101 -0.167877 0.945474
vn -0.072230 -0.175645 0.981800
vn -0.294772 -0.107219 0.949533
vn -0.064584 -0.112263 0.991578
vn -0.528719 -0.095578 0.843399
vn -0.517644 -0.154099 0.841605
vn 0.515932 0.151791 -0.843074
vn 0.526913 0.094003 -0.844705
vn 0.276682 0.165121 -0.946669
vn 0.292144 0.105105 -0.950581
vn 0.062811 0.109621 -0.991987
vn 0.070521 0.172537 -0.982475
vn -0.276682 0.165121 -0.946669
vn -0.070521 0.172537 -0.982475
vn -0.292144 0.105105 -0.950581
vn -0.062811 0.109621 -0.991987
vn -0.526913 0.094003 -0.844705
vn -0.515931 0.151791 -0.843074
vn 0.518785 -0.323027 0.791528
vn 0.502504 -0.211837 0.838221
vn 0.213952 -0.277524 0.936592
vn 0.243183 -0.207940 0.947430
vn 0.069568 -0.219226 0.973191
vn 0.061644 -0.289248 0.955267
vn -0.213950 -0.277523 0.936593
vn -0.061644 -0.289248 0.955267
vn -0.243182 -0.207940 0.947430
vn -0.069569 -0.219227 0.973190
vn -0.502503 -0.211837 0.838222
vn -0.518786 -0.323028 0.791527
vn 0.517951 0.319120 -0.793656
vn 0.500955 0.208826 -0.839902
vn 0.212456 0.271831 -0.938600
vn 0.240950 0.204042 -0.948847
vn 0.068022 0.214707 -0.974307
vn 0.060562 0.282594 -0.957326
vn -0.212454 0.271830 -0.938601
vn -0.060562 0.282595 -0.957326
vn -0.240949 0.204041 -0.948847
vn -0.068022 0.214708 -0.974307
vn -0.500956 0.208826 -0.839902
vn -0.517953 0.319121 -0.793654
vn 0.738078 0.674715 -0.000003
vn 0.738388 0.674376 -0.000004
vn -0.824013 0.566570 0.000001
vn -0.916680 0.399622 0.000001
vn -0.824165 0.566350 0.000001
vn -0.916948 0.399007 0.000002
vn 0.000000 0.000000 -1.000000
vn 0.000000 -0.013983 -0.999902
vn -0.000000 -0.130618 -0.991433
vn 0.000000 -0.274968 -0.961454
vn -0.000000 -0.260572 -0.965454
vn -0.000000 -0.197945 -0.980213
vn -0.000000 -0.144298 -0.989534
vn 0.000000 -0.043522 -0.999052
vn 0.000000 0.018964 -0.999820
vn 0.000000 0.065561 -0.997849
vn -0.000000 0.172030 -0.985092
vn -0.000000 0.115081 -0.993356
vn -0.000000 0.286953 -0.957945
vn 0.000000 0.216786 -0.976219
vn -0.000000 0.413324 -0.910584
vn -0.000000 0.357837 -0.933784
vn 0.000000 1.000000 0.000000
vn 0.000000 1.000000 0.000000
vn 0.000000 -0.412795 0.910824
vn -0.000000 -0.417937 0.908476
vn 0.000000 -0.293867 0.955846
vn -0.000000 -0.221438 0.975175
vn -0.000000 -0.175144 0.984543
vn 0.000000 -0.117868 0.993029
vn 0.000000 -0.068126 0.997677
vn 0.000000 -0.021046 0.999779
vn 0.000000 0.042194 0.999110
vn 0.000000 0.203213 0.979135
vn -0.000000 0.146989 0.989138
vn -0.000000 0.268719 0.963219
vn 0.000000 0.280869 0.959746
vn 0.000000 0.014279 0.999898
vn -0.000000 0.000000 1.000000
vn 0.615330 -0.242366 0.750085
vn 0.610031 -0.374801 0.698130
vn 0.507627 -0.400969 0.762587
vn 0.617981 -0.090695 0.780945
vn 0.611992 -0.155843 0.775358
vn 0.622460 -0.063829 0.780044
vn 0.621403 -0.039645 0.782487
vn 0.610400 -0.019972 0.791842
vn 0.571932 0.049952 0.818779
vn 0.547140 0.084267 0.832788
vn 0.535679 0.187987 0.823231
vn 0.539349 0.234675 0.808721
vn 0.503709 0.321137 0.801966
vn -0.538729 -0.231577 -0.810027
vn -0.502763 -0.318272 -0.803699
vn -0.544420 -0.081636 -0.834831
vn -0.534056 -0.184368 -0.825102
vn -0.569118 -0.048188 -0.820842
vn -0.619192 0.039263 -0.784258
vn -0.607861 0.019661 -0.793800
vn -0.620550 0.063369 -0.781603
vn -0.610712 0.153766 -0.776780
vn -0.616423 0.089517 -0.782310
vn -0.614364 0.239986 -0.751640
vn -0.612126 0.382486 -0.692103
vn 0.614363 0.239986 -0.751642
vn 0.616423 0.089517 -0.782310
vn 0.610713 0.153766 -0.776779
vn 0.620550 0.063370 -0.781603
vn 0.619192 0.039262 -0.784257
vn 0.607863 0.019661 -0.793799
vn 0.569117 -0.048188 -0.820843
vn 0.544419 -0.081636 -0.834831
vn 0.534056 -0.184367 -0.825102
vn 0.538728 -0.231577 -0.810028
vn 0.502763 -0.318272 -0.803699
vn -0.539350 0.234675 0.808721
vn -0.503710 0.321137 0.801965
vn -0.547142 0.084267 0.832788
vn -0.535679 0.187987 0.823231
vn -0.571933 0.049952 0.818778
vn -0.621403 -0.039645 0.782488
vn -0.610400 -0.019972 0.791841
vn -0.622460 -0.063829 0.780044
vn -0.611993 -0.155844 0.775356
vn -0.617981 -0.090695 0.780944
vn -0.615331 -0.242366 0.750084
vn -0.507628 -0.400969 0.762586
vn -0.610031 -0.374800 0.698131
vn -0.597888 -0.556402 0.577016
vn -0.619687 0.489628 -0.613395
vn -0.598868 0.500039 -0.625554
vn -0.347010 0.543377 -0.764412
vn 0.635853 -0.495326 0.591898
vn -0.789297 0.614011 -0.000000
vn -0.789317 0.613986 0.000000
vn 0.789298 0.614011 0.000000
vn 0.789317 0.613986 0.000000
vn -0.635851 -0.495325 0.591900
vn -0.053225 -0.325572 0.944018
vn -0.000000 -0.325509 0.945539
vn 0.053225 -0.325571 0.944018
vn 0.000000 0.409447 -0.912334
vn -0.082655 -0.088974 -0.992599
vn -0.303269 -0.081814 -0.949387
vn -0.000000 -0.088902 -0.996040
vn 0.082654 -0.088974 -0.992599
vn 0.303269 -0.081814 -0.949386
vn 0.518680 -0.041518 -0.853960
vn 0.594249 -0.009886 -0.804220
vn 0.999973 0.007336 0.000000
vn 0.999967 0.008140 -0.000000
vn -0.521923 0.041984 0.851959
vn -0.597025 0.010535 0.802154
vn -0.307181 0.082100 0.948103
vn -0.085326 0.089413 0.992333
vn -0.000000 0.089413 0.995995
vn 0.085326 0.089413 0.992333
vn 0.307181 0.082100 0.948103
vn 0.521924 0.041984 0.851958
vn 0.597025 0.010535 0.802153
vn -0.999967 0.008139 0.000000
vn -0.999973 0.007335 0.000000
vn -0.518680 -0.041518 -0.853960
vn -0.594250 -0.009886 -0.804220
vn 0.206632 -0.672120 0.711026
vn 0.411642 -0.686051 0.599903
vn 0.249201 -0.528240 0.811703
vn 0.488573 -0.542728 0.683186
vn 0.579818 -0.704011 0.410096
vn 0.685072 -0.560996 0.464715
vn 0.679461 -0.717268 0.154463
vn 0.800824 -0.574187 0.170266
vn 0.684016 -0.717960 -0.129055
vn 0.803371 -0.574670 -0.156040
vn 0.592684 -0.705727 -0.388169
vn 0.692190 -0.562199 -0.452554
vn 0.430860 -0.687948 -0.584027
vn 0.499037 -0.544067 -0.674502
vn 0.229770 -0.673332 -0.702730
vn 0.261629 -0.529101 -0.807219
vn 0.012233 -0.667419 -0.744582
vn 0.006535 -0.523148 -0.852217
vn -0.206632 -0.672120 -0.711026
vn -0.249201 -0.528240 -0.811703
vn -0.411643 -0.686051 -0.599903
vn -0.488573 -0.542728 -0.683185
vn -0.579818 -0.704011 -0.410096
vn -0.685072 -0.560996 -0.464715
vn -0.679461 -0.717268 -0.154463
vn -0.800824 -0.574187 -0.170265
vn -0.684016 -0.717960 0.129055
vn -0.803371 -0.574671 0.156041
vn -0.592684 -0.705727 0.388169
vn -0.692190 -0.562199 0.452554
vn -0.430860 -0.687947 0.584027
vn -0.499037 -0.544067 0.674503
vn -0.229770 -0.673332 0.702730
vn -0.261628 -0.529101 0.807219
vn -0.012233 -0.667419 0.744582
vn -0.006535 -0.523148 0.852217
vn 0.000000 -1.000000 0.000000
vn 0.000000 -1.000000 0.000000
vn 0.000000 -1.000000 0.000000
vn 0.000000 -1.000000 0.000000
vn 0.000000 -1.000000 0.000000
vn 0.000000 -1.000000 0.000000
vn 0.000000 -1.000000 0.000000
vn 0.000000 -1.000000 0.000000
vn 0.000000 -1.000000 0.000000
vn 0.000000 -1.000000 0.000000
vn 0.000000 -1.000000 0.000000
vn 0.000000 -1.000000 0.000000
vn 0.000000 -1.000000 0.000000
vn 0.000000 -1.000000 0.000000
vn 0.000000 -1.000000 0.000000
vn 0.000000 -1.000000 0.000000
vn 0.000000 -1.000000 0.000000
vn 0.000000 -1.000000 0.000000
vn 0.000000 -1.000000 0.000000
vn 0.000000 1.000000 0.000001
vn 0.000000 1.000000 0.000001
vn 0.000000 1.000000 0.000000
vn 0.000000 1.000000 0.000000
vn 0.000000 1.000000 0.000000
vn 0.000000 1.000000 0.000000
vn 0.000000 1.000000 0.000000
vn 0.000000 1.000000 0.000000
vn 0.000000 1.000000 0.000000
vn 0.000000 1.000000 0.000000
vn 0.000000 1.000000 -0.000001
vn 0.000000 1.000000 -0.000001
vn 0.000000 1.000000 0.000000
vn 0.000000 1.000000 0.000000
vn 0.000000 1.000000 0.000000
vn 0.000000 1.000000 0.000000
vn 0.000000 1.000000 0.000002
vn 0.000000 1.000000 0.000002
vn 0.000000 1.000000 0.000000
vn 0.002042 0.116055 0.993241
vn 0.300449 0.117801 0.946495
vn 0.001760 0.083471 0.996509
vn 0.300536 0.084730 0.949999
vn -0.296490 0.117756 0.947748
vn -0.297125 0.084710 0.951074
vn -0.581596 0.122472 0.804206
vn -0.583031 0.088142 0.807654
vn -0.823821 0.128608 0.552069
vn -0.826675 0.092627 0.555003
vn -0.970684 0.133165 0.200101
vn -0.974852 0.095973 0.201130
vn -0.971631 0.133196 -0.195427
vn -0.975670 0.095987 -0.197118
vn -0.826356 0.128681 -0.548249
vn -0.828862 0.092661 -0.551726
vn -0.585101 0.122547 -0.801648
vn -0.586053 0.088176 -0.805461
vn -0.300448 0.117801 -0.946496
vn -0.300536 0.084730 -0.949999
vn -0.002042 0.116055 -0.993241
vn -0.001760 0.083471 -0.996509
vn 0.296490 0.117756 -0.947748
vn 0.297125 0.084710 -0.951074
vn 0.581596 0.122472 -0.804206
vn 0.583032 0.088142 -0.807654
vn 0.823821 0.128608 -0.552068
vn 0.826675 0.092627 -0.555003
vn 0.970684 0.133165 -0.200100
vn 0.974852 0.095973 -0.201130
vn 0.971631 0.133196 0.195427
vn 0.975670 0.095987 0.197118
vn 0.826356 0.128681 0.548249
vn 0.828862 0.092661 0.551726
vn 0.585101 0.122547 0.801648
vn 0.586052 0.088176 0.805461
vn -0.003235 -0.220619 0.975355
vn 0.290413 -0.223576 0.930416
vn 0.000389 0.022721 0.999742
vn 0.301687 0.023053 0.953128
vn -0.296666 -0.223785 0.928391
vn -0.300934 0.023072 0.953366
vn -0.575341 -0.232168 0.784271
vn -0.588483 0.024016 0.808153
vn -0.809699 -0.242758 0.534281
vn -0.832338 0.025227 0.553694
vn -0.949513 -0.250365 0.189057
vn -0.979597 0.026107 0.199267
vn -0.948049 -0.250239 -0.196428
vn -0.979776 0.026092 -0.198388
vn -0.805757 -0.242450 -0.540346
vn -0.832817 0.025192 -0.552974
vn -0.569845 -0.231835 -0.788372
vn -0.589148 0.023983 -0.807669
vn -0.290413 -0.223576 -0.930416
vn -0.301687 0.023054 -0.953128
vn 0.003235 -0.220619 -0.975355
vn -0.000389 0.022721 -0.999742
vn 0.296666 -0.223786 -0.928391
vn 0.300934 0.023072 -0.953366
vn 0.575341 -0.232168 -0.784271
vn 0.588483 0.024016 -0.808153
vn 0.809699 -0.242758 -0.534281
vn 0.832338 0.025227 -0.553694
vn 0.949513 -0.250365 -0.189056
vn 0.979598 0.026108 -0.199267
vn 0.948049 -0.250239 0.196428
vn 0.979776 0.026092 0.198388
vn 0.805757 -0.242450 0.540346
vn 0.832817 0.025192 0.552975
vn 0.569844 -0.231835 0.788372
vn 0.589148 0.023983 0.807670
vn 0.000665 0.035385 0.999374
vn 0.300816 0.035919 0.953006
vn 0.000394 0.020183 0.999796
vn 0.300513 0.020487 0.953558
vn -0.299527 0.035915 0.953412
vn -0.299748 0.020486 0.953799
vn -0.586509 0.037374 0.809080
vn -0.586768 0.021321 0.809475
vn -0.830749 0.039274 0.555260
vn -0.831177 0.022409 0.555557
vn -0.978892 0.040685 0.200290
vn -0.979475 0.023218 0.200226
vn -0.979201 0.040688 -0.198769
vn -0.979659 0.023218 -0.199324
vn -0.831577 0.039282 -0.554019
vn -0.831668 0.022410 -0.554821
vn -0.587651 0.037382 -0.808250
vn -0.587445 0.021322 -0.808983
vn -0.300816 0.035919 -0.953006
vn -0.300512 0.020487 -0.953558
vn -0.000664 0.035385 -0.999374
vn -0.000394 0.020183 -0.999796
vn 0.299527 0.035915 -0.953412
vn 0.299748 0.020486 -0.953799
vn 0.586509 0.037374 -0.809080
vn 0.586768 0.021321 -0.809475
vn 0.830749 0.039274 -0.555260
vn 0.831177 0.022409 -0.555557
vn 0.978892 0.040685 -0.200290
vn 0.979475 0.023218 -0.200226
vn 0.979201 0.040688 0.198769
vn 0.979658 0.023218 0.199324
vn 0.831577 0.039282 0.554019
vn 0.831668 0.022410 0.554821
vn 0.587651 0.037382 0.808250
vn 0.587445 0.021322 0.808983
vn -0.000000 0.000000 1.000000
vn 0.300373 0.000000 0.953822
vn -0.300373 0.000000 0.953822
vn -0.587502 0.000000 0.809222
vn -0.831813 0.000000 0.555056
vn -0.979859 0.000000 0.199689
vn -0.979859 0.000000 -0.199689
vn -0.831813 0.000000 -0.555056
vn -0.587502 0.000000 -0.809223
vn -0.300373 0.000000 -0.953822
vn 0.000000 0.000000 -1.000000
vn 0.300373 0.000000 -0.953822
vn 0.587503 0.000000 -0.809222
vn 0.831813 0.000000 -0.555056
vn 0.979859 0.000000 -0.199689
vn 0.979859 0.000000 0.199689
vn 0.831813 0.000000 0.555057
vn 0.587502 0.000000 0.809223
vn 0.000000 0.000000 1.000000
vn 0.300676 0.000000 0.953726
vn -0.000000 0.000000 1.000000
vn 0.300676 0.000000 0.953726
vn -0.300676 0.000000 0.953726
vn -0.300677 0.000000 0.953726
vn -0.588007 0.000000 0.808856
vn -0.588006 0.000000 0.808856
vn -0.832222 -0.000000 0.554443
vn -0.832221 0.000000 0.554444
vn -0.979930 0.000000 0.199340
vn -0.979930 -0.000000 0.199340
vn -0.979930 -0.000000 -0.199340
vn -0.979930 0.000000 -0.199340
vn -0.832221 -0.000000 -0.554444
vn -0.832221 -0.000000 -0.554444
vn -0.588007 0.000000 -0.808856
vn -0.588006 0.000000 -0.808856
vn -0.300677 0.000000 -0.953726
vn -0.300676 0.000000 -0.953726
vn -0.000000 0.000000 -1.000000
vn 0.000001 0.000000 -1.000000
vn 0.300677 -0.000000 -0.953726
vn 0.300677 0.000000 -0.953726
vn 0.588007 -0.000000 -0.808856
vn 0.588007 -0.000000 -0.808856
vn 0.832222 0.000000 -0.554443
vn 0.832221 0.000000 -0.554443
vn 0.979931 0.000000 -0.199340
vn 0.979930 0.000000 -0.199340
vn 0.979930 0.000000 0.199340
vn 0.979930 0.000000 0.199341
vn 0.832221 0.000000 0.554444
vn 0.832221 0.000000 0.554444
vn 0.588006 0.000000 0.808857
vn 0.588006 0.000000 0.808857
vn 0.000000 -1.000000 0.000008
vn 0.000000 -1.000000 0.000007
vn 0.000000 -1.000000 0.000001
vn 0.000000 -1.000000 0.000000
vn 0.000000 -1.000000 0.000008
vn 0.000000 -1.000000 0.000007
vn 0.000000 -1.000000 0.000011
vn 0.000000 -1.000000 0.000011
vn 0.000000 -1.000000 0.000000
vn 0.000000 -1.000000 0.000001
vn 0.000000 -1.000000 0.000000
vn 0.000000 -1.000000 0.000000
vn 0.000000 -1.000000 0.000000
vn 0.000000 -1.000000 0.000000
vn 0.000000 -1.000000 0.000000
vn 0.000000 -1.000000 0.000000
vn 0.000000 -1.000000 0.000003
vn 0.000000 -1.000000 0.000003
vn 0.000000 -1.000000 -0.000008
vn 0.000000 -1.000000 -0.000007
vn 0.000000 -1.000000 -0.000001
vn 0.000000 -1.000000 0.000000
vn 0.000000 -1.000000 -0.000008
vn 0.000000 -1.000000 -0.000007
vn 0.000000 -1.000000 -0.000010
vn 0.000000 -1.000000 -0.000011
vn 0.000000 -1.000000 0.000004
vn 0.000000 -1.000000 0.000003
vn 0.000000 -1.000000 -0.000000
vn 0.000000 -1.000000 -0.000000
vn 0.000000 -1.000000 0.000000
vn 0.000000 -1.000000 -0.000000
vn 0.000000 -1.000000 0.000000
vn 0.000000 -1.000000 0.000000
vn 0.000000 -1.000000 0.000001
vn 0.000000 -1.000000 0.000001
s 1
g polySurface1
usemtl initialShadingGroup
f 9/1/1 1/616/2 12/613/3
f 12/613/3 1/616/2 2/4/4
f 34/687/5 149/6/6 33/7/7
f 33/7/7 149/6/6 150/677/8
f 7/9/9 10/10/10 8/11/11
f 8/11/11 10/10/10 11/12/12
s 4
f 2/615/13 137/13/14 12/3/15
f 12/3/15 137/13/14 138/14/16
f 138/14/16 137/13/14 42/15/17
s 5
f 9/614/18 161/16/19 1/2/20
f 1/2/20 161/16/19 162/17/21
f 154/18/22 288/19/23 3/20/24
f 3/20/24 288/19/23 289/21/25
s 1
f 300/22/26 301/625/27 22/690/28
f 22/690/28 301/625/27 21/689/29
s 4
f 294/26/30 295/27/31 4/28/32
f 4/28/32 295/27/31 145/29/33
s 1
f 292/629/34 29/630/35 291/631/36
f 291/631/36 29/630/35 30/632/37
s 5
f 53/608/38 160/35/39 9/614/18
f 9/614/18 160/35/39 161/16/19
f 161/16/19 160/35/39 51/36/40
s 1
f 12/613/3 58/37/41 9/1/1
f 9/1/1 58/37/41 53/34/42
s 4
f 58/607/43 12/3/15 139/38/44
f 139/38/44 12/3/15 138/14/16
s 1
f 55/39/45 56/40/46 10/10/10
f 10/10/10 56/40/46 11/12/12
s 5
f 157/41/47 158/593/48 65/43/49
f 65/43/49 158/593/48 14/44/50
s 1
f 31/674/51 32/676/52 74/47/53
f 74/47/53 32/676/52 73/686/54
s 4
f 15/691/55 141/596/56 72/51/57
f 72/51/57 141/596/56 142/52/58
s 1
f 69/53/59 25/670/60 68/55/61
f 68/55/61 25/670/60 26/56/62
f 206/57/63 207/58/64 38/664/65
f 38/664/65 207/58/64 37/60/66
s 4
f 6/61/67 298/62/68 191/63/69
f 191/63/69 298/62/68 299/64/70
s 5
f 302/65/71 285/66/72 182/67/73
f 182/67/73 285/66/72 5/68/74
s 4
f 187/669/75 188/70/76 16/600/77
f 16/600/77 188/70/76 70/71/78
s 1
f 13/693/79 186/72/80 16/694/81
f 16/694/81 186/72/80 187/69/82
s 5
f 67/73/83 185/74/84 13/118/85
f 13/118/85 185/74/84 186/671/86
s 4
f 293/75/87 294/26/30 166/76/88
f 166/76/88 294/26/30 4/28/32
s 1
f 34/687/5 33/7/7 231/77/89
f 231/77/89 33/7/7 241/78/90
s 5
f 3/20/24 289/21/25 175/79/91
f 175/79/91 289/21/25 290/80/92
s 1
f 14/692/93 15/604/94 171/81/95
f 171/81/95 15/604/94 170/82/96
s 4
f 72/51/57 169/83/97 15/691/55
f 15/691/55 169/83/97 170/675/98
s 5
f 171/673/99 172/84/100 14/44/50
f 14/44/50 172/84/100 65/43/49
s 4
f 145/29/33 261/85/101 4/28/32
f 4/28/32 261/85/101 262/86/102
s 5
f 249/87/103 250/88/104 3/20/24
f 3/20/24 250/88/104 154/18/22
s 4
f 257/89/105 258/90/106 191/63/69
f 191/63/69 258/90/106 6/61/67
s 1
f 255/91/107 256/645/108 21/689/29
f 21/689/29 256/645/108 22/690/28
s 5
f 254/93/109 182/67/73 253/94/110
f 253/94/110 182/67/73 5/68/74
f 266/95/111 249/87/103 175/79/91
f 175/79/91 249/87/103 3/20/24
s 1
f 29/630/35 264/643/112 30/632/37
f 30/632/37 264/643/112 265/97/113
s 4
f 263/98/114 166/76/88 262/86/102
f 262/86/102 166/76/88 4/28/32
f 11/99/115 135/100/116 8/101/117
f 8/101/117 135/100/116 136/102/118
f 56/103/119 134/104/120 11/99/115
f 11/99/115 134/104/120 135/100/116
f 135/100/116 134/104/120 42/15/17
f 131/105/121 132/598/122 70/71/78
f 70/71/78 132/598/122 16/600/77
f 128/108/123 297/109/124 6/61/67
f 6/61/67 297/109/124 298/62/68
f 258/90/106 259/110/125 6/61/67
f 6/61/67 259/110/125 128/108/123
s 1
f 123/683/126 124/112/127 36/684/128
f 36/684/128 124/112/127 35/682/129
s 5
f 119/115/130 252/116/131 5/68/74
f 5/68/74 252/116/131 253/94/110
f 285/66/72 286/117/132 5/68/74
f 5/68/74 286/117/132 119/115/130
f 13/118/85 115/601/133 67/73/83
f 67/73/83 115/601/133 116/120/134
f 55/121/135 10/122/136 113/123/137
f 113/123/137 10/122/136 112/124/138
f 7/125/139 111/126/140 10/122/136
f 10/122/136 111/126/140 112/124/138
f 112/124/138 111/126/140 51/36/40
f 61/606/141 158/42/48 159/128/142
f 159/128/142 158/42/48 50/602/143
f 158/42/48 61/606/141 14/595/50
f 59/612/144 114/131/145 115/119/133
f 115/119/133 114/131/145 50/602/143
f 59/612/144 115/119/133 13/609/85
s 1
f 13/610/79 16/107/81 59/130/146
f 59/130/146 16/107/81 64/132/147
s 4
f 64/611/148 132/106/122 133/133/149
f 133/133/149 132/106/122 43/597/150
f 132/106/122 64/611/148 16/599/77
f 62/603/151 140/136/152 141/50/56
f 141/50/56 140/136/152 43/597/150
f 62/603/151 141/50/56 15/605/55
s 1
f 62/135/153 15/49/94 61/127/154
f 61/127/154 15/49/94 14/594/93
s 5
f 113/123/137 114/131/145 55/121/135
f 55/121/135 114/131/145 59/612/144
f 61/606/141 159/128/142 53/608/38
f 53/608/38 159/128/142 160/35/39
s 1
f 58/37/41 62/135/153 53/34/42
f 53/34/42 62/135/153 61/127/154
s 4
f 58/607/43 139/38/44 140/136/152
f 140/136/152 139/38/44 63/137/155
f 58/607/43 140/136/152 62/603/151
f 64/611/148 133/133/149 56/103/119
f 56/103/119 133/133/149 134/104/120
f 134/104/120 133/133/149 63/137/155
s 1
f 59/130/146 64/132/147 55/39/45
f 55/39/45 64/132/147 56/40/46
s 5
f 156/138/156 306/139/157 18/571/158
f 18/571/158 306/139/157 307/140/159
f 303/141/160 304/142/161 17/143/162
f 17/143/162 304/142/161 117/144/163
f 320/145/164 303/141/160 184/146/165
f 184/146/165 303/141/160 17/143/162
s 1
f 318/147/166 319/617/167 23/638/168
f 23/638/168 319/617/167 24/640/169
s 4
f 20/156/170 316/151/171 189/152/172
f 189/152/172 316/151/171 317/153/173
f 130/154/174 315/155/175 20/156/170
f 20/156/170 315/155/175 316/151/171
f 312/157/176 313/158/177 19/572/178
f 19/572/178 313/158/177 143/159/179
f 311/160/180 312/157/176 168/161/181
f 168/161/181 312/157/176 19/572/178
s 1
f 310/621/182 28/622/183 309/623/184
f 309/623/184 28/622/183 27/624/185
s 5
f 18/571/158 307/140/159 173/165/186
f 173/165/186 307/140/159 308/166/187
f 270/167/188 271/168/189 117/144/163
f 117/144/163 271/168/189 17/143/162
f 268/169/190 156/138/156 267/170/191
f 267/170/191 156/138/156 18/571/158
f 173/165/186 284/171/192 18/571/158
f 18/571/158 284/171/192 267/170/191
s 1
f 282/172/193 283/633/194 28/622/183
f 28/622/183 283/633/194 27/624/185
s 4
f 280/174/195 281/175/196 19/572/178
f 19/572/178 281/175/196 168/161/181
f 279/176/197 280/174/195 143/159/179
f 143/159/179 280/174/195 19/572/178
f 277/177/198 130/154/174 276/178/199
f 276/178/199 130/154/174 20/156/170
f 189/152/172 275/179/200 20/156/170
f 20/156/170 275/179/200 276/178/199
s 1
f 274/180/201 23/638/168 273/639/202
f 273/639/202 23/638/168 24/640/169
s 5
f 271/168/189 272/182/203 17/143/162
f 17/143/162 272/182/203 184/146/165
f 109/183/204 243/184/205 244/185/206
f 244/185/206 243/184/205 150/8/207
f 109/183/204 244/185/206 151/186/208
f 122/187/209 246/188/210 107/189/211
f 107/189/211 246/188/210 247/190/212
f 247/190/212 246/188/210 123/111/213
f 179/191/214 248/192/215 206/666/216
f 206/666/216 248/192/215 106/193/217
f 106/193/217 248/192/215 240/651/218
f 240/651/218 248/192/215 36/113/219
s 1
f 89/646/220 88/648/221 220/661/222
f 220/661/222 88/648/221 219/198/223
s 4
f 237/199/224 238/200/225 124/681/226
f 124/681/226 238/200/225 35/114/227
f 124/681/226 236/201/228 237/199/224
f 237/199/224 236/201/228 104/202/229
f 149/679/230 233/203/231 234/204/232
f 234/204/232 233/203/231 102/205/233
f 233/203/231 149/679/230 34/5/234
f 231/655/235 232/206/236 34/5/234
f 34/5/234 232/206/236 233/203/231
s 1
f 93/207/237 228/659/238 94/642/239
f 94/642/239 228/659/238 229/657/240
s 5
f 109/183/204 178/211/241 243/184/205
f 243/184/205 178/211/241 242/212/242
s 4
f 227/213/243 165/214/244 226/215/245
f 226/215/245 165/214/244 92/216/246
f 146/217/247 225/218/248 92/216/246
f 92/216/246 225/218/248 226/215/245
f 222/219/249 223/220/250 90/221/251
f 90/221/251 223/220/250 127/222/252
f 90/221/251 192/223/253 222/219/249
f 222/219/249 192/223/253 221/224/254
s 5
f 218/225/255 181/226/256 217/227/257
f 217/227/257 181/226/256 87/228/258
f 120/229/259 216/230/260 87/228/258
f 87/228/258 216/230/260 217/227/257
f 213/231/261 214/232/262 85/233/263
f 85/233/263 214/232/262 153/234/264
f 85/233/263 176/235/265 213/231/261
f 213/231/261 176/235/265 230/236/266
s 4
f 196/237/267 164/238/268 195/239/269
f 195/239/269 164/238/268 95/240/270
f 147/241/271 212/242/272 95/240/270
f 95/240/270 212/242/272 195/239/269
f 209/243/273 210/244/274 97/245/275
f 97/245/275 210/244/274 126/246/276
f 97/245/275 193/247/277 209/243/273
f 209/243/273 193/247/277 208/248/278
s 5
f 205/249/279 180/250/280 204/251/281
f 204/251/281 180/250/280 98/252/282
f 121/253/283 203/254/284 98/252/282
f 98/252/282 203/254/284 204/251/281
f 200/255/285 201/256/286 100/257/287
f 100/257/287 201/256/286 152/258/288
f 100/257/287 177/259/289 200/255/285
f 200/255/285 177/259/289 199/260/290
s 1
f 35/682/129 239/261/291 36/684/128
f 36/684/128 239/261/291 240/194/292
f 198/262/293 39/658/294 197/264/295
f 197/264/295 39/658/294 40/265/296
s 5
f 51/36/40 111/126/140 52/266/297
f 54/267/298 113/123/137 51/36/40
f 51/36/40 113/123/137 112/124/138
f 114/131/145 113/123/137 60/268/299
f 60/268/299 113/123/137 54/267/298
f 50/602/143 114/131/145 60/268/299
f 115/601/133 50/129/143 116/120/134
f 116/120/134 50/129/143 66/269/300
f 304/142/161 305/270/301 117/144/163
f 117/144/163 305/270/301 49/271/302
f 269/272/303 270/167/188 49/271/302
f 49/271/302 270/167/188 117/144/163
f 286/117/132 287/273/304 119/115/130
f 119/115/130 287/273/304 48/274/305
f 252/116/131 119/115/130 251/275/306
f 251/275/306 119/115/130 48/274/305
f 216/230/260 120/229/259 215/276/307
f 215/276/307 120/229/259 86/277/308
f 203/254/284 121/253/283 202/278/309
f 202/278/309 121/253/283 99/279/310
f 246/188/210 122/187/209 245/280/311
f 245/280/311 122/187/209 108/281/312
s 1
f 46/680/313 124/112/127 47/283/314
f 47/283/314 124/112/127 123/683/126
s 4
f 235/284/315 236/201/228 46/282/316
f 46/282/316 236/201/228 124/681/226
f 210/244/274 211/285/317 126/246/276
f 126/246/276 211/285/317 96/286/318
f 223/220/250 224/287/319 127/222/252
f 127/222/252 224/287/319 91/288/320
f 259/110/125 260/289/321 128/108/123
f 128/108/123 260/289/321 45/290/322
f 45/290/322 296/291/323 128/108/123
f 128/108/123 296/291/323 297/109/124
f 130/154/174 277/177/198 44/292/324
f 44/292/324 277/177/198 278/293/325
f 44/292/324 314/294/326 130/154/174
f 130/154/174 314/294/326 315/155/175
f 132/598/122 131/105/121 43/134/150
f 43/134/150 131/105/121 71/295/327
f 63/137/155 133/133/149 43/597/150
f 134/104/120 63/137/155 57/296/328
f 57/296/328 63/137/155 139/38/44
f 42/15/17 134/104/120 57/296/328
f 135/100/116 42/15/17 136/102/118
f 136/102/118 42/15/17 41/297/329
f 42/15/17 137/13/14 41/297/329
f 57/296/328 139/38/44 42/15/17
f 42/15/17 139/38/44 138/14/16
f 43/597/150 140/136/152 63/137/155
f 141/596/56 43/134/150 142/52/58
f 142/52/58 43/134/150 71/295/327
f 313/158/177 314/294/326 143/159/179
f 143/159/179 314/294/326 44/292/324
f 278/293/325 279/176/197 44/292/324
f 44/292/324 279/176/197 143/159/179
f 295/27/31 296/291/323 145/29/33
f 145/29/33 296/291/323 45/290/322
f 261/85/101 145/29/33 260/289/321
f 260/289/321 145/29/33 45/290/322
f 225/218/248 146/217/247 224/287/319
f 224/287/319 146/217/247 91/288/320
f 212/242/272 147/241/271 211/285/317
f 211/285/317 147/241/271 96/286/318
f 149/679/230 234/204/232 46/282/316
f 46/282/316 234/204/232 235/284/315
s 1
f 150/677/8 149/6/6 47/283/314
f 47/283/314 149/6/6 46/680/313
s 5
f 244/185/206 245/280/311 151/186/208
f 151/186/208 245/280/311 108/281/312
f 201/256/286 202/278/309 152/258/288
f 152/258/288 202/278/309 99/279/310
f 214/232/262 215/276/307 153/234/264
f 153/234/264 215/276/307 86/277/308
f 250/88/104 251/275/306 154/18/22
f 154/18/22 251/275/306 48/274/305
f 48/274/305 287/273/304 154/18/22
f 154/18/22 287/273/304 288/19/23
f 156/138/156 268/169/190 49/271/302
f 49/271/302 268/169/190 269/272/303
f 49/271/302 305/270/301 156/138/156
f 156/138/156 305/270/301 306/139/157
f 158/593/48 157/41/47 50/129/143
f 50/129/143 157/41/47 66/269/300
f 60/268/299 159/128/142 50/602/143
f 159/128/142 60/268/299 160/35/39
f 160/35/39 60/268/299 54/267/298
f 51/36/40 160/35/39 54/267/298
f 161/16/19 51/36/40 162/17/21
f 162/17/21 51/36/40 52/266/297
s 4
f 164/238/268 196/237/267 40/660/330
f 197/668/331 40/660/330 163/298/332
f 163/298/332 40/660/330 196/237/267
f 165/214/244 227/213/243 93/644/333
f 93/644/333 227/213/243 228/208/334
f 263/98/114 264/96/335 166/76/88
f 166/76/88 264/96/335 29/31/336
f 292/30/337 293/75/87 29/31/336
f 29/31/336 293/75/87 166/76/88
f 281/175/196 282/635/338 168/161/181
f 168/161/181 282/635/338 28/573/339
f 310/162/340 311/160/180 28/573/339
f 28/573/339 311/160/180 168/161/181
f 73/48/341 32/46/342 169/83/97
f 169/83/97 32/46/342 170/675/98
s 1
f 171/81/95 170/82/96 31/674/51
f 31/674/51 170/82/96 32/676/52
s 5
f 74/685/343 172/84/100 31/45/344
f 31/45/344 172/84/100 171/673/99
f 173/165/186 308/166/187 27/164/345
f 27/164/345 308/166/187 309/163/346
f 284/171/192 173/165/186 283/173/347
f 283/173/347 173/165/186 27/164/345
f 175/79/91 290/80/92 30/33/348
f 30/33/348 290/80/92 291/32/349
f 266/95/111 175/79/91 265/641/350
f 265/641/350 175/79/91 30/33/348
f 229/210/351 230/236/266 94/209/352
f 94/209/352 230/236/266 176/235/265
f 199/260/290 39/263/353 178/211/241
f 178/211/241 39/263/353 198/667/354
f 39/263/353 199/260/290 177/259/289
f 180/250/280 205/249/279 38/59/355
f 206/666/216 38/59/355 179/191/214
f 179/191/214 38/59/355 205/249/279
f 181/226/256 218/225/255 88/196/356
f 88/196/356 218/225/255 219/663/357
f 254/93/109 255/647/358 182/67/73
f 182/67/73 255/647/358 21/25/359
f 301/23/360 302/65/71 21/25/359
f 21/25/359 302/65/71 182/67/73
f 272/182/203 273/181/361 184/146/165
f 184/146/165 273/181/361 24/150/362
f 319/148/363 320/145/164 24/150/362
f 24/150/362 320/145/164 184/146/165
f 68/618/364 26/672/365 185/74/84
f 185/74/84 26/672/365 186/671/86
s 1
f 186/72/80 26/56/62 187/69/82
f 187/69/82 26/56/62 25/670/60
s 4
f 69/620/366 188/70/76 25/54/367
f 25/54/367 188/70/76 187/669/75
f 189/152/172 317/153/173 23/149/368
f 23/149/368 317/153/173 318/619/369
f 275/179/200 189/152/172 274/637/370
f 274/637/370 189/152/172 23/149/368
f 191/63/69 299/64/70 22/24/371
f 22/24/371 299/64/70 300/627/372
f 257/89/105 191/63/69 256/92/373
f 256/92/373 191/63/69 22/24/371
f 220/197/374 221/224/254 89/195/375
f 89/195/375 221/224/254 192/223/253
f 208/248/278 37/662/376 194/299/377
f 194/299/377 37/662/376 207/665/378
f 37/662/376 208/248/278 193/247/277
f 35/114/227 238/200/225 239/653/379
s 5
f 248/192/215 179/191/214 247/190/212
f 247/190/212 179/191/214 107/189/211
f 110/300/380 241/649/381 242/212/242
f 242/212/242 241/649/381 33/688/382
f 110/300/380 242/212/242 198/667/354
f 198/667/354 242/212/242 178/211/241
s 4
f 163/298/332 196/237/267 102/205/233
f 102/205/233 196/237/267 195/239/269
f 197/668/331 163/298/332 101/656/383
s 1
f 110/650/384 198/262/293 101/301/385
f 101/301/385 198/262/293 197/264/295
s 5
f 200/255/285 199/260/290 109/183/204
f 109/183/204 199/260/290 178/211/241
f 109/183/204 151/186/208 200/255/285
f 200/255/285 151/186/208 201/256/286
f 202/278/309 201/256/286 108/281/312
f 108/281/312 201/256/286 151/186/208
f 122/187/209 203/254/284 108/281/312
f 108/281/312 203/254/284 202/278/309
f 203/254/284 122/187/209 204/251/281
f 204/251/281 122/187/209 107/189/211
f 179/191/214 205/249/279 107/189/211
f 107/189/211 205/249/279 204/251/281
s 1
f 106/652/386 105/302/387 206/57/63
f 206/57/63 105/302/387 207/58/64
s 4
f 194/299/377 207/665/378 105/654/388
f 209/243/273 208/248/278 104/202/229
f 104/202/229 208/248/278 194/299/377
f 104/202/229 125/303/389 209/243/273
f 209/243/273 125/303/389 210/244/274
f 211/285/317 210/244/274 103/304/390
f 103/304/390 210/244/274 125/303/389
f 148/305/391 212/242/272 103/304/390
f 103/304/390 212/242/272 211/285/317
f 212/242/272 148/305/391 195/239/269
f 195/239/269 148/305/391 102/205/233
s 5
f 100/257/287 152/258/288 213/231/261
f 213/231/261 152/258/288 214/232/262
f 215/276/307 214/232/262 99/279/310
f 99/279/310 214/232/262 152/258/288
f 121/253/283 216/230/260 99/279/310
f 99/279/310 216/230/260 215/276/307
f 216/230/260 121/253/283 217/227/257
f 217/227/257 121/253/283 98/252/282
f 180/250/280 218/225/255 98/252/282
f 98/252/282 218/225/255 217/227/257
f 218/225/255 180/250/280 219/663/357
f 219/663/357 180/250/280 38/59/355
s 1
f 220/661/222 219/198/223 37/60/66
f 37/60/66 219/198/223 38/664/65
s 4
f 221/224/254 220/197/374 193/247/277
f 193/247/277 220/197/374 37/662/376
f 222/219/249 221/224/254 97/245/275
f 97/245/275 221/224/254 193/247/277
f 97/245/275 126/246/276 222/219/249
f 222/219/249 126/246/276 223/220/250
f 224/287/319 223/220/250 96/286/318
f 96/286/318 223/220/250 126/246/276
f 147/241/271 225/218/248 96/286/318
f 96/286/318 225/218/248 224/287/319
f 225/218/248 147/241/271 226/215/245
f 226/215/245 147/241/271 95/240/270
f 164/238/268 227/213/243 95/240/270
f 95/240/270 227/213/243 226/215/245
f 227/213/243 164/238/268 228/208/334
f 228/208/334 164/238/268 40/660/330
s 1
f 228/659/238 40/265/296 229/657/240
f 229/657/240 40/265/296 39/658/294
s 5
f 230/236/266 229/210/351 177/259/289
f 177/259/289 229/210/351 39/263/353
f 213/231/261 230/236/266 100/257/287
f 100/257/287 230/236/266 177/259/289
s 4
f 163/298/332 232/206/236 101/656/383
f 101/656/383 232/206/236 231/655/235
f 232/206/236 163/298/332 233/203/231
f 233/203/231 163/298/332 102/205/233
f 148/305/391 234/204/232 102/205/233
f 234/204/232 148/305/391 235/284/315
f 235/284/315 148/305/391 103/304/390
f 236/201/228 235/284/315 125/303/389
f 125/303/389 235/284/315 103/304/390
f 104/202/229 236/201/228 125/303/389
f 104/202/229 194/299/377 237/199/224
f 237/199/224 194/299/377 238/200/225
f 239/653/379 238/200/225 105/654/388
f 105/654/388 238/200/225 194/299/377
s 1
f 239/261/291 105/302/387 240/194/292
f 240/194/292 105/302/387 106/652/386
f 231/77/89 241/78/90 101/301/385
f 101/301/385 241/78/90 110/650/384
s 5
f 243/184/205 242/212/242 33/688/382
f 150/8/207 243/184/205 33/688/382
f 47/678/392 245/280/311 150/8/207
f 150/8/207 245/280/311 244/185/206
f 246/188/210 245/280/311 123/111/213
f 123/111/213 245/280/311 47/678/392
f 123/111/213 36/113/219 247/190/212
f 247/190/212 36/113/219 248/192/215
f 250/88/104 249/87/103 153/234/264
f 153/234/264 249/87/103 85/233/263
f 251/275/306 250/88/104 86/277/308
f 86/277/308 250/88/104 153/234/264
f 120/229/259 252/116/131 86/277/308
f 86/277/308 252/116/131 251/275/306
f 252/116/131 120/229/259 253/94/110
f 253/94/110 120/229/259 87/228/258
f 181/226/256 254/93/109 87/228/258
f 87/228/258 254/93/109 253/94/110
f 255/647/358 254/93/109 88/196/356
f 88/196/356 254/93/109 181/226/256
s 1
f 256/645/108 255/91/107 89/646/220
f 89/646/220 255/91/107 88/648/221
s 4
f 192/223/253 257/89/105 89/195/375
f 89/195/375 257/89/105 256/92/373
f 258/90/106 257/89/105 90/221/251
f 90/221/251 257/89/105 192/223/253
f 259/110/125 258/90/106 127/222/252
f 127/222/252 258/90/106 90/221/251
f 260/289/321 259/110/125 91/288/320
f 91/288/320 259/110/125 127/222/252
f 146/217/247 261/85/101 91/288/320
f 91/288/320 261/85/101 260/289/321
f 261/85/101 146/217/247 262/86/102
f 262/86/102 146/217/247 92/216/246
f 165/214/244 263/98/114 92/216/246
f 92/216/246 263/98/114 262/86/102
f 264/96/335 263/98/114 93/644/333
f 93/644/333 263/98/114 165/214/244
s 1
f 264/643/112 93/207/237 265/97/113
f 265/97/113 93/207/237 94/642/239
s 5
f 176/235/265 266/95/111 94/209/352
f 94/209/352 266/95/111 265/641/350
f 249/87/103 266/95/111 85/233/263
f 85/233/263 266/95/111 176/235/265
f 155/306/393 268/169/190 77/307/394
f 77/307/394 268/169/190 267/170/191
f 268/169/190 155/306/393 269/272/303
f 269/272/303 155/306/393 76/308/395
f 270/167/188 269/272/303 118/309/396
f 118/309/396 269/272/303 76/308/395
f 271/168/189 270/167/188 75/310/397
f 75/310/397 270/167/188 118/309/396
f 272/182/203 271/168/189 183/311/398
f 183/311/398 271/168/189 75/310/397
f 273/181/361 272/182/203 84/626/399
f 84/626/399 272/182/203 183/311/398
s 1
f 83/628/400 274/180/201 84/312/401
f 84/312/401 274/180/201 273/639/202
s 4
f 190/314/402 275/179/200 83/313/403
f 83/313/403 275/179/200 274/637/370
f 275/179/200 190/314/402 276/178/199
f 276/178/199 190/314/402 82/315/404
f 129/316/405 277/177/198 82/315/404
f 82/315/404 277/177/198 276/178/199
f 277/177/198 129/316/405 278/293/325
f 278/293/325 129/316/405 81/317/406
f 279/176/197 278/293/325 144/318/407
f 144/318/407 278/293/325 81/317/406
f 280/174/195 279/176/197 80/319/408
f 80/319/408 279/176/197 144/318/407
f 281/175/196 280/174/195 167/320/409
f 167/320/409 280/174/195 80/319/408
f 282/635/338 281/175/196 79/321/410
f 79/321/410 281/175/196 167/320/409
s 1
f 283/633/194 282/172/193 78/322/411
f 78/322/411 282/172/193 79/636/412
s 5
f 174/323/413 284/171/192 78/634/414
f 78/634/414 284/171/192 283/173/347
f 284/171/192 174/323/413 267/170/191
f 267/170/191 174/323/413 77/307/394
f 286/117/132 285/66/72 118/309/396
f 118/309/396 285/66/72 75/310/397
f 287/273/304 286/117/132 76/308/395
f 76/308/395 286/117/132 118/309/396
f 287/273/304 76/308/395 288/19/23
f 288/19/23 76/308/395 155/306/393
f 288/19/23 155/306/393 289/21/25
f 289/21/25 155/306/393 77/307/394
f 289/21/25 77/307/394 290/80/92
f 290/80/92 77/307/394 174/323/413
f 290/80/92 174/323/413 291/32/349
f 291/32/349 174/323/413 78/634/414
s 1
f 79/636/412 292/629/34 78/322/411
f 78/322/411 292/629/34 291/631/36
s 4
f 293/75/87 292/30/337 167/320/409
f 167/320/409 292/30/337 79/321/410
f 294/26/30 293/75/87 80/319/408
f 80/319/408 293/75/87 167/320/409
f 295/27/31 294/26/30 144/318/407
f 144/318/407 294/26/30 80/319/408
f 296/291/323 295/27/31 81/317/406
f 81/317/406 295/27/31 144/318/407
f 296/291/323 81/317/406 297/109/124
f 297/109/124 81/317/406 129/316/405
f 297/109/124 129/316/405 298/62/68
f 298/62/68 129/316/405 82/315/404
f 298/62/68 82/315/404 299/64/70
f 299/64/70 82/315/404 190/314/402
f 299/64/70 190/314/402 300/627/372
f 300/627/372 190/314/402 83/313/403
s 1
f 301/625/27 300/22/26 84/312/401
f 84/312/401 300/22/26 83/628/400
s 5
f 302/65/71 301/23/360 183/311/398
f 183/311/398 301/23/360 84/626/399
f 285/66/72 302/65/71 75/310/397
f 75/310/397 302/65/71 183/311/398
f 304/142/161 303/141/160 116/120/134
f 116/120/134 303/141/160 67/73/83
f 305/270/301 304/142/161 66/269/300
f 66/269/300 304/142/161 116/120/134
f 305/270/301 66/269/300 306/139/157
f 306/139/157 66/269/300 157/41/47
f 306/139/157 157/41/47 307/140/159
f 307/140/159 157/41/47 65/43/49
f 307/140/159 65/43/49 308/166/187
f 308/166/187 65/43/49 172/84/100
f 308/166/187 172/84/100 309/163/346
f 309/163/346 172/84/100 74/685/343
s 1
f 73/686/54 310/621/182 74/47/53
f 74/47/53 310/621/182 309/623/184
s 4
f 311/160/180 310/162/340 169/83/97
f 169/83/97 310/162/340 73/48/341
f 312/157/176 311/160/180 72/51/57
f 72/51/57 311/160/180 169/83/97
f 313/158/177 312/157/176 142/52/58
f 142/52/58 312/157/176 72/51/57
f 314/294/326 313/158/177 71/295/327
f 71/295/327 313/158/177 142/52/58
f 314/294/326 71/295/327 315/155/175
f 315/155/175 71/295/327 131/105/121
f 315/155/175 131/105/121 316/151/171
f 316/151/171 131/105/121 70/71/78
f 316/151/171 70/71/78 317/153/173
f 317/153/173 70/71/78 188/70/76
f 317/153/173 188/70/76 318/619/369
f 318/619/369 188/70/76 69/620/366
s 1
f 319/617/167 318/147/166 68/55/61
f 68/55/61 318/147/166 69/53/59
s 5
f 320/145/164 319/148/363 185/74/84
f 185/74/84 319/148/363 68/618/364
f 303/141/160 320/145/164 67/73/83
f 67/73/83 320/145/164 185/74/84
s 90
f 321/324/415 322/325/416 394/326/417
f 394/326/417 322/325/416 411/327/418
f 322/325/416 323/328/419 411/327/418
f 411/327/418 323/328/419 410/329/420
f 323/328/419 324/330/421 410/329/420
f 410/329/420 324/330/421 409/331/422
f 324/330/421 325/332/423 409/331/422
f 409/331/422 325/332/423 408/333/424
f 325/332/423 326/334/425 408/333/424
f 408/333/424 326/334/425 407/335/426
f 326/334/425 327/336/427 407/335/426
f 407/335/426 327/336/427 406/337/428
f 327/336/427 328/338/429 406/337/428
f 406/337/428 328/338/429 405/339/430
f 328/338/429 329/340/431 405/339/430
f 405/339/430 329/340/431 404/341/432
f 329/340/431 330/342/433 404/341/432
f 404/341/432 330/342/433 403/343/434
f 330/342/433 331/344/435 403/343/434
f 403/343/434 331/344/435 402/345/436
f 331/344/435 332/346/437 402/345/436
f 402/345/436 332/346/437 401/347/438
f 332/346/437 333/348/439 401/347/438
f 401/347/438 333/348/439 400/349/440
f 333/348/439 334/350/441 400/349/440
f 400/349/440 334/350/441 399/351/442
f 334/350/441 335/352/443 399/351/442
f 399/351/442 335/352/443 398/353/444
f 335/352/443 336/354/445 398/353/444
f 398/353/444 336/354/445 397/355/446
f 336/354/445 337/356/447 397/355/446
f 397/355/446 337/356/447 396/357/448
f 337/356/447 338/358/449 396/357/448
f 396/357/448 338/358/449 395/359/450
f 338/358/449 321/360/415 395/359/450
f 395/359/450 321/360/415 394/361/417
s 91
f 322/362/451 321/363/452 339/364/453
f 323/365/454 322/362/451 339/364/453
f 324/366/455 323/365/454 339/364/453
f 325/367/456 324/366/455 339/364/453
f 326/368/457 325/367/456 339/364/453
f 327/369/458 326/368/457 339/364/453
f 328/370/459 327/369/458 339/364/453
f 329/371/460 328/370/459 339/364/453
f 330/372/461 329/371/460 339/364/453
f 331/373/462 330/372/461 339/364/453
f 332/374/463 331/373/462 339/364/453
f 333/375/464 332/374/463 339/364/453
f 334/376/465 333/375/464 339/364/453
f 335/377/466 334/376/465 339/364/453
f 336/378/467 335/377/466 339/364/453
f 337/379/468 336/378/467 339/364/453
f 338/380/469 337/379/468 339/364/453
f 321/363/452 338/380/469 339/364/453
s 92
f 484/381/470 485/382/471 486/383/472
f 485/382/471 487/384/473 486/383/472
f 487/384/473 488/385/474 486/383/472
f 488/385/474 489/386/475 486/383/472
f 489/386/475 490/387/476 486/383/472
f 490/387/476 491/388/477 486/383/472
f 491/388/477 492/389/478 486/383/472
f 492/389/478 493/390/479 486/383/472
f 493/390/479 494/391/480 486/383/472
f 494/391/480 495/392/481 486/383/472
f 495/392/481 496/393/482 486/383/472
f 496/393/482 497/394/483 486/383/472
f 497/394/483 498/395/484 486/383/472
f 498/395/484 499/396/485 486/383/472
f 499/396/485 500/397/486 486/383/472
f 500/397/486 501/398/487 486/383/472
f 501/398/487 502/399/488 486/383/472
f 502/399/488 484/381/470 486/383/472
s 90
f 341/400/489 340/401/490 431/402/491
f 431/402/491 340/401/490 430/403/492
f 342/404/493 341/400/489 432/405/494
f 432/405/494 341/400/489 431/402/491
f 343/406/495 342/404/493 433/407/496
f 433/407/496 342/404/493 432/405/494
f 344/408/497 343/406/495 434/409/498
f 434/409/498 343/406/495 433/407/496
f 345/410/499 344/408/497 435/411/500
f 435/411/500 344/408/497 434/409/498
f 346/412/501 345/410/499 436/413/502
f 436/413/502 345/410/499 435/411/500
f 347/414/503 346/412/501 437/415/504
f 437/415/504 346/412/501 436/413/502
f 348/416/505 347/414/503 438/417/506
f 438/417/506 347/414/503 437/415/504
f 349/418/507 348/416/505 439/419/508
f 439/419/508 348/416/505 438/417/506
f 350/420/509 349/418/507 440/421/510
f 440/421/510 349/418/507 439/419/508
f 351/422/511 350/420/509 441/423/512
f 441/423/512 350/420/509 440/421/510
f 352/424/513 351/422/511 442/425/514
f 442/425/514 351/422/511 441/423/512
f 353/426/515 352/424/513 443/427/516
f 443/427/516 352/424/513 442/425/514
f 354/428/517 353/426/515 444/429/518
f 444/429/518 353/426/515 443/427/516
f 355/430/519 354/428/517 445/431/520
f 445/431/520 354/428/517 444/429/518
f 356/432/521 355/430/519 446/433/522
f 446/433/522 355/430/519 445/431/520
f 357/434/523 356/432/521 447/435/524
f 447/435/524 356/432/521 446/433/522
f 340/436/490 357/434/523 430/437/492
f 430/437/492 357/434/523 447/435/524
f 359/438/525 358/439/526 413/440/527
f 413/440/527 358/439/526 412/441/528
f 360/442/529 359/438/525 414/443/530
f 414/443/530 359/438/525 413/440/527
f 361/444/531 360/442/529 415/445/532
f 415/445/532 360/442/529 414/443/530
f 362/446/533 361/444/531 416/447/534
f 416/447/534 361/444/531 415/445/532
f 363/448/535 362/446/533 417/449/536
f 417/449/536 362/446/533 416/447/534
f 364/450/537 363/448/535 418/451/538
f 418/451/538 363/448/535 417/449/536
f 365/452/539 364/450/537 419/453/540
f 419/453/540 364/450/537 418/451/538
f 366/454/541 365/452/539 420/455/542
f 420/455/542 365/452/539 419/453/540
f 367/456/543 366/454/541 421/457/544
f 421/457/544 366/454/541 420/455/542
f 368/458/545 367/456/543 422/459/546
f 422/459/546 367/456/543 421/457/544
f 369/460/547 368/458/545 423/461/548
f 423/461/548 368/458/545 422/459/546
f 370/462/549 369/460/547 424/463/550
f 424/463/550 369/460/547 423/461/548
f 371/464/551 370/462/549 425/465/552
f 425/465/552 370/462/549 424/463/550
f 372/466/553 371/464/551 426/467/554
f 426/467/554 371/464/551 425/465/552
f 373/468/555 372/466/553 427/469/556
f 427/469/556 372/466/553 426/467/554
f 374/470/557 373/468/555 428/471/558
f 428/471/558 373/468/555 427/469/556
f 375/472/559 374/470/557 429/473/560
f 429/473/560 374/470/557 428/471/558
f 358/474/526 375/472/559 412/475/528
f 412/475/528 375/472/559 429/473/560
f 377/476/561 376/477/562 449/478/563
f 449/478/563 376/477/562 448/479/564
f 378/480/565 377/476/561 450/481/566
f 450/481/566 377/476/561 449/478/563
f 379/482/567 378/480/565 451/483/568
f 451/483/568 378/480/565 450/481/566
f 380/484/569 379/482/567 452/485/570
f 452/485/570 379/482/567 451/483/568
f 381/486/571 380/484/569 453/487/572
f 453/487/572 380/484/569 452/485/570
f 382/488/573 381/486/571 454/489/574
f 454/489/574 381/486/571 453/487/572
f 383/490/575 382/488/573 455/491/576
f 455/491/576 382/488/573 454/489/574
f 384/492/577 383/490/575 456/493/578
f 456/493/578 383/490/575 455/491/576
f 385/494/579 384/492/577 457/495/580
f 457/495/580 384/492/577 456/493/578
f 386/496/581 385/494/579 458/497/582
f 458/497/582 385/494/579 457/495/580
f 387/498/583 386/496/581 459/499/584
f 459/499/584 386/496/581 458/497/582
f 388/500/585 387/498/583 460/501/586
f 460/501/586 387/498/583 459/499/584
f 389/502/587 388/500/585 461/503/588
f 461/503/588 388/500/585 460/501/586
f 390/504/589 389/502/587 462/505/590
f 462/505/590 389/502/587 461/503/588
f 391/506/591 390/504/589 463/507/592
f 463/507/592 390/504/589 462/505/590
f 392/508/593 391/506/591 464/509/594
f 464/509/594 391/506/591 463/507/592
f 393/510/595 392/508/593 465/511/596
f 465/511/596 392/508/593 464/509/594
f 376/512/562 393/510/595 448/513/564
f 448/513/564 393/510/595 465/511/596
f 395/359/450 394/361/417 359/438/525
f 359/438/525 394/361/417 358/439/526
f 396/357/448 395/359/450 360/442/529
f 360/442/529 395/359/450 359/438/525
f 397/355/446 396/357/448 361/444/531
f 361/444/531 396/357/448 360/442/529
f 398/353/444 397/355/446 362/446/533
f 362/446/533 397/355/446 361/444/531
f 399/351/442 398/353/444 363/448/535
f 363/448/535 398/353/444 362/446/533
f 400/349/440 399/351/442 364/450/537
f 364/450/537 399/351/442 363/448/535
f 401/347/438 400/349/440 365/452/539
f 365/452/539 400/349/440 364/450/537
f 402/345/436 401/347/438 366/454/541
f 366/454/541 401/347/438 365/452/539
f 403/343/434 402/345/436 367/456/543
f 367/456/543 402/345/436 366/454/541
f 404/341/432 403/343/434 368/458/545
f 368/458/545 403/343/434 367/456/543
f 405/339/430 404/341/432 369/460/547
f 369/460/547 404/341/432 368/458/545
f 406/337/428 405/339/430 370/462/549
f 370/462/549 405/339/430 369/460/547
f 407/335/426 406/337/428 371/464/551
f 371/464/551 406/337/428 370/462/549
f 408/333/424 407/335/426 372/466/553
f 372/466/553 407/335/426 371/464/551
f 409/331/422 408/333/424 373/468/555
f 373/468/555 408/333/424 372/466/553
f 410/329/420 409/331/422 374/470/557
f 374/470/557 409/331/422 373/468/555
f 411/327/418 410/329/420 375/472/559
f 375/472/559 410/329/420 374/470/557
f 394/326/417 411/327/418 358/474/526
f 358/474/526 411/327/418 375/472/559
f 413/440/527 412/441/528 341/400/489
f 341/400/489 412/441/528 340/401/490
f 414/443/530 413/440/527 342/404/493
f 342/404/493 413/440/527 341/400/489
f 415/445/532 414/443/530 343/406/495
f 343/406/495 414/443/530 342/404/493
f 416/447/534 415/445/532 344/408/497
f 344/408/497 415/445/532 343/406/495
f 417/449/536 416/447/534 345/410/499
f 345/410/499 416/447/534 344/408/497
f 418/451/538 417/449/536 346/412/501
f 346/412/501 417/449/536 345/410/499
f 419/453/540 418/451/538 347/414/503
f 347/414/503 418/451/538 346/412/501
f 420/455/542 419/453/540 348/416/505
f 348/416/505 419/453/540 347/414/503
f 421/457/544 420/455/542 349/418/507
f 349/418/507 420/455/542 348/416/505
f 422/459/546 421/457/544 350/420/509
f 350/420/509 421/457/544 349/418/507
f 423/461/548 422/459/546 351/422/511
f 351/422/511 422/459/546 350/420/509
f 424/463/550 423/461/548 352/424/513
f 352/424/513 423/461/548 351/422/511
f 425/465/552 424/463/550 353/426/515
f 353/426/515 424/463/550 352/424/513
f 426/467/554 425/465/552 354/428/517
f 354/428/517 425/465/552 353/426/515
f 427/469/556 426/467/554 355/430/519
f 355/430/519 426/467/554 354/428/517
f 428/471/558 427/469/556 356/432/521
f 356/432/521 427/469/556 355/430/519
f 429/473/560 428/471/558 357/434/523
f 357/434/523 428/471/558 356/432/521
f 412/475/528 429/473/560 340/436/490
f 340/436/490 429/473/560 357/434/523
f 431/402/491 430/403/492 377/476/561
f 377/476/561 430/403/492 376/477/562
f 432/405/494 431/402/491 378/480/565
f 378/480/565 431/402/491 377/476/561
f 433/407/496 432/405/494 379/482/567
f 379/482/567 432/405/494 378/480/565
f 434/409/498 433/407/496 380/484/569
f 380/484/569 433/407/496 379/482/567
f 435/411/500 434/409/498 381/486/571
f 381/486/571 434/409/498 380/484/569
f 436/413/502 435/411/500 382/488/573
f 382/488/573 435/411/500 381/486/571
f 437/415/504 436/413/502 383/490/575
f 383/490/575 436/413/502 382/488/573
f 438/417/506 437/415/504 384/492/577
f 384/492/577 437/415/504 383/490/575
f 439/419/508 438/417/506 385/494/579
f 385/494/579 438/417/506 384/492/577
f 440/421/510 439/419/508 386/496/581
f 386/496/581 439/419/508 385/494/579
f 441/423/512 440/421/510 387/498/583
f 387/498/583 440/421/510 386/496/581
f 442/425/514 441/423/512 388/500/585
f 388/500/585 441/423/512 387/498/583
f 443/427/516 442/425/514 389/502/587
f 389/502/587 442/425/514 388/500/585
f 444/429/518 443/427/516 390/504/589
f 390/504/589 443/427/516 389/502/587
f 445/431/520 444/429/518 391/506/591
f 391/506/591 444/429/518 390/504/589
f 446/433/522 445/431/520 392/508/593
f 392/508/593 445/431/520 391/506/591
f 447/435/524 446/433/522 393/510/595
f 393/510/595 446/433/522 392/508/593
f 430/437/492 447/435/524 376/512/562
f 376/512/562 447/435/524 393/510/595
f 449/478/563 448/479/564 467/592/597
f 467/592/597 448/479/564 466/515/598
f 450/481/566 449/478/563 468/591/599
f 468/591/599 449/478/563 467/592/597
f 451/483/568 450/481/566 469/590/600
f 469/590/600 450/481/566 468/591/599
f 452/485/570 451/483/568 470/589/601
f 470/589/601 451/483/568 469/590/600
f 453/487/572 452/485/570 471/588/602
f 471/588/602 452/485/570 470/589/601
f 454/489/574 453/487/572 472/520/603
f 472/520/603 453/487/572 471/588/602
f 455/491/576 454/489/574 473/586/604
f 473/586/604 454/489/574 472/520/603
f 456/493/578 455/491/576 474/585/605
f 474/585/605 455/491/576 473/586/604
f 457/495/580 456/493/578 475/584/606
f 475/584/606 456/493/578 474/585/605
f 458/497/582 457/495/580 476/583/607
f 476/583/607 457/495/580 475/584/606
f 459/499/584 458/497/582 477/582/608
f 477/582/608 458/497/582 476/583/607
f 460/501/586 459/499/584 478/581/609
f 478/581/609 459/499/584 477/582/608
f 461/503/588 460/501/586 479/580/610
f 479/580/610 460/501/586 478/581/609
f 462/505/590 461/503/588 480/579/611
f 480/579/611 461/503/588 479/580/610
f 463/507/592 462/505/590 481/529/612
f 481/529/612 462/505/590 480/579/611
f 464/509/594 463/507/592 482/577/613
f 482/577/613 463/507/592 481/529/612
f 465/511/596 464/509/594 483/574/614
f 483/574/614 464/509/594 482/577/613
f 448/513/564 465/511/596 466/575/598
f 466/575/598 465/511/596 483/574/614
s 144
f 504/533/615 503/534/616 502/535/617
f 502/535/617 503/534/616 484/536/618
f 505/537/619 504/533/615 501/538/620
f 501/538/620 504/533/615 502/535/617
f 506/539/621 505/537/619 500/540/622
f 500/540/622 505/537/619 501/538/620
f 507/541/623 506/539/621 499/542/624
f 499/542/624 506/539/621 500/540/622
f 508/543/625 507/541/623 498/544/626
f 498/544/626 507/541/623 499/542/624
f 509/545/627 508/543/625 497/546/628
f 497/546/628 508/543/625 498/544/626
f 510/547/629 509/545/627 496/548/630
f 496/548/630 509/545/627 497/546/628
f 511/549/631 510/547/629 495/550/632
f 495/550/632 510/547/629 496/548/630
f 512/551/633 511/549/631 494/552/634
f 494/552/634 511/549/631 495/550/632
f 513/553/635 512/551/633 493/554/636
f 493/554/636 512/551/633 494/552/634
f 514/555/637 513/553/635 492/556/638
f 492/556/638 513/553/635 493/554/636
f 515/557/639 514/555/637 491/558/640
f 491/558/640 514/555/637 492/556/638
f 516/559/641 515/557/639 490/560/642
f 490/560/642 515/557/639 491/558/640
f 517/561/643 516/559/641 489/562/644
f 489/562/644 516/559/641 490/560/642
f 518/563/645 517/561/643 488/564/646
f 488/564/646 517/561/643 489/562/644
f 519/565/647 518/563/645 487/566/648
f 487/566/648 518/563/645 488/564/646
f 520/567/649 519/565/647 485/568/650
f 485/568/650 519/565/647 487/566/648
f 503/569/616 520/567/649 484/570/618
f 484/570/618 520/567/649 485/568/650
s 145
f 466/576/651 503/534/652 467/514/653
f 467/514/653 503/534/652 504/533/654
f 468/516/655 467/514/653 505/537/656
f 505/537/656 467/514/653 504/533/654
f 469/517/657 468/516/655 506/539/658
f 506/539/658 468/516/655 505/537/656
f 470/518/659 469/517/657 507/541/660
f 507/541/660 469/517/657 506/539/658
f 471/519/661 470/518/659 508/543/662
f 508/543/662 470/518/659 507/541/660
f 472/587/663 471/519/661 509/545/664
f 509/545/664 471/519/661 508/543/662
f 472/587/663 509/545/664 473/521/665
f 473/521/665 509/545/664 510/547/666
f 473/521/665 510/547/666 474/522/667
f 474/522/667 510/547/666 511/549/668
f 474/522/667 511/549/668 475/523/669
f 475/523/669 511/549/668 512/551/670
f 475/523/669 512/551/670 476/524/671
f 476/524/671 512/551/670 513/553/672
f 477/525/673 476/524/671 514/555/674
f 514/555/674 476/524/671 513/553/672
f 478/526/675 477/525/673 515/557/676
f 515/557/676 477/525/673 514/555/674
f 479/527/677 478/526/675 516/559/678
f 516/559/678 478/526/675 515/557/676
f 480/528/679 479/527/677 517/561/680
f 517/561/680 479/527/677 516/559/678
f 481/578/681 480/528/679 518/563/682
f 518/563/682 480/528/679 517/561/680
f 481/578/681 518/563/682 482/530/683
f 482/530/683 518/563/682 519/565/684
f 482/530/683 519/565/684 483/531/685
f 483/531/685 519/565/684 520/567/686
f 483/531/685 520/567/686 466/532/651
f 466/532/651 520/567/686 503/569/652
